<svg width="151" height="31" viewBox="0 0 151 31" fill="none" xmlns="http://www.w3.org/2000/svg">
<circle cx="10" cy="10" r="10" transform="matrix(-1 0 0 1 110 6)" fill="#29B8B5"/>
<circle cx="10" cy="10" r="10" transform="matrix(-1 0 0 1 80 6)" fill="#29B8B5"/>
<circle cx="10" cy="10" r="10" transform="matrix(-1 0 0 1 50 6)" fill="#29B8B5"/>
<circle cx="10" cy="10" r="10" transform="matrix(-1 0 0 1 20 6)" fill="#29B8B5"/>
<circle cx="15.5" cy="15.5" r="15.5" transform="matrix(-1 0 0 1 151 0)" fill="#29B8B5"/>
<path d="M135.521 23.2051C132.557 23.2051 130.373 21.4312 130.291 18.9805H132.896C132.978 20.1802 134.116 21.0415 135.521 21.0518C137.182 21.0415 138.381 19.8418 138.371 18.2012C138.381 16.499 137.151 15.2993 135.438 15.2891C134.28 15.2788 133.439 15.689 132.978 16.5605H130.496L131.398 8.15234H140.176V10.3877H133.593L133.142 14.3252H133.285C133.859 13.6792 134.936 13.2075 136.156 13.1973C138.915 13.2075 140.965 15.2583 140.955 18.1191C140.965 21.0825 138.73 23.2051 135.521 23.2051Z" fill="white"/>
</svg>
