<svg width="151" height="31" viewBox="0 0 151 31" fill="none" xmlns="http://www.w3.org/2000/svg">
<circle cx="10" cy="10" r="10" transform="matrix(-1 0 0 1 151 6)" fill="#EBEDEF"/>
<circle cx="10" cy="10" r="10" transform="matrix(-1 0 0 1 80 6)" fill="#29B8B5"/>
<circle cx="10" cy="10" r="10" transform="matrix(-1 0 0 1 50 6)" fill="#29B8B5"/>
<circle cx="10" cy="10" r="10" transform="matrix(-1 0 0 1 20 6)" fill="#29B8B5"/>
<circle cx="15.5" cy="15.5" r="15.5" transform="matrix(-1 0 0 1 121 0)" fill="#29B8B5"/>
<path d="M99.186 20.2314V18.0986L105.605 8.15234H108.927V18.0371H110.875V20.2314H108.927V23H106.384V20.2314H99.186ZM101.914 18.0371H106.425V11.1875H106.261L101.914 17.9346V18.0371Z" fill="white"/>
</svg>
