<svg width="151" height="31" viewBox="0 0 151 31" fill="none" xmlns="http://www.w3.org/2000/svg">
<circle cx="10" cy="10" r="10" transform="matrix(-1 0 0 1 151 6)" fill="#EBEDEF"/>
<circle cx="10" cy="10" r="10" transform="matrix(-1 0 0 1 121 6)" fill="#EBEDEF"/>
<circle cx="10" cy="10" r="10" transform="matrix(-1 0 0 1 50 6)" fill="#29B8B5"/>
<circle cx="10" cy="10" r="10" transform="matrix(-1 0 0 1 20 6)" fill="#29B8B5"/>
<circle cx="15.5" cy="15.5" r="15.5" transform="matrix(-1 0 0 1 91 0)" fill="#29B8B5"/>
<path d="M74.9897 23.2051C71.8213 23.2051 69.5552 21.4824 69.4937 18.9805H72.1802C72.252 20.1699 73.4414 20.9595 74.9897 20.9492C76.6201 20.9595 77.7993 20.0571 77.7993 18.7344C77.7993 17.4014 76.6509 16.4478 74.7231 16.4375H73.3901V14.3867H74.7231C76.3022 14.3867 77.3994 13.5049 77.3892 12.2129C77.3994 10.9619 76.4561 10.1211 75.0103 10.1211C73.6157 10.1211 72.416 10.9004 72.3647 12.1514H69.8013C69.8628 9.65967 72.1289 7.94727 75.0308 7.94727C78.0454 7.94727 79.9937 9.79297 79.9731 12.0693C79.9937 13.7305 78.8862 14.9302 77.2661 15.2686V15.3916C79.3579 15.6685 80.5474 17.0117 80.5269 18.8779C80.5474 21.3901 78.1992 23.2051 74.9897 23.2051Z" fill="white"/>
</svg>
