<svg width="384" height="133" viewBox="0 0 384 133" fill="none" xmlns="http://www.w3.org/2000/svg">
<rect x="0.5" y="0.5" width="383" height="132" rx="9.5" fill="white" stroke="#EBEDEF"/>
<path d="M25.1777 44V31.2734H30.0469C32.8066 31.2734 34.1689 32.6797 34.1777 34.5781C34.1689 36.125 33.1934 36.9863 31.9453 37.2852V37.4082C33.2988 37.4785 34.6699 38.6035 34.6699 40.5371C34.6699 42.5146 33.2373 44 30.3281 44H25.1777ZM27.4629 42.084H29.9766C31.6465 42.084 32.3408 41.3721 32.3496 40.3613C32.3408 39.2188 31.4531 38.3486 30.0293 38.3398H27.4629V42.084ZM27.4629 36.6875H29.7656C30.9697 36.6875 31.8838 35.9932 31.8926 34.8594C31.8838 33.8838 31.1807 33.1719 29.8184 33.1719H27.4629V36.6875ZM40.5938 44.1934C37.8076 44.1934 36.0234 42.2158 36.0234 39.2715C36.0234 36.3008 37.8076 34.332 40.5938 34.332C43.3887 34.332 45.1729 36.3008 45.1641 39.2715C45.1729 42.2158 43.3887 44.1934 40.5938 44.1934ZM38.291 39.2539C38.291 41.0029 39.0557 42.4004 40.6113 42.4004C42.1406 42.4004 42.9053 41.0029 42.8965 39.2539C42.9053 37.5049 42.1406 36.0986 40.6113 36.1074C39.0557 36.0986 38.291 37.5049 38.291 39.2539ZM49.1543 31.2734V44H46.9043V31.2734H49.1543ZM54.8496 44.1758C52.6084 44.167 50.9121 42.374 50.9121 39.2363C50.9121 36.0547 52.6523 34.332 54.8672 34.332C56.5459 34.332 57.249 35.3428 57.5918 36.0195H57.6797V31.2734H59.9121V44H57.7148V42.4883H57.5918C57.2314 43.1914 56.502 44.167 54.8496 44.1758ZM53.1973 39.2188C53.1973 41.0205 53.9883 42.3301 55.4648 42.3301C56.915 42.3301 57.7324 41.082 57.7324 39.2188C57.7324 37.3643 56.9238 36.1689 55.4648 36.1602C53.9707 36.1689 53.1973 37.4434 53.1973 39.2188Z" fill="#262626"/>
<path d="M36.3926 74.2578V75.21H31.0166V76.6016C33.4702 76.7114 34.9277 77.5098 34.9424 78.8867C34.9277 80.3442 33.2505 81.1572 30.46 81.1572C27.6328 81.1572 25.9556 80.3442 25.9629 78.8867C25.9556 77.5098 27.4058 76.7114 29.8887 76.6016V75.21H24.5273V74.2578H36.3926ZM25.2012 72.5586C27.457 72.3242 29.6323 71.1743 29.7129 69.7168H25.6113V68.7793H35.3379V69.7168H31.207C31.2876 71.1743 33.4409 72.3242 35.7334 72.5586L35.3086 73.4668C33.1772 73.2104 31.1777 72.251 30.46 70.8081C29.7422 72.251 27.7573 73.2104 25.6113 73.4668L25.2012 72.5586ZM27.1348 78.8867C27.1201 79.751 28.3726 80.271 30.46 80.2637C32.5254 80.271 33.7778 79.751 33.7852 78.8867C33.7778 78.0005 32.5254 77.4951 30.46 77.4805C28.3726 77.4951 27.1201 78.0005 27.1348 78.8867ZM49.415 78.5498V79.5166H37.4912V78.5498H40.4502V75.0415C39.3369 74.4629 38.6631 73.5254 38.6631 72.3389C38.6631 70.3247 40.6406 68.999 43.4238 68.9844C46.207 68.999 48.1846 70.3247 48.1846 72.3389C48.1846 73.5034 47.5327 74.4263 46.4561 75.0049V78.5498H49.415ZM39.7764 72.3389C39.769 73.7964 41.2852 74.7705 43.4238 74.7705C45.5405 74.7705 47.0713 73.7964 47.0713 72.3389C47.0713 70.8813 45.5405 69.9219 43.4238 69.9365C41.2852 69.9219 39.769 70.8813 39.7764 72.3389ZM41.5781 78.5498H45.2988V75.4517C44.7349 75.5981 44.105 75.6787 43.4238 75.6787C42.7573 75.6787 42.1348 75.6055 41.5781 75.459V78.5498ZM60.6357 68.1787V72.4707H62.5986V73.4375H60.6357V77.9346H59.4932V68.1787H60.6357ZM50.4844 70.7129V69.7754H53.7949V68.1787H54.9375V69.7754H58.248V70.7129H50.4844ZM51.2314 73.8623C51.2241 72.3828 52.4839 71.4307 54.3662 71.4307C56.2266 71.4307 57.4863 72.3828 57.501 73.8623C57.4863 75.3271 56.2266 76.272 54.3662 76.2646C52.4839 76.272 51.2241 75.3271 51.2314 73.8623ZM52.3301 73.8623C52.3228 74.7778 53.1357 75.3711 54.3662 75.3564C55.582 75.3711 56.4023 74.7778 56.417 73.8623C56.4023 72.9321 55.582 72.3315 54.3662 72.3389C53.1357 72.3315 52.3228 72.9321 52.3301 73.8623ZM52.4912 80.9082V77.1582H53.6191V79.9414H61.2363V80.9082H52.4912ZM77.3643 68.1641V72.0459H79.3418V73.0127H77.3643V77.5977H76.2217V68.1641H77.3643ZM67.7988 75.2832V69.292H73.5996V70.2588H68.9414V74.3164C71.5562 74.3237 73.043 74.2432 74.7861 73.8916L74.9326 74.8438C73.1016 75.1953 71.5488 75.2832 68.8096 75.2832H67.7988ZM69.2197 80.9082V76.6455H70.3477V79.9414H77.9648V80.9082H69.2197ZM83.6484 69.1748C85.4209 69.1821 86.7026 70.7056 86.8784 73.1445H89.8008V68.1641H90.9434V81.2158H89.8008V74.0967H86.8931C86.7686 76.6528 85.4648 78.2495 83.6484 78.2422C81.7222 78.2495 80.3745 76.4917 80.3818 73.7158C80.3745 70.9473 81.7222 69.1821 83.6484 69.1748ZM81.4805 73.7158C81.4878 75.8325 82.3667 77.2241 83.6484 77.2168C84.9229 77.2241 85.8164 75.8325 85.8164 73.7158C85.8164 71.5991 84.9229 70.2075 83.6484 70.2002C82.3667 70.2075 81.4878 71.5991 81.4805 73.7158ZM104.273 68.1641V81.1865H103.16V68.1641H104.273ZM93.2725 73.7891C93.2798 71.0205 94.3784 69.27 96.0703 69.2627C97.6523 69.27 98.7217 70.7935 98.8682 73.2471H100.553V68.4424H101.651V80.5273H100.553V74.1992H98.8755C98.7656 76.7334 97.6743 78.3228 96.0703 78.3154C94.3784 78.3228 93.2798 76.5576 93.2725 73.7891ZM94.3564 73.7891C94.3418 75.8984 95.0156 77.2314 96.0703 77.2168C97.1323 77.2314 97.8062 75.8984 97.7988 73.7891C97.8062 71.6724 97.1323 70.3467 96.0703 70.3467C95.0156 70.3467 94.3418 71.6724 94.3564 73.7891ZM116.607 72.1191V73.042H107.687V68.6475H108.829V72.1191H116.607ZM106.061 75.752V74.8145H117.984V75.752H106.061ZM107.613 80.8643V77.085H108.756V79.9121H116.681V80.8643H107.613ZM133.189 73.042V73.9648H124.444V68.9404H133.014V69.8926H125.616V73.042H133.189ZM122.789 76.6309V75.6934H134.713V76.6309H129.278V81.1426H128.15V76.6309H122.789ZM139.005 69.7461C138.99 72.478 138.609 75.5542 136.705 78.0811L135.797 77.5537C137.423 75.5176 137.906 73.0933 138.001 70.6982H136.061V69.7461H139.005ZM138.727 78.4033C140.521 76.1035 140.836 73.1299 140.887 70.6982H139.415V69.7461H141.891C141.891 70.8081 141.861 72.0312 141.7 73.291H143.429V68.5156H144.527V80.5273H143.429V74.2432H141.546C141.246 75.8691 140.682 77.5171 139.62 78.9453L138.727 78.4033ZM145.86 81.1865V68.1641H146.974V81.1865H145.86ZM160.641 74.2139V75.1221H148.717V74.2139H160.641ZM150.152 77.0264V76.1621H159.146V78.9307H151.324V80.1758H159.571V81.0107H150.167V78.1396H158.004V77.0264H150.152ZM150.226 69.3945V68.5596H159.103V71.2549H151.412V72.3975H159.337V73.2324H150.27V70.4639H157.945V69.3945H150.226ZM177.384 78.5498V79.5166H165.46V78.5498H170.836V75.3857H171.993V78.5498H177.384ZM166.046 74.917C168.25 74.5435 170.807 72.7197 170.807 70.6396V70.3174H166.441V69.3506H176.358V70.3174H171.993V70.6396C172 72.7197 174.564 74.5068 176.812 74.873L176.344 75.7812C174.352 75.3857 172.25 74.1187 171.415 72.3169C170.58 74.1406 168.485 75.437 166.529 75.8398L166.046 74.917ZM182.936 70.1855C182.928 71.731 184.247 73.2324 186.129 73.833L185.558 74.7412C184.078 74.2578 182.928 73.2471 182.364 71.98C181.786 73.3789 180.577 74.5215 179.054 75.0488L178.482 74.1406C180.379 73.4814 181.778 71.8555 181.778 70.1709V69.8047H178.834V68.8525H185.851V69.8047H182.936V70.1855ZM180.768 76.4844V75.5469H189.205V78.667H181.939V80.1172H189.703V81.04H180.797V77.7881H188.062V76.4844H180.768ZM185.44 72.0312V71.0791H188.062V68.1641H189.205V74.9023H188.062V72.0312H185.44ZM201.466 68.1641V73.54H203.648V74.4922H201.466V81.1865H200.323V68.1641H201.466ZM191.314 71.2109V70.2588H194.669V68.3252H195.812V70.2588H199.063V71.2109H191.314ZM192.062 75.2832C192.054 73.5254 193.402 72.2949 195.255 72.2949C197.093 72.2949 198.434 73.5254 198.448 75.2832C198.434 77.0483 197.093 78.2715 195.255 78.2715C193.402 78.2715 192.054 77.0483 192.062 75.2832ZM193.16 75.2832C193.153 76.4697 194.039 77.3047 195.255 77.29C196.456 77.3047 197.335 76.4697 197.35 75.2832C197.335 74.104 196.456 73.2544 195.255 73.2617C194.039 73.2544 193.153 74.104 193.16 75.2832ZM207.853 69.1748C209.046 69.1821 210.021 69.8779 210.584 71.0791H214.005V68.1641H215.147V81.2158H214.005V76.1621H210.665C210.123 77.4805 209.112 78.2495 207.853 78.2422C205.926 78.2495 204.579 76.4917 204.586 73.7158C204.579 70.9473 205.926 69.1821 207.853 69.1748ZM205.685 73.7158C205.692 75.8325 206.571 77.2241 207.853 77.2168C209.127 77.2241 210.021 75.8325 210.021 73.7158C210.021 71.5991 209.127 70.2075 207.853 70.2002C206.571 70.2075 205.692 71.5991 205.685 73.7158ZM210.914 72.0459C211.039 72.5513 211.104 73.1079 211.104 73.7158C211.104 74.2505 211.053 74.7559 210.958 75.21H214.005V72.0459H210.914ZM231.261 68.1641V71.5625H233.224V72.5146H231.261V75.9863H230.118V68.1641H231.261ZM221.095 75.0635C224.237 74.1553 226.244 72.3462 226.478 70.083H221.666V69.1309H227.716C227.708 72.4487 225.372 74.8804 221.578 76.001L221.095 75.0635ZM222.882 78.6377C222.875 77.0776 224.552 76.1255 227.145 76.1328C229.759 76.1255 231.407 77.0776 231.407 78.6377C231.407 80.2197 229.759 81.1572 227.145 81.1572C224.552 81.1572 222.875 80.2197 222.882 78.6377ZM224.024 78.6377C224.01 79.6191 225.233 80.2417 227.145 80.2344C229.056 80.2417 230.294 79.6191 230.294 78.6377C230.294 77.6562 229.056 77.0483 227.145 77.0557C225.233 77.0483 224.01 77.6562 224.024 78.6377ZM245.968 78.5498V79.5166H234.044V78.5498H239.42V75.3857H240.577V78.5498H245.968ZM234.63 74.917C236.834 74.5435 239.391 72.7197 239.391 70.6396V70.3174H235.025V69.3506H244.942V70.3174H240.577V70.6396C240.584 72.7197 243.148 74.5068 245.396 74.873L244.928 75.7812C242.936 75.3857 240.833 74.1187 239.999 72.3169C239.164 74.1406 237.069 75.437 235.113 75.8398L234.63 74.917ZM258.917 74.2139V75.1221H246.993V74.2139H258.917ZM248.429 77.0264V76.1621H257.423V78.9307H249.601V80.1758H257.848V81.0107H248.443V78.1396H256.28V77.0264H248.429ZM248.502 69.3945V68.5596H257.379V71.2549H249.688V72.3975H257.613V73.2324H248.546V70.4639H256.222V69.3945H248.502ZM275.602 73.6133V74.5508H270.226V75.8691H274.078V78.8281H266.344V80.1318H274.474V81.04H265.201V77.9785H272.95V76.748H265.172V75.8691H269.098V74.5508H263.736V73.6133H275.602ZM264.381 72.0898C266.659 71.8848 268.827 70.896 269.01 69.541H264.82V68.6328H274.547V69.541H270.335C270.504 70.8887 272.679 71.8848 274.972 72.0898L274.591 72.9688C272.459 72.749 270.453 71.9214 269.669 70.603C268.893 71.9214 266.893 72.749 264.762 72.9688L264.381 72.0898ZM31.0605 92.3799C31.0679 94.2183 33.4556 95.8003 35.8066 96.1299L35.3379 97.0674C33.3164 96.7305 31.3096 95.6099 30.4746 94.0132C29.6396 95.6245 27.6401 96.7305 25.6113 97.0674L25.1426 96.1299C27.4937 95.8003 29.874 94.2476 29.874 92.3799V91.6328H31.0605V92.3799ZM24.5273 99.4697V98.5029H36.3926V99.4697H31.002V104.187H29.874V99.4697H24.5273ZM45.665 99.9092C45.6577 101.059 46.2803 102.282 47.5181 102.985C48.7632 102.216 49.4224 100.913 49.415 99.9092V99.1914H50.543V99.9092C50.5356 101.25 51.5244 102.583 53.1943 103.161L52.623 104.011C51.3193 103.549 50.4111 102.641 49.957 101.55C49.5542 102.604 48.7559 103.608 47.5547 104.113C46.2876 103.63 45.4819 102.678 45.0938 101.586C44.625 102.634 43.7314 103.542 42.4863 104.011L41.9004 103.161C43.5483 102.546 44.5371 101.154 44.5518 99.9092V99.1914H45.665V99.9092ZM41.5635 94.9873C41.5562 93.1709 42.999 91.9331 44.9766 91.9404C46.9541 91.9331 48.3823 93.1709 48.3896 94.9873C48.3823 96.7744 46.9541 98.0049 44.9766 98.0049C42.999 98.0049 41.5562 96.7744 41.5635 94.9873ZM42.6914 94.9873C42.6768 96.1958 43.6362 97.0454 44.9766 97.0527C46.3022 97.0454 47.2617 96.1958 47.2617 94.9873C47.2617 93.7715 46.3022 92.9072 44.9766 92.9219C43.6362 92.9072 42.6768 93.7715 42.6914 94.9873ZM50.8652 98.6201V91.1787H52.0078V98.6201H50.8652ZM57.7207 92.1748C59.4932 92.1821 60.7749 93.7056 60.9507 96.1445H63.873V91.1641H65.0156V104.216H63.873V97.0967H60.9653C60.8408 99.6528 59.5371 101.25 57.7207 101.242C55.7944 101.25 54.4468 99.4917 54.4541 96.7158C54.4468 93.9473 55.7944 92.1821 57.7207 92.1748ZM55.5527 96.7158C55.5601 98.8325 56.439 100.224 57.7207 100.217C58.9951 100.224 59.8887 98.8325 59.8887 96.7158C59.8887 94.5991 58.9951 93.2075 57.7207 93.2002C56.439 93.2075 55.5601 94.5991 55.5527 96.7158ZM79.1074 101.55V102.517H67.1836V101.55H70.1426V98.0415C69.0293 97.4629 68.3555 96.5254 68.3555 95.3389C68.3555 93.3247 70.333 91.999 73.1162 91.9844C75.8994 91.999 77.877 93.3247 77.877 95.3389C77.877 96.5034 77.2251 97.4263 76.1484 98.0049V101.55H79.1074ZM69.4688 95.3389C69.4614 96.7964 70.9775 97.7705 73.1162 97.7705C75.2329 97.7705 76.7637 96.7964 76.7637 95.3389C76.7637 93.8813 75.2329 92.9219 73.1162 92.9365C70.9775 92.9219 69.4614 93.8813 69.4688 95.3389ZM71.2705 101.55H74.9912V98.4517C74.4272 98.5981 73.7974 98.6787 73.1162 98.6787C72.4497 98.6787 71.8271 98.6055 71.2705 98.459V101.55ZM81.5244 103.088C81.0117 103.081 80.5723 102.656 80.5869 102.136C80.5723 101.623 81.0117 101.198 81.5244 101.198C82.0444 101.198 82.4692 101.623 82.4619 102.136C82.4692 102.656 82.0444 103.081 81.5244 103.088Z" fill="#3E3F41"/>
<path d="M88.9688 35.25C88.6406 33.6875 87.3047 32.8438 85.8125 32.8438C83.7656 32.8438 82.1797 34.4219 82.1719 37.3438C82.1797 40.2578 83.7656 41.8359 85.8125 41.8438C87.3047 41.8359 88.6328 41 88.9688 39.4531H90.375C89.9688 41.7656 88.1094 43.1562 85.8125 43.1562C82.9062 43.1562 80.8047 40.9219 80.8125 37.3438C80.8047 33.7656 82.9062 31.5312 85.8125 31.5312C88.1016 31.5312 89.9531 32.8984 90.375 35.25H88.9688ZM95.875 34.5156V35.6406H94.0938V40.5625C94.0859 41.6484 94.6328 41.8281 95.2031 41.8281C95.4453 41.8281 95.8047 41.8047 96 41.7969V43.0469C95.7891 43.0781 95.4609 43.1094 95.0625 43.1094C93.9297 43.1094 92.7422 42.4062 92.7344 40.9062V35.6406H91.4531V34.5156H92.7344V32.4844H94.0938V34.5156H95.875ZM97.6094 43V34.5156H98.9062V35.8125H99C99.3047 34.9531 100.188 34.3828 101.188 34.375C101.391 34.3828 101.734 34.3906 101.891 34.4062V35.7656C101.789 35.7422 101.43 35.6719 101.078 35.6719C99.8594 35.6719 98.9531 36.5156 98.9531 37.6562V43H97.6094ZM104.547 31.6875V43H103.203V31.6875H104.547ZM114 42.2344V39.2031H110.984V37.9375H114V34.9219H115.266V37.9375H118.297V39.2031H115.266V42.2344H114ZM124.922 43V31.6875H126.266V35.8594H126.375C126.664 35.4062 127.172 34.4062 128.828 34.4062C130.953 34.4062 132.445 36.0938 132.453 38.7812C132.445 41.4766 130.953 43.1797 128.844 43.1719C127.219 43.1797 126.664 42.1719 126.375 41.7031H126.219V43H124.922ZM126.234 38.75C126.234 40.6562 127.094 41.9688 128.641 41.9688C130.258 41.9688 131.086 40.5547 131.094 38.75C131.086 36.9766 130.281 35.6094 128.641 35.6094C127.078 35.6094 126.234 36.8672 126.234 38.75Z" fill="#6B6E72"/>
<rect x="311" y="39" width="52" height="52" rx="5" fill="#EDFAFA"/>
<path d="M330.752 63.0903H337.93C338.987 63.0903 340.002 62.6332 340.749 61.8195C341.497 61.0058 341.917 59.9022 341.917 58.7514C341.917 57.6007 341.497 56.4971 340.749 55.6834C340.002 54.8697 338.987 54.4125 337.93 54.4125H330.752V63.0903ZM346.702 70.9003C346.702 71.9259 346.517 72.9415 346.156 73.8891C345.795 74.8366 345.266 75.6976 344.6 76.4228C343.933 77.148 343.142 77.7233 342.271 78.1158C341.401 78.5083 340.467 78.7103 339.525 78.7103H327.562V50.9414H337.93C339.335 50.9415 340.709 51.3903 341.882 52.2323C343.055 53.0742 343.975 54.2723 344.528 55.6779C345.081 57.0834 345.242 58.6347 344.993 60.1393C344.743 61.6439 344.093 63.0357 343.123 64.142C344.212 64.8281 345.116 65.8137 345.744 66.9999C346.372 68.1861 346.703 69.5312 346.702 70.9003ZM330.752 66.5614V75.2392H339.525C340.582 75.2392 341.597 74.7821 342.344 73.9684C343.092 73.1547 343.512 72.0511 343.512 70.9003C343.512 69.7496 343.092 68.6459 342.344 67.8322C341.597 67.0185 340.582 66.5614 339.525 66.5614H330.752Z" fill="#1A1B1C"/>
</svg>
