<svg width="384" height="133" viewBox="0 0 384 133" fill="none" xmlns="http://www.w3.org/2000/svg">
<rect x="0.5" y="0.5" width="383" height="132" rx="9.5" fill="white" stroke="#EBEDEF"/>
<rect x="311" y="39" width="52" height="52" rx="5" fill="#EDFAFA"/>
<path d="M350.904 69.7696V74.5235H355.461V77.6928H350.904V82.4467H347.866V77.6928H343.309V74.5235H347.866V69.7696H350.904ZM350.917 50.7539C351.749 50.7539 352.423 51.4591 352.423 52.3275V66.6003H349.385V53.9232H325.081V76.1065L340.271 60.2617L344.828 65.0157V69.4986L340.271 64.7447L329.375 76.1081H340.271V79.2774H323.55C323.15 79.277 322.767 79.111 322.484 78.816C322.202 78.5209 322.043 78.1209 322.043 77.7039V52.3275C322.046 51.9113 322.205 51.513 322.487 51.2186C322.769 50.9241 323.151 50.7572 323.55 50.7539H350.917ZM331.157 57.0925C331.963 57.0925 332.736 57.4264 333.305 58.0207C333.875 58.6151 334.195 59.4212 334.195 60.2617C334.195 61.1023 333.875 61.9084 333.305 62.5028C332.736 63.0971 331.963 63.431 331.157 63.431C330.351 63.431 329.579 63.0971 329.009 62.5028C328.439 61.9084 328.119 61.1023 328.119 60.2617C328.119 59.4212 328.439 58.6151 329.009 58.0207C329.579 57.4264 330.351 57.0925 331.157 57.0925Z" fill="#1A1B1C"/>
<path d="M27.4629 31.2734V44H25.1777V31.2734H27.4629ZM29.7305 44V34.4551H31.875V36.0723H31.998C32.3936 34.9824 33.3516 34.332 34.6172 34.332C35.9092 34.332 36.8408 34.9912 37.2012 36.0723H37.3066C37.7197 35.0176 38.7832 34.332 40.1719 34.332C41.9209 34.332 43.1514 35.457 43.1426 37.584V44H40.9102V37.9355C40.9102 36.749 40.1895 36.2129 39.2754 36.2129C38.1768 36.2129 37.5352 36.96 37.5352 38.041V44H35.3555V37.8477C35.3467 36.8545 34.6963 36.2129 33.7383 36.2129C32.7715 36.2129 31.9805 37.0127 31.9805 38.1992V44H29.7305ZM44.8477 41.3105C44.8477 39.166 46.6318 38.542 48.3984 38.4277C49.0664 38.375 50.4287 38.3135 50.8506 38.2959L50.8418 37.5312C50.8418 36.582 50.2354 36.0371 49.1191 36.0371C48.1172 36.0371 47.502 36.4941 47.3262 37.1797H45.1641C45.3223 35.5537 46.7812 34.332 49.1719 34.332C50.9824 34.332 53.0742 35.0791 53.0742 37.6191V44H50.9297V42.6816H50.8594C50.4375 43.4902 49.5498 44.1934 48.0469 44.1934C46.2275 44.1934 44.8477 43.2002 44.8477 41.3105ZM47.0098 41.293C47.0098 42.1191 47.6865 42.541 48.627 42.541C49.9893 42.541 50.8594 41.6445 50.8594 40.5723L50.8506 39.79C50.4463 39.8076 49.1982 39.8867 48.75 39.9219C47.6865 40.0098 47.0098 40.458 47.0098 41.293ZM59.3496 47.7793C56.8184 47.7793 55.21 46.6543 55.0605 44.8613H57.293C57.4512 45.6963 58.2334 46.083 59.3848 46.0918C60.7295 46.083 61.5996 45.5029 61.5996 44.1055V42.2773H61.4941C61.1426 42.9805 60.3779 43.8594 58.7344 43.8594C56.5283 43.8594 54.7969 42.2598 54.7969 39.1484C54.7969 36.0107 56.5371 34.332 58.752 34.332C60.4307 34.332 61.1426 35.3428 61.4941 36.0195H61.5996V34.4551H63.8145V44.1582C63.8145 46.6016 61.9248 47.7793 59.3496 47.7793ZM57.082 39.1836C57.082 40.9414 57.873 42.1016 59.3496 42.1016C60.7998 42.1016 61.6172 41.0117 61.6172 39.1836C61.6172 37.3643 60.8086 36.1689 59.3496 36.1602C57.8555 36.1689 57.082 37.4434 57.082 39.1836ZM70.1953 44.1934C67.3213 44.1934 65.5547 42.2773 65.5547 39.2891C65.5547 36.3359 67.3477 34.332 70.0723 34.332C72.4102 34.332 74.4316 35.7998 74.4316 39.1484V39.8516H67.7695C67.8047 41.4775 68.7627 42.4443 70.2129 42.4355C71.1973 42.4443 71.8564 42.0225 72.1465 41.4512H74.3438C73.9395 43.1035 72.4102 44.1934 70.1953 44.1934ZM67.7783 38.3223H72.2871C72.2783 37.0215 71.3994 36.0723 70.1074 36.0723C68.7627 36.0723 67.8574 37.1094 67.7783 38.3223Z" fill="#262626"/>
<path d="M28.7461 69.3945V80H27.4131V70.7715H27.3545L24.7764 72.4854V71.1523L27.4131 69.3945H28.7461ZM31.5879 80V72.0459H32.8037V73.291H32.9062C33.2358 72.4414 34.0049 71.9434 35.0449 71.9434C36.085 71.9434 36.7954 72.4414 37.1689 73.291H37.2568C37.6597 72.4707 38.502 71.9434 39.6445 71.9434C41.0581 71.9434 42.0762 72.8076 42.0762 74.6826V80H40.8164V74.6973C40.8091 73.5254 40.0767 73.0713 39.2051 73.0713C38.0991 73.0713 37.4692 73.8184 37.4619 74.8291V80H36.1875V74.5654C36.1948 73.6719 35.5503 73.0713 34.6348 73.0713C33.6826 73.0713 32.8477 73.877 32.8477 75.0342V80H31.5879ZM44.2588 80V69.3945H45.5186V73.3057H45.6211C45.8921 72.8809 46.3682 71.9434 47.9209 71.9434C49.9131 71.9434 51.312 73.5254 51.3193 76.0449C51.312 78.5718 49.9131 80.1685 47.9355 80.1611C46.4121 80.1685 45.8921 79.2236 45.6211 78.7842H45.4746V80H44.2588ZM45.4893 76.0156C45.4893 77.8027 46.2949 79.0332 47.7451 79.0332C49.2612 79.0332 50.0376 77.7075 50.0449 76.0156C50.0376 74.353 49.2832 73.0713 47.7451 73.0713C46.2803 73.0713 45.4893 74.2505 45.4893 76.0156ZM62.7891 68.1641V73.54H64.7666V74.5068H62.7891V81.1865H61.6318V68.1641H62.7891ZM52.4326 77.583C54.3955 75.5688 55.1938 73.1445 55.3403 70.5518H52.8428V69.585H56.4316C56.417 72.6831 55.7212 75.7446 53.3555 78.2422L52.4326 77.583ZM56.168 78.4619C58.2041 76.1621 58.812 73.269 58.9219 70.5518H56.8418V69.585H60.0059C59.9985 72.6758 59.5444 76.272 57.1055 79.1064L56.168 78.4619ZM70.0986 72.1631C70.106 74.375 71.71 76.6235 73.6289 77.4512L72.9844 78.3594C71.4609 77.6709 70.1499 76.1694 69.542 74.3677C68.9341 76.2793 67.6157 77.9346 66.1289 78.6816L65.4404 77.7734C67.3081 76.8799 68.9341 74.4189 68.9414 72.1631V70.4639H65.8652V69.5117H73.2041V70.4639H70.0986V72.1631ZM75.0205 81.1865V68.1641H76.1777V81.1865H75.0205ZM94.0781 74.8291V75.7812H88.7754V78.4473H87.6328V75.7812H82.1543V74.8291H94.0781ZM83.6777 80.9082V77.1582H84.835V79.9414H92.7451V80.9082H83.6777ZM83.707 73.335V68.8086H92.5254V73.335H83.707ZM84.835 72.4121H91.3828V69.7168H84.835V72.4121ZM106.266 68.1641V81.1865H105.167V68.1641H106.266ZM94.9717 77.7148C96.7881 76.6309 97.8501 74.2505 97.8428 71.8848V70.6543H95.3379V69.7021H101.344V70.6543H98.9561V71.8848C98.9561 74.1333 99.9741 76.3818 101.769 77.4219L101.065 78.2715C99.7837 77.5024 98.8755 76.0962 98.4214 74.4409C97.9526 76.2354 97.0078 77.7661 95.7041 78.5791L94.9717 77.7148ZM100.348 73.8037V72.8662H102.545V68.4863H103.629V80.5127H102.545V73.8037H100.348ZM123.741 74.3604V75.3271H111.861V74.3604H123.741ZM113.297 78.8135C113.29 77.3193 114.981 76.4697 117.794 76.4697C120.584 76.4697 122.262 77.3193 122.276 78.8135C122.262 80.3223 120.584 81.1572 117.794 81.1572C114.981 81.1572 113.29 80.3223 113.297 78.8135ZM113.37 73.1152V68.6914H122.262V69.6582H114.498V72.1777H122.35V73.1152H113.37ZM114.469 78.8135C114.454 79.729 115.707 80.249 117.794 80.249C119.859 80.249 121.112 79.729 121.119 78.8135C121.112 77.9053 119.859 77.3779 117.794 77.3633C115.707 77.3779 114.454 77.9053 114.469 78.8135ZM136.734 75.3418V76.2939H124.811V75.3418H130.201V73.9648H126.363V70.7861H134.039V69.4385H126.319V68.501H135.196V71.6504H127.506V73.042H135.475V73.9648H131.329V75.3418H136.734ZM126.144 78.2275V77.29H135.27V81.0693H134.112V78.2275H126.144ZM148.951 68.1641V81.1865H147.838V68.1641H148.951ZM137.95 73.7891C137.958 71.0205 139.056 69.27 140.748 69.2627C142.33 69.27 143.399 70.7935 143.546 73.2471H145.23V68.4424H146.329V80.5273H145.23V74.1992H143.553C143.443 76.7334 142.352 78.3228 140.748 78.3154C139.056 78.3228 137.958 76.5576 137.95 73.7891ZM139.034 73.7891C139.02 75.8984 139.693 77.2314 140.748 77.2168C141.81 77.2314 142.484 75.8984 142.477 73.7891C142.484 71.6724 141.81 70.3467 140.748 70.3467C139.693 70.3467 139.02 71.6724 139.034 73.7891ZM165.284 68.1641V74.9316H164.127V68.1641H165.284ZM154.737 73.5107C155.257 73.5107 155.821 73.5034 156.407 73.4961V69.9805H155.104V69.0576H162.149V69.9805H160.831V73.3203C161.505 73.269 162.164 73.2031 162.794 73.1299L162.853 73.9795C160.245 74.3677 157.184 74.4702 154.884 74.4629L154.737 73.5107ZM156.759 76.4844V75.5615H165.284V78.667H157.931V80.1025H165.782V81.04H156.803V77.8027H164.142V76.4844H156.759ZM157.521 73.4741C158.238 73.4521 158.978 73.4302 159.718 73.3862V69.9805H157.521V73.4741ZM179.405 78.5498V79.5166H167.481V78.5498H170.44V75.0415C169.327 74.4629 168.653 73.5254 168.653 72.3389C168.653 70.3247 170.631 68.999 173.414 68.9844C176.197 68.999 178.175 70.3247 178.175 72.3389C178.175 73.5034 177.523 74.4263 176.446 75.0049V78.5498H179.405ZM169.767 72.3389C169.759 73.7964 171.275 74.7705 173.414 74.7705C175.531 74.7705 177.062 73.7964 177.062 72.3389C177.062 70.8813 175.531 69.9219 173.414 69.9365C171.275 69.9219 169.759 70.8813 169.767 72.3389ZM171.568 78.5498H175.289V75.4517C174.725 75.5981 174.095 75.6787 173.414 75.6787C172.748 75.6787 172.125 75.6055 171.568 75.459V78.5498ZM190.626 68.1787V72.4707H192.589V73.4375H190.626V77.9346H189.483V68.1787H190.626ZM180.475 70.7129V69.7754H183.785V68.1787H184.928V69.7754H188.238V70.7129H180.475ZM181.222 73.8623C181.214 72.3828 182.474 71.4307 184.356 71.4307C186.217 71.4307 187.477 72.3828 187.491 73.8623C187.477 75.3271 186.217 76.272 184.356 76.2646C182.474 76.272 181.214 75.3271 181.222 73.8623ZM182.32 73.8623C182.313 74.7778 183.126 75.3711 184.356 75.3564C185.572 75.3711 186.393 74.7778 186.407 73.8623C186.393 72.9321 185.572 72.3315 184.356 72.3389C183.126 72.3315 182.313 72.9321 182.32 73.8623ZM182.481 80.9082V77.1582H183.609V79.9414H191.227V80.9082H182.481ZM207.911 68.1641V81.2158H206.754V68.1641H207.911ZM197.657 73.7158C197.665 70.9473 199.042 69.1821 200.982 69.1748C202.916 69.1821 204.315 70.9473 204.308 73.7158C204.315 76.4917 202.916 78.2495 200.982 78.2422C199.042 78.2495 197.665 76.4917 197.657 73.7158ZM198.771 73.7158C198.771 75.8325 199.679 77.2241 200.982 77.2168C202.293 77.2241 203.194 75.8325 203.194 73.7158C203.194 71.5991 202.293 70.2075 200.982 70.2002C199.679 70.2075 198.771 71.5991 198.771 73.7158ZM216.92 69.4531V77.9199H210.899V69.4531H216.92ZM212.027 76.9824H215.792V70.376H212.027V76.9824ZM219.718 81.2158V68.1641H220.875V81.2158H219.718ZM227.76 72.1631C227.767 74.375 229.371 76.6235 231.29 77.4512L230.646 78.3594C229.122 77.6709 227.811 76.1694 227.203 74.3677C226.595 76.2793 225.277 77.9346 223.79 78.6816L223.102 77.7734C224.969 76.8799 226.595 74.4189 226.603 72.1631V70.4639H223.526V69.5117H230.865V70.4639H227.76V72.1631ZM232.682 81.1865V68.1641H233.839V81.1865H232.682ZM247.975 74.2139V75.1221H236.051V74.2139H247.975ZM237.486 77.0264V76.1621H246.48V78.9307H238.658V80.1758H246.905V81.0107H237.501V78.1396H245.338V77.0264H237.486ZM237.56 69.3945V68.5596H246.437V71.2549H238.746V72.3975H246.671V73.2324H237.604V70.4639H245.279V69.3945H237.56ZM257.232 70.9326C257.24 72.5586 258.639 73.9502 260.558 74.5068L260.03 75.415C258.492 74.9609 257.276 73.9941 256.69 72.7271C256.119 74.0967 254.918 75.1587 253.365 75.6641L252.794 74.7705C254.735 74.1772 256.097 72.6685 256.104 70.9326V70.6396H253.16V69.7168H256.104V68.1055H257.262V69.7168H260.177V70.6396H257.232V70.9326ZM255.079 81.0107V76.5576H263.59V81.0107H255.079ZM256.222 80.0732H262.462V77.4951H256.222V80.0732ZM259.796 72.7783V71.8262H262.433V68.1641H263.59V75.8838H262.433V72.7783H259.796ZM277.667 75.8984V76.8359H272.232V81.1865H271.104V76.8359H265.743V75.8984H277.667ZM267.267 74.3164V68.7061H268.409V70.5078H274.972V68.7061H276.129V74.3164H267.267ZM268.409 73.3789H274.972V71.4453H268.409V73.3789ZM34.708 91.1201V94.2842H36.6855V95.2363H34.708V98.3271H33.5654V91.1201H34.708ZM24.5566 93.2734V92.3506H27.8672V91.0322H29.0098V92.3506H32.3203V93.2734H24.5566ZM25.3037 95.998C25.2964 94.6797 26.5415 93.8667 28.4385 93.8594C30.3281 93.8667 31.5586 94.6797 31.5732 95.998C31.5586 97.3237 30.3281 98.1294 28.4385 98.1367C26.5415 98.1294 25.2964 97.3237 25.3037 95.998ZM26.4023 99.8652V99.001H34.708V101.887H27.5596V103.161H35.1914V104.04H26.4316V101.037H33.5654V99.8652H26.4023ZM26.4023 95.998C26.395 96.7817 27.2007 97.2725 28.4385 97.2725C29.6689 97.2725 30.4746 96.7817 30.4893 95.998C30.4746 95.2217 29.6689 94.7163 28.4385 94.709C27.2007 94.7163 26.395 95.2217 26.4023 95.998ZM47.7891 92.3799C47.7964 94.2183 50.1841 95.8003 52.5352 96.1299L52.0664 97.0674C50.0449 96.7305 48.0381 95.6099 47.2031 94.0132C46.3682 95.6245 44.3687 96.7305 42.3398 97.0674L41.8711 96.1299C44.2222 95.8003 46.6025 94.2476 46.6025 92.3799V91.6328H47.7891V92.3799ZM41.2559 99.4697V98.5029H53.1211V99.4697H47.7305V104.187H46.6025V99.4697H41.2559ZM62.3936 99.9092C62.3862 101.059 63.0088 102.282 64.2466 102.985C65.4917 102.216 66.1509 100.913 66.1436 99.9092V99.1914H67.2715V99.9092C67.2642 101.25 68.2529 102.583 69.9229 103.161L69.3516 104.011C68.0479 103.549 67.1396 102.641 66.6855 101.55C66.2827 102.604 65.4844 103.608 64.2832 104.113C63.0161 103.63 62.2104 102.678 61.8223 101.586C61.3535 102.634 60.46 103.542 59.2148 104.011L58.6289 103.161C60.2769 102.546 61.2656 101.154 61.2803 99.9092V99.1914H62.3936V99.9092ZM58.292 94.9873C58.2847 93.1709 59.7275 91.9331 61.7051 91.9404C63.6826 91.9331 65.1108 93.1709 65.1182 94.9873C65.1108 96.7744 63.6826 98.0049 61.7051 98.0049C59.7275 98.0049 58.2847 96.7744 58.292 94.9873ZM59.4199 94.9873C59.4053 96.1958 60.3647 97.0454 61.7051 97.0527C63.0308 97.0454 63.9902 96.1958 63.9902 94.9873C63.9902 93.7715 63.0308 92.9072 61.7051 92.9219C60.3647 92.9072 59.4053 93.7715 59.4199 94.9873ZM67.5938 98.6201V91.1787H68.7363V98.6201H67.5938ZM74.4492 92.1748C76.2217 92.1821 77.5034 93.7056 77.6792 96.1445H80.6016V91.1641H81.7441V104.216H80.6016V97.0967H77.6938C77.5693 99.6528 76.2656 101.25 74.4492 101.242C72.5229 101.25 71.1753 99.4917 71.1826 96.7158C71.1753 93.9473 72.5229 92.1821 74.4492 92.1748ZM72.2812 96.7158C72.2886 98.8325 73.1675 100.224 74.4492 100.217C75.7236 100.224 76.6172 98.8325 76.6172 96.7158C76.6172 94.5991 75.7236 93.2075 74.4492 93.2002C73.1675 93.2075 72.2886 94.5991 72.2812 96.7158ZM95.8359 101.55V102.517H83.9121V101.55H86.8711V98.0415C85.7578 97.4629 85.084 96.5254 85.084 95.3389C85.084 93.3247 87.0615 91.999 89.8447 91.9844C92.6279 91.999 94.6055 93.3247 94.6055 95.3389C94.6055 96.5034 93.9536 97.4263 92.877 98.0049V101.55H95.8359ZM86.1973 95.3389C86.1899 96.7964 87.7061 97.7705 89.8447 97.7705C91.9614 97.7705 93.4922 96.7964 93.4922 95.3389C93.4922 93.8813 91.9614 92.9219 89.8447 92.9365C87.7061 92.9219 86.1899 93.8813 86.1973 95.3389ZM87.999 101.55H91.7197V98.4517C91.1558 98.5981 90.5259 98.6787 89.8447 98.6787C89.1782 98.6787 88.5557 98.6055 87.999 98.459V101.55ZM98.2529 103.088C97.7402 103.081 97.3008 102.656 97.3154 102.136C97.3008 101.623 97.7402 101.198 98.2529 101.198C98.7729 101.198 99.1978 101.623 99.1904 102.136C99.1978 102.656 98.7729 103.081 98.2529 103.088Z" fill="#3E3F41"/>
</svg>
