<svg width="609" height="299" viewBox="0 0 609 299" fill="none" xmlns="http://www.w3.org/2000/svg">
<rect x="0.364812" y="0.364812" width="608.27" height="297.592" rx="3.2833" stroke="#EBEDEF" stroke-width="0.729623"/>
<rect x="267.285" y="253.908" width="74.4216" height="26.9961" rx="7.29623" fill="#29B8B5"/>
<path d="M292.789 267.338V268.353H288.81V270.245H287.556V268.353H283.372V267.338H292.789ZM284.512 272.286V269.299H285.778V271.26H291.752V272.286H284.512ZM284.569 266.381V262.653H291.581V266.381H284.569ZM285.801 265.389H290.327V263.645H285.801V265.389ZM302.342 262.185V272.491H301.134V262.185H302.342ZM293.291 269.561C294.778 268.655 295.434 266.797 295.434 265.001V264.317H293.644V263.291H298.318V264.317H296.654V265.001C296.654 266.74 297.275 268.484 298.751 269.333L297.999 270.268C297.047 269.704 296.414 268.723 296.055 267.549C295.69 268.82 295.035 269.903 294.066 270.508L293.291 269.561ZM297.566 266.802V265.776H299.048V262.379H300.245V271.99H299.048V266.802H297.566ZM311.668 262.812C311.662 265.469 309.912 267.333 306.914 268.17L306.401 267.179C308.71 266.552 310.078 265.343 310.311 263.838H306.96V262.812H311.668ZM308.179 272.354V268.41H314.963V272.354H308.179ZM309.422 271.351H313.709V269.413H309.422V271.351ZM311.714 265.754V264.716H313.697V262.197H314.963V267.999H313.697V265.754H311.714ZM319.637 264.055C319.643 265.206 320.281 266.346 321.632 266.882L320.948 267.851C320.042 267.486 319.403 266.814 319.038 265.993C318.656 266.916 317.984 267.703 317.003 268.125L316.331 267.144C317.75 266.523 318.411 265.218 318.417 264.055V262.801H319.637V264.055ZM318.178 269.938V268.923H325.234V272.491H323.969V269.938H318.178ZM321.814 268.376V262.368H323V264.762H324.026V262.197H325.234V268.433H324.026V265.811H323V268.376H321.814Z" fill="white"/>
<path d="M22.3758 118.834V119.848H19.4345V121.536H22.1934V122.527H19.4345V124.534C20.7113 124.523 21.5948 124.477 22.638 124.317L22.7406 125.355C21.5378 125.56 20.5289 125.6 18.9215 125.594H18.226V118.834H22.3758ZM23.265 127.521V117.899H24.462V121.764H25.5223V117.717H26.7421V128.022H25.5223V122.79H24.462V127.521H23.265ZM36.136 118.72V119.883C36.136 121.262 36.136 122.681 35.7598 124.853L34.4716 124.739C34.8706 122.716 34.8706 121.222 34.8706 119.883V119.746H28.931V118.72H36.136ZM27.9391 126.609V125.571H37.333V126.609H27.9391ZM46.1341 118.344C46.1284 121 44.3785 122.864 41.3802 123.702L40.8672 122.71C43.1757 122.083 44.5438 120.874 44.7775 119.37H41.4258V118.344H46.1341ZM42.6456 127.886V123.941H49.4288V127.886H42.6456ZM43.8883 126.882H48.1748V124.944H43.8883V126.882ZM46.1797 121.285V120.247H48.1634V117.728H49.4288V123.531H48.1634V121.285H46.1797ZM54.103 119.586C54.1087 120.738 54.7471 121.878 56.098 122.413L55.414 123.382C54.5077 123.018 53.8693 122.345 53.5045 121.524C53.1225 122.448 52.4499 123.234 51.4695 123.656L50.7969 122.676C52.2162 122.054 52.8774 120.749 52.8831 119.586V118.332H54.103V119.586ZM52.6437 125.469V124.454H59.7006V128.022H58.4351V125.469H52.6437ZM56.2804 123.907V117.899H57.4661V120.293H58.4921V117.728H59.7006V123.964H58.4921V121.342H57.4661V123.907H56.2804Z" fill="#262626"/>
<rect x="99.2164" y="105.396" width="448.518" height="34.5747" rx="4.01293" fill="white" stroke="#EBEDEF" stroke-width="0.729623"/>
<path d="M117.694 118.409V119.221H114.829V120.931H117.533V121.733H114.829V123.753C116.128 123.742 116.983 123.699 117.993 123.528L118.078 124.362C116.956 124.565 116.026 124.608 114.498 124.608H113.857V118.409H117.694ZM118.634 126.446V117.522H119.607V121.145H120.761V117.34H121.734V126.916H120.761V121.968H119.607V126.446H118.634ZM130.54 118.313V119.339C130.54 120.578 130.54 121.92 130.188 123.966L129.151 123.87C129.536 121.952 129.536 120.546 129.536 119.339V119.146H123.893V118.313H130.54ZM122.952 125.559V124.715H131.684V125.559H122.952ZM141.164 121.733V122.513H132.4V121.733H141.164ZM133.437 123.913V123.186H140.085V125.292H134.463V126.083H140.384V126.799H133.448V124.618H139.08V123.913H133.437ZM133.501 118.302V117.586H140.063V119.659H134.527V120.386H140.224V121.102H133.522V118.986H139.048V118.302H133.501ZM152.483 117.34V122.481H151.467V117.34H152.483ZM144.734 120.001C144.739 118.687 145.819 117.773 147.288 117.778C148.753 117.773 149.832 118.687 149.832 120.001C149.832 121.311 148.753 122.224 147.288 122.214C145.819 122.224 144.739 121.311 144.734 120.001ZM145.728 120.001C145.723 120.83 146.38 121.38 147.288 121.38C148.186 121.38 148.838 120.83 148.838 120.001C148.838 119.184 148.186 118.628 147.288 118.633C146.38 118.628 145.723 119.184 145.728 120.001ZM146.219 126.799V122.94H147.213V124.02H151.478V122.94H152.483V126.799H146.219ZM147.213 125.965H151.478V124.821H147.213V125.965ZM158.564 117.917V120.707H155.4V122.032C157.068 122.032 157.976 121.995 159.056 121.797L159.152 122.62C157.981 122.817 156.998 122.85 155.09 122.855H154.396V119.937H157.549V118.729H154.385V117.917H158.564ZM155.486 124.544V123.721H161.984V126.927H160.969V124.544H155.486ZM159.173 121.551V120.739H160.969V119.552H159.173V118.74H160.969V117.351H161.984V123.24H160.969V121.551H159.173ZM168.194 118.922V119.745H163.438V118.922H165.319V117.618H166.323V118.922H168.194ZM163.748 122.524C163.742 121.236 164.619 120.322 165.821 120.322C167.034 120.322 167.9 121.236 167.905 122.524C167.9 123.833 167.034 124.752 165.821 124.747C164.619 124.752 163.742 123.833 163.748 122.524ZM164.645 122.524C164.64 123.336 165.132 123.881 165.821 123.881C166.51 123.881 167.007 123.336 167.007 122.524C167.007 121.727 166.51 121.172 165.821 121.166C165.132 121.172 164.64 121.727 164.645 122.524ZM168.632 126.467V117.554H169.594V121.327H170.695V117.34H171.657V126.916H170.695V122.16H169.594V126.467H168.632ZM181.65 122.737V123.56H177.759V126.906H176.765V123.56H172.918V122.737H181.65ZM173.409 121.209C175.194 120.963 176.68 119.9 176.712 118.719H173.73V117.906H180.827V118.719H177.866C177.882 119.9 179.357 120.963 181.169 121.209L180.795 122.011C179.224 121.765 177.866 120.99 177.284 119.9C176.696 120.99 175.344 121.765 173.794 122.011L173.409 121.209ZM185.294 119.958C185.294 121.487 185.935 123.117 187.218 123.902L186.652 124.683C185.754 124.143 185.15 123.186 184.819 122.08C184.471 123.293 183.809 124.33 182.879 124.896L182.248 124.137C183.6 123.325 184.316 121.631 184.311 120.001V118.216H185.294V119.958ZM186.181 121.551V120.707H187.667V117.522H188.629V126.446H187.667V121.551H186.181ZM189.644 126.916V117.34H190.617V126.916H189.644ZM200.599 124.875V125.719H191.835V124.875H193.93V122.374C193.144 121.941 192.663 121.257 192.669 120.397C192.663 118.89 194.144 117.901 196.196 117.896C198.253 117.901 199.733 118.89 199.733 120.397C199.733 121.241 199.274 121.92 198.504 122.353V124.875H200.599ZM193.652 120.397C193.652 121.423 194.694 122.091 196.196 122.096C197.687 122.091 198.745 121.423 198.75 120.397C198.745 119.365 197.687 118.708 196.196 118.708C194.694 118.708 193.652 119.365 193.652 120.397ZM194.935 124.875H197.478V122.748C197.088 122.839 196.655 122.887 196.196 122.887C195.747 122.887 195.319 122.839 194.935 122.748V124.875ZM202.384 126.083C201.967 126.077 201.62 125.741 201.625 125.324C201.62 124.907 201.967 124.565 202.384 124.565C202.796 124.565 203.138 124.907 203.143 125.324C203.138 125.741 202.796 126.077 202.384 126.083Z" fill="#9A9DA0"/>
<rect x="557.291" y="105.427" width="34.2923" height="34.2923" rx="4.01293" fill="white" stroke="#EBEDEF" stroke-width="0.729623"/>
<path d="M581.004 129.141L577.306 125.443M578.931 121.538C578.931 124.592 576.455 127.067 573.401 127.067C570.347 127.067 567.871 124.592 567.871 121.538C567.871 118.484 570.347 116.008 573.401 116.008C576.455 116.008 578.931 118.484 578.931 121.538Z" stroke="#262626" stroke-width="1.45925" stroke-linecap="round" stroke-linejoin="round"/>
<path d="M27.2551 214.809V215.824H23.2764V217.716H22.0224V215.824H17.8384V214.809H27.2551ZM18.9785 219.757V216.77H20.2439V218.731H26.2177V219.757H18.9785ZM19.0355 213.851V210.123H26.0467V213.851H19.0355ZM20.2667 212.859H24.7926V211.115H20.2667V212.859ZM36.0676 209.656V212.369H37.5041V213.429H36.0676V216.234H34.8022V209.656H36.0676ZM27.9505 211.697V210.705H30.3788V209.588H31.6443V210.705H34.0611V211.697H27.9505ZM28.475 213.954C28.475 212.848 29.501 212.113 31.0058 212.107C32.4936 212.113 33.5196 212.848 33.5253 213.954C33.5196 215.06 32.4936 215.789 31.0058 215.789C29.501 215.789 28.475 215.06 28.475 213.954ZM29.2958 218.138C29.2844 216.992 30.6011 216.319 32.7387 216.325C34.8535 216.319 36.1816 216.992 36.1816 218.138C36.1816 219.272 34.8535 219.95 32.7387 219.95C30.6011 219.95 29.2844 219.272 29.2958 218.138ZM29.7062 213.954C29.7005 214.513 30.2249 214.837 31.0058 214.832C31.7868 214.837 32.3169 214.513 32.3169 213.954C32.3169 213.384 31.7868 213.042 31.0058 213.042C30.2249 213.042 29.7005 213.384 29.7062 213.954ZM30.5498 218.138C30.5441 218.685 31.3308 218.993 32.7387 218.993C34.1295 218.993 34.9105 218.685 34.9162 218.138C34.9105 217.574 34.1295 217.294 32.7387 217.294C31.3308 217.294 30.5441 217.574 30.5498 218.138ZM43.398 210.511C43.3923 211.805 44.8459 213.122 47.0462 213.407L46.5445 214.433C44.7946 214.171 43.4037 213.31 42.7311 212.147C42.0585 213.31 40.6734 214.171 38.9405 214.433L38.4389 213.407C40.6164 213.122 42.0642 211.816 42.0642 210.511V209.987H43.398V210.511ZM38.0285 216.371V215.322H47.4224V216.371H43.3296V219.962H42.0756V216.371H38.0285Z" fill="#262626"/>
<rect x="99.5953" y="197.367" width="90.2862" height="34.2923" rx="4.01293" fill="white" stroke="#EBEDEF" stroke-width="0.729623"/>
<path d="M131.654 210.209V217.947H130.468V211.385H130.425L128.576 212.593V211.47L130.5 210.209H131.654ZM136.314 218.054C134.524 218.054 133.471 216.611 133.471 214.078C133.471 211.561 134.535 210.102 136.314 210.102C138.089 210.102 139.152 211.561 139.157 214.078C139.152 216.611 138.105 218.054 136.314 218.054ZM134.647 214.078C134.642 216.007 135.267 217.039 136.314 217.039C137.356 217.039 137.982 216.007 137.982 214.078C137.982 212.154 137.351 211.102 136.314 211.096C135.272 211.102 134.647 212.154 134.647 214.078ZM151.47 214.121V214.944H147.665V216.804H146.66V214.944H142.706V214.121H151.47ZM143.796 218.653V215.895H144.811V217.83H150.497V218.653H143.796ZM143.828 213.127V209.728H150.337V213.127H143.828ZM144.822 212.325H149.332V210.53H144.822V212.325ZM159.699 209.279V211.877H161.089V212.732H159.699V215.425H158.684V209.279H159.699ZM152.186 211.107V210.305H154.537V209.205H155.553V210.305H157.893V211.107H152.186ZM152.71 213.255C152.704 212.224 153.645 211.551 155.039 211.545C156.418 211.551 157.359 212.224 157.359 213.255C157.359 214.281 156.418 214.949 155.039 214.944C153.645 214.949 152.704 214.281 152.71 213.255ZM153.468 217.178C153.458 216.12 154.665 215.5 156.643 215.5C158.593 215.5 159.806 216.12 159.806 217.178C159.806 218.22 158.593 218.84 156.643 218.834C154.665 218.84 153.458 218.22 153.468 217.178ZM153.693 213.255C153.682 213.822 154.227 214.174 155.039 214.174C155.852 214.174 156.397 213.822 156.408 213.255C156.397 212.673 155.852 212.304 155.039 212.304C154.227 212.304 153.682 212.673 153.693 213.255ZM154.473 217.178C154.468 217.739 155.264 218.065 156.643 218.065C158 218.065 158.796 217.739 158.802 217.178C158.796 216.595 158 216.285 156.643 216.28C155.264 216.285 154.468 216.595 154.473 217.178Z" fill="#6B6E72"/>
<rect x="199.611" y="197.367" width="90.2862" height="34.2923" rx="4.01293" fill="white" stroke="#EBEDEF" stroke-width="0.729623"/>
<path d="M227.074 217.947V217.092L229.757 214.388C230.606 213.506 231.028 213.015 231.028 212.336C231.028 211.572 230.409 211.086 229.596 211.086C228.736 211.086 228.191 211.631 228.185 212.454H227.074C227.063 211.038 228.143 210.102 229.618 210.102C231.109 210.102 232.14 211.048 232.151 212.304C232.14 213.17 231.734 213.859 230.28 215.286L228.709 216.878V216.943H232.279V217.947H227.074ZM236.276 218.054C234.486 218.054 233.433 216.611 233.433 214.078C233.433 211.561 234.497 210.102 236.276 210.102C238.05 210.102 239.114 211.561 239.119 214.078C239.114 216.611 238.066 218.054 236.276 218.054ZM234.609 214.078C234.603 216.007 235.229 217.039 236.276 217.039C237.318 217.039 237.943 216.007 237.943 214.078C237.943 212.154 237.313 211.102 236.276 211.096C235.234 211.102 234.609 212.154 234.609 214.078ZM251.431 214.121V214.944H247.627V216.804H246.622V214.944H242.667V214.121H251.431ZM243.758 218.653V215.895H244.773V217.83H250.459V218.653H243.758ZM243.79 213.127V209.728H250.299V213.127H243.79ZM244.784 212.325H249.294V210.53H244.784V212.325ZM259.661 209.279V211.877H261.051V212.732H259.661V215.425H258.646V209.279H259.661ZM252.148 211.107V210.305H254.499V209.205H255.514V210.305H257.855V211.107H252.148ZM252.671 213.255C252.666 212.224 253.606 211.551 255.001 211.545C256.38 211.551 257.32 212.224 257.32 213.255C257.32 214.281 256.38 214.949 255.001 214.944C253.606 214.949 252.666 214.281 252.671 213.255ZM253.43 217.178C253.419 216.12 254.627 215.5 256.604 215.5C258.555 215.5 259.768 216.12 259.768 217.178C259.768 218.22 258.555 218.84 256.604 218.834C254.627 218.84 253.419 218.22 253.43 217.178ZM253.655 213.255C253.644 213.822 254.189 214.174 255.001 214.174C255.814 214.174 256.359 213.822 256.369 213.255C256.359 212.673 255.814 212.304 255.001 212.304C254.189 212.304 253.644 212.673 253.655 213.255ZM254.435 217.178C254.429 217.739 255.226 218.065 256.604 218.065C257.962 218.065 258.758 217.739 258.763 217.178C258.758 216.595 257.962 216.285 256.604 216.28C255.226 216.285 254.429 216.595 254.435 217.178Z" fill="#6B6E72"/>
<rect x="299.642" y="197.367" width="90.2862" height="34.2923" rx="4.01293" fill="#D9F1F1" stroke="#BADEDE" stroke-width="0.729623"/>
<path d="M330.192 218.054C328.588 218.054 327.45 217.194 327.402 215.927H328.599C328.642 216.606 329.315 217.039 330.181 217.039C331.116 217.039 331.795 216.531 331.795 215.778C331.795 215.013 331.159 214.468 330.053 214.463H329.39V213.501H330.053C330.934 213.506 331.549 213.015 331.549 212.272C331.549 211.567 331.02 211.086 330.202 211.086C329.427 211.086 328.733 211.519 328.706 212.219H327.573C327.605 210.957 328.77 210.102 330.213 210.102C331.736 210.102 332.693 211.064 332.682 212.208C332.693 213.09 332.147 213.72 331.314 213.929V213.982C332.372 214.132 332.986 214.842 332.981 215.82C332.986 217.108 331.795 218.054 330.192 218.054ZM336.968 218.054C335.177 218.054 334.125 216.611 334.125 214.078C334.125 211.561 335.188 210.102 336.968 210.102C338.742 210.102 339.805 211.561 339.811 214.078C339.805 216.611 338.758 218.054 336.968 218.054ZM335.3 214.078C335.295 216.007 335.92 217.039 336.968 217.039C338.01 217.039 338.635 216.007 338.635 214.078C338.635 212.154 338.004 211.102 336.968 211.096C335.926 211.102 335.3 212.154 335.3 214.078ZM352.123 214.121V214.944H348.318V216.804H347.314V214.944H343.359V214.121H352.123ZM344.449 218.653V215.895H345.465V217.83H351.15V218.653H344.449ZM344.481 213.127V209.728H350.99V213.127H344.481ZM345.475 212.325H349.985V210.53H345.475V212.325ZM360.353 209.279V211.877H361.742V212.732H360.353V215.425H359.337V209.279H360.353ZM352.839 211.107V210.305H355.19V209.205H356.206V210.305H358.546V211.107H352.839ZM353.363 213.255C353.358 212.224 354.298 211.551 355.693 211.545C357.072 211.551 358.012 212.224 358.012 213.255C358.012 214.281 357.072 214.949 355.693 214.944C354.298 214.949 353.358 214.281 353.363 213.255ZM354.122 217.178C354.111 216.12 355.319 215.5 357.296 215.5C359.247 215.5 360.46 216.12 360.46 217.178C360.46 218.22 359.247 218.84 357.296 218.834C355.319 218.84 354.111 218.22 354.122 217.178ZM354.346 213.255C354.335 213.822 354.881 214.174 355.693 214.174C356.505 214.174 357.05 213.822 357.061 213.255C357.05 212.673 356.505 212.304 355.693 212.304C354.881 212.304 354.335 212.673 354.346 213.255ZM355.126 217.178C355.121 217.739 355.917 218.065 357.296 218.065C358.653 218.065 359.45 217.739 359.455 217.178C359.45 216.595 358.653 216.285 357.296 216.28C355.917 216.285 355.121 216.595 355.126 217.178Z" fill="#262626"/>
<rect x="399.662" y="197.367" width="90.2862" height="34.2923" rx="4.01293" fill="white" stroke="#EBEDEF" stroke-width="0.729623"/>
<path d="M427.235 216.44V215.489L430.655 210.209H432.108V215.446H433.166V216.44H432.108V217.947H430.997V216.44H427.235ZM428.474 215.446H430.997V211.609H430.911L428.474 215.382V215.446ZM437.046 218.054C435.256 218.054 434.203 216.611 434.203 214.078C434.203 211.561 435.266 210.102 437.046 210.102C438.82 210.102 439.884 211.561 439.889 214.078C439.884 216.611 438.836 218.054 437.046 218.054ZM435.379 214.078C435.373 216.007 435.999 217.039 437.046 217.039C438.088 217.039 438.713 216.007 438.713 214.078C438.713 212.154 438.083 211.102 437.046 211.096C436.004 211.102 435.379 212.154 435.379 214.078ZM452.201 214.121V214.944H448.397V216.804H447.392V214.944H443.437V214.121H452.201ZM444.528 218.653V215.895H445.543V217.83H451.229V218.653H444.528ZM444.56 213.127V209.728H451.068V213.127H444.56ZM445.554 212.325H450.064V210.53H445.554V212.325ZM460.431 209.279V211.877H461.82V212.732H460.431V215.425H459.416V209.279H460.431ZM452.917 211.107V210.305H455.269V209.205H456.284V210.305H458.625V211.107H452.917ZM453.441 213.255C453.436 212.224 454.376 211.551 455.771 211.545C457.15 211.551 458.09 212.224 458.09 213.255C458.09 214.281 457.15 214.949 455.771 214.944C454.376 214.949 453.436 214.281 453.441 213.255ZM454.2 217.178C454.189 216.12 455.397 215.5 457.374 215.5C459.325 215.5 460.538 216.12 460.538 217.178C460.538 218.22 459.325 218.84 457.374 218.834C455.397 218.84 454.189 218.22 454.2 217.178ZM454.424 213.255C454.414 213.822 454.959 214.174 455.771 214.174C456.583 214.174 457.128 213.822 457.139 213.255C457.128 212.673 456.583 212.304 455.771 212.304C454.959 212.304 454.414 212.673 454.424 213.255ZM455.205 217.178C455.199 217.739 455.996 218.065 457.374 218.065C458.732 218.065 459.528 217.739 459.533 217.178C459.528 216.595 458.732 216.285 457.374 216.28C455.996 216.285 455.199 216.595 455.205 217.178Z" fill="#6B6E72"/>
<rect x="499.681" y="197.367" width="92.1823" height="34.2923" rx="4.01293" fill="white" stroke="#EBEDEF" stroke-width="0.729623"/>
<path d="M528.702 211C528.702 212.229 529.616 213.41 531.096 213.875L530.573 214.666C529.472 214.303 528.638 213.549 528.205 212.587C527.772 213.624 526.923 214.447 525.785 214.848L525.261 214.068C526.752 213.549 527.671 212.299 527.676 211V210.733H525.528V209.91H530.808V210.733H528.702V211ZM526.607 216.365V215.543H533.095V218.856H532.08V216.365H526.607ZM532.08 215.062V209.279H533.095V215.062H532.08ZM542.586 209.279V214.495H541.581V212.379H539.786V211.545H541.581V209.279H542.586ZM534.623 213.854C536.093 213.341 537.012 212.085 537.007 210.765V210.637H534.933V209.814H540.096V210.637H538.043V210.776C538.038 211.962 538.904 213.164 540.352 213.651L539.828 214.442C538.749 214.057 537.958 213.298 537.541 212.358C537.124 213.41 536.285 214.255 535.147 214.655L534.623 213.854ZM536.355 218.738V214.923H537.359V216.023H541.581V214.923H542.586V218.738H536.355ZM537.359 217.915H541.581V216.814H537.359V217.915ZM554.684 209.279V214.42H553.669V209.279H554.684ZM546.936 211.941C546.941 210.626 548.021 209.712 549.49 209.718C550.954 209.712 552.034 210.626 552.034 211.941C552.034 213.25 550.954 214.164 549.49 214.153C548.021 214.164 546.941 213.25 546.936 211.941ZM547.93 211.941C547.924 212.769 548.582 213.319 549.49 213.319C550.388 213.319 551.04 212.769 551.04 211.941C551.04 211.123 550.388 210.567 549.49 210.573C548.582 210.567 547.924 211.123 547.93 211.941ZM548.421 218.738V214.88H549.415V215.959H553.68V214.88H554.684V218.738H548.421ZM549.415 217.905H553.68V216.761H549.415V217.905ZM560.766 209.857V212.646H557.602V213.971C559.27 213.971 560.178 213.934 561.257 213.736L561.354 214.559C560.183 214.757 559.2 214.789 557.292 214.794H556.598V211.877H559.75V210.669H556.587V209.857H560.766ZM557.688 216.483V215.66H564.186V218.866H563.171V216.483H557.688ZM561.375 213.49V212.678H563.171V211.492H561.375V210.68H563.171V209.29H564.186V215.179H563.171V213.49H561.375Z" fill="#9A9DA0"/>
<path d="M23.208 61.821C23.2023 64.9333 22.353 67.6067 18.5566 69.4934L17.8612 68.5358C19.6454 67.658 20.7113 66.6262 21.3098 65.4064L18.1006 65.7085L17.941 64.6141L21.6917 64.3804C21.8229 63.8959 21.9084 63.3885 21.9483 62.847H18.4768V61.821H23.208ZM24.6558 71.0895V60.8064H25.9213V64.8421H27.4489V65.8795H25.9213V71.0895H24.6558ZM32.1345 61.992V62.9952H29.4896V64.7623H31.7013V65.7427H29.4896V67.7435C30.7151 67.7264 31.5588 67.6694 32.5677 67.4984L32.6817 68.513C31.4961 68.7467 30.5099 68.7638 28.9538 68.7638H28.2812V61.992H32.1345ZM32.2029 65.6401V64.6141H33.4797V61.0116H34.6654V70.6107H33.4797V65.6401H32.2029ZM35.6002 71.1123V60.8064H36.8314V71.1123H35.6002ZM46.4419 61.7526V62.7444C46.4305 64.027 46.4305 65.4577 46.0315 67.6124L44.7547 67.4756C45.1594 65.4691 45.1594 64.0042 45.1651 62.7672H39.0089V61.7526H46.4419ZM38.0285 69.7784V68.741H41.4942V65.1613H42.7482V68.741H47.4224V69.7784H38.0285ZM56.7023 60.8064V71.1237H55.4482V60.8064H56.7023ZM48.6764 62.733V61.707H53.533V65.5717H49.9875V67.6466C51.612 67.6352 53.0085 67.5497 54.616 67.2818L54.73 68.3192C52.98 68.6213 51.441 68.6897 49.5884 68.684H48.6878V64.5685H52.2447V62.733H48.6764Z" fill="#262626"/>
<rect x="99.5914" y="48.5152" width="115.885" height="34.2923" rx="4.01293" fill="#D9F1F1" stroke="#BADEDE" stroke-width="0.729623"/>
<path d="M151.54 61.9562C151.535 63.212 152.422 64.3824 153.849 64.8526L153.304 65.6542C152.256 65.2855 151.471 64.5373 151.054 63.5915C150.637 64.6656 149.825 65.5099 148.708 65.9214L148.163 65.1091C149.659 64.5801 150.525 63.3029 150.536 61.8707V60.9302H151.54V61.9562ZM149.456 68.2086C149.456 67.0864 150.68 66.4291 152.673 66.4344C154.64 66.4291 155.847 67.0864 155.847 68.2086C155.847 69.3415 154.64 69.9881 152.673 69.9828C150.68 69.9881 149.456 69.3415 149.456 68.2086ZM150.471 68.2086C150.466 68.8392 151.289 69.1812 152.673 69.1919C154.047 69.1812 154.859 68.8392 154.853 68.2086C154.859 67.5994 154.047 67.236 152.673 67.236C151.289 67.236 150.466 67.5994 150.471 68.2086ZM154.747 66.21V60.4279H155.762V62.8326H157.151V63.6877H155.762V66.21H154.747ZM165.231 60.4386V63.2601H166.599V64.1045H165.231V66.9154H164.216V60.4386H165.231ZM157.632 65.7397C158.375 65.7451 159.235 65.7451 160.133 65.7183V65.0183C159.032 64.9061 158.348 64.4144 158.359 63.677C158.348 62.8219 159.246 62.3143 160.636 62.3196C162.014 62.3143 162.907 62.8219 162.912 63.677C162.907 64.4091 162.233 64.9007 161.149 65.0183V65.6756C162.004 65.6328 162.869 65.5634 163.671 65.4511L163.756 66.1565C161.704 66.5092 159.439 66.5413 157.739 66.5413L157.632 65.7397ZM157.878 61.9669V61.2081H160.133V60.3531H161.149V61.2081H163.404V61.9669H157.878ZM158.904 68.5186C158.904 67.5513 160.069 67.0169 162.1 67.0223C164.114 67.0169 165.285 67.5513 165.296 68.5186C165.285 69.4805 164.114 69.9988 162.1 70.0042C160.069 69.9988 158.904 69.4805 158.904 68.5186ZM159.321 63.677C159.321 64.1098 159.818 64.361 160.636 64.361C161.443 64.361 161.945 64.1098 161.94 63.677C161.945 63.2601 161.443 63.0036 160.636 63.0036C159.818 63.0036 159.321 63.2601 159.321 63.677ZM159.93 68.5186C159.92 68.9835 160.673 69.2507 162.1 69.2453C163.511 69.2507 164.259 68.9835 164.259 68.5186C164.259 68.0323 163.511 67.7651 162.1 67.7704C160.673 67.7651 159.92 68.0323 159.93 68.5186Z" fill="#262626"/>
<rect x="225.216" y="48.5172" width="115.885" height="34.2923" rx="4.01293" fill="white" stroke="#EBEDEF" stroke-width="0.729623"/>
<path d="M282.627 68.0396V68.8732H273.863V68.0396H276.214V65.9127H274.632V65.0897H276.064V62.1078H274.611V61.2742H281.825V62.1078H280.361V65.0897H281.793V65.9127H280.222V68.0396H282.627ZM277.069 65.0897H279.367V62.1078H277.069V65.0897ZM277.229 68.0396H279.207V65.9127H277.229V68.0396ZM286.848 63.2514C286.843 64.8546 287.896 66.5112 289.371 67.1418L288.815 67.9327C287.687 67.4357 286.79 66.3776 286.346 65.1004C285.903 66.4684 285.005 67.6334 283.888 68.1785L283.3 67.3769C284.743 66.6982 285.812 64.9027 285.822 63.2514V62.2361H283.631V61.3917H289.029V62.2361H286.848V63.2514ZM290.236 70.0061V60.4298H291.252V70.0061H290.236Z" fill="#6B6E72"/>
<rect x="350.357" y="48.5172" width="115.885" height="34.2923" rx="4.01293" fill="white" stroke="#EBEDEF" stroke-width="0.729623"/>
<path d="M406.506 60.4298V64.4378H407.949V65.2928H406.506V70.0061H405.491V60.4298H406.506ZM398.886 67.3983C399.639 67.3983 400.516 67.3983 401.429 67.3716V66.399C400.35 66.2387 399.645 65.5867 399.655 64.6622C399.645 63.5827 400.58 62.872 401.942 62.8666C403.3 62.872 404.246 63.5827 404.251 64.6622C404.246 65.5867 403.53 66.244 402.445 66.399V67.3342C403.295 67.2914 404.15 67.2219 404.946 67.1097L405.01 67.8579C402.936 68.2266 400.697 68.248 399.046 68.2426L398.886 67.3983ZM399.067 62.375V61.5627H401.429V60.4512H402.445V61.5627H404.807V62.375H399.067ZM400.607 64.6622C400.607 65.2714 401.141 65.6508 401.942 65.6455C402.744 65.6508 403.273 65.2714 403.278 64.6622C403.273 64.0477 402.744 63.6575 401.942 63.6575C401.141 63.6575 400.607 64.0477 400.607 64.6622ZM417.194 64.395V65.2073H413.325V66.0409H416.093V68.2854H410.514V69.1297H416.36V69.9099H409.52V67.5479H415.089V66.8211H409.509V66.0409H412.31V65.2073H408.462V64.395H417.194ZM409.584 63.6896V60.7398H416.072V63.6896H409.584ZM410.578 62.888H415.056V61.5414H410.578V62.888Z" fill="#6B6E72"/>
<rect x="475.978" y="48.5152" width="115.885" height="34.2923" rx="4.01293" fill="white" stroke="#EBEDEF" stroke-width="0.729623"/>
<path d="M531.33 60.9195V62.3196H533.724V60.9195H534.729V62.7258H536.824V60.4279H537.839V65.6542H536.824V63.5701H534.729V65.3336H530.315V60.9195H531.33ZM531.33 64.5106H533.724V63.1105H531.33V64.5106ZM531.597 69.8652V66.1031H532.602V67.1826H536.824V66.1031H537.829V69.8652H531.597ZM532.602 69.0423H536.824V67.9735H532.602V69.0423Z" fill="#6B6E72"/>
<path d="M28.5327 25.79V27.0854H24.1335V29.099H22.5175V27.0854H17.8491V25.79H28.5327ZM19.106 31.4845V28.0858H20.7348V30.1763H27.3527V31.4845H19.106ZM19.1829 24.8281V20.5316H27.1603V24.8281H19.1829ZM20.7861 23.5584H25.5572V21.8013H20.7861V23.5584ZM39.306 20.0186V31.6897H37.7541V20.0186H39.306ZM28.9687 28.2781C30.6873 27.22 31.3286 25.1295 31.3286 23.148V22.5195H29.4176V21.2113H34.676V22.5195H32.9061V23.148C32.8997 25.0846 33.5089 27.0469 35.2147 28.0216L34.2528 29.2272C33.2075 28.6116 32.5278 27.5727 32.1302 26.3159C31.7326 27.6754 31.0272 28.8296 29.9563 29.4837L28.9687 28.2781ZM33.8424 25.3411V24.0201H35.3814V20.211H36.9205V31.151H35.3814V25.3411H33.8424ZM49.6433 20.6983C49.6433 23.7508 47.713 25.867 44.2951 26.816L43.6538 25.5463C46.174 24.8602 47.6233 23.5776 47.8926 22.0065H44.2823V20.6983H49.6433ZM45.693 31.5486V27.0213H53.4268V31.5486H45.693ZM47.2962 30.2661H51.8108V28.3038H47.2962V30.2661ZM49.7202 24.1355V22.8017H51.7979V20.0314H53.4268V26.5595H51.7979V24.1355H49.7202ZM58.6724 22.045C58.6724 23.3468 59.3136 24.6101 60.8655 25.2257L59.9806 26.4826C58.993 26.085 58.3068 25.3732 57.89 24.4946C57.4668 25.495 56.7293 26.3351 55.6456 26.7904L54.7734 25.5207C56.4215 24.8153 57.082 23.366 57.082 22.045V20.6983H58.6724V22.045ZM56.9025 28.9194V27.6112H64.9696V31.6897H63.3408V28.9194H56.9025ZM60.9168 27.0341V20.211H62.443V22.8658H63.4178V20.0314H64.9696V27.0982H63.4178V24.1997H62.443V27.0341H60.9168Z" fill="#262626"/>
<path d="M120.323 156.677V159.541H121.712V160.396H120.323V163.72H119.307V156.677H120.323ZM112.948 159.723C112.937 158.328 114.049 157.345 115.492 157.34C116.94 157.345 118.036 158.328 118.046 159.723C118.036 161.118 116.94 162.112 115.492 162.106C114.049 162.112 112.937 161.118 112.948 159.723ZM113.942 159.723C113.931 160.615 114.615 161.219 115.492 161.219C116.379 161.219 117.047 160.615 117.052 159.723C117.047 158.831 116.379 158.227 115.492 158.227C114.615 158.227 113.931 158.831 113.942 159.723ZM114.252 166.061V162.983H115.267V165.238H120.729V166.061H114.252ZM130.241 156.698V163.71H129.226V160.108H127.398V159.285H129.226V156.698H130.241ZM122.268 161.711C123.738 161.214 124.657 159.953 124.651 158.633V158.259H122.578V157.425H127.74V158.259H125.688V158.633C125.683 159.825 126.548 161.027 127.997 161.508L127.473 162.32C126.399 161.946 125.603 161.177 125.186 160.225C124.769 161.283 123.93 162.128 122.792 162.534L122.268 161.711ZM124.021 166.061V163.079H125.036V165.238H130.498V166.061H124.021ZM140.48 164.297V165.131H131.716V164.297H134.067V162.17H132.486V161.348H133.918V158.366H132.464V157.532H139.678V158.366H138.214V161.348H139.646V162.17H138.075V164.297H140.48ZM134.922 161.348H137.22V158.366H134.922V161.348ZM135.083 164.297H137.06V162.17H135.083V164.297ZM144.702 159.509C144.696 161.112 145.749 162.769 147.224 163.4L146.668 164.19C145.541 163.694 144.643 162.635 144.199 161.358C143.756 162.726 142.858 163.891 141.741 164.436L141.153 163.635C142.596 162.956 143.665 161.16 143.676 159.509V158.494H141.485V157.65H146.882V158.494H144.702V159.509ZM148.09 166.264V156.688H149.105V166.264H148.09Z" fill="#262626"/>
<path d="M159.07 159.057L164.907 164.894" stroke="#6B6E72" stroke-width="1.09443" stroke-linecap="round"/>
<path d="M164.906 159.057L159.069 164.894" stroke="#6B6E72" stroke-width="1.09443" stroke-linecap="round"/>
<path d="M205.114 157.404C206.418 157.409 207.364 158.51 207.519 160.279H209.496V156.688H210.5V166.285H209.496V161.102H207.529C207.417 162.972 206.45 164.132 205.114 164.126C203.687 164.132 202.677 162.828 202.688 160.76C202.677 158.713 203.687 157.409 205.114 157.404ZM203.65 160.76C203.655 162.283 204.248 163.218 205.114 163.218C205.979 163.218 206.573 162.283 206.578 160.76C206.573 159.258 205.979 158.318 205.114 158.312C204.248 158.318 203.655 159.258 203.65 160.76ZM219.906 156.698V163.742H218.901V156.698H219.906ZM212.456 158.173V157.361H216.86V160.215H213.472V161.593C215.23 161.583 216.432 161.529 217.854 161.273L217.961 162.106C216.454 162.368 215.182 162.422 213.279 162.427H212.478V159.445H215.855V158.173H212.456ZM213.579 166.061V163.186H214.594V165.238H220.173V166.061H213.579ZM229.364 156.688V166.285H228.349V156.688H229.364ZM221.765 160.76C221.765 158.713 222.797 157.409 224.245 157.404C225.666 157.409 226.714 158.713 226.714 160.76C226.714 162.828 225.666 164.132 224.245 164.126C222.797 164.132 221.765 162.828 221.765 160.76ZM222.749 160.76C222.743 162.283 223.353 163.218 224.245 163.218C225.121 163.218 225.731 162.283 225.731 160.76C225.731 159.258 225.121 158.318 224.245 158.312C223.353 158.318 222.743 159.258 222.749 160.76ZM242.329 164.233V165.078H233.565V164.233H237.423V162.267H234.569V157.34H235.585V158.986H240.287V157.34H241.292V162.267H238.428V164.233H242.329ZM235.585 161.444H240.287V159.808H235.585V161.444ZM251.317 158.034V158.857H243.44V158.034H246.882V156.827H247.886V158.034H251.317ZM243.024 165.184V164.361H246.882V163.095C245.204 162.988 244.183 162.325 244.188 161.262C244.183 160.108 245.407 159.429 247.384 159.434C249.335 159.429 250.574 160.108 250.569 161.262C250.574 162.325 249.543 162.988 247.886 163.095V164.361H251.788V165.184H243.024ZM245.225 161.262C245.215 161.93 246.016 162.293 247.384 162.299C248.731 162.293 249.538 161.93 249.532 161.262C249.538 160.599 248.731 160.236 247.384 160.236C246.016 160.236 245.215 160.599 245.225 161.262ZM260.103 157.286V158.13C260.103 159.039 260.103 160.028 259.835 161.39H261.214V162.224H257.335V166.275H256.308V162.224H252.482V161.39H258.809C259.093 160.022 259.093 159.023 259.098 158.13V158.12H253.551V157.286H260.103ZM269.925 162.833V166.264H268.909V163.635H263.437V162.833H269.925ZM262.08 159.531C262.075 158.179 263.149 157.217 264.592 157.222C265.404 157.217 266.104 157.532 266.547 158.056H268.909V156.688H269.925V162.331H268.909V161.016H266.547C266.099 161.54 265.404 161.855 264.592 161.85C263.149 161.855 262.075 160.893 262.08 159.531ZM263.053 159.531C263.047 160.407 263.694 160.989 264.592 160.995C265.452 160.989 266.109 160.407 266.109 159.531C266.109 158.676 265.452 158.082 264.592 158.077C263.694 158.082 263.047 158.676 263.053 159.531ZM266.991 160.183H268.909V158.889H266.996C267.05 159.092 267.082 159.306 267.082 159.531C267.082 159.76 267.05 159.979 266.991 160.183Z" fill="#262626"/>
<path d="M280.59 159.057L286.427 164.894" stroke="#6B6E72" stroke-width="1.09443" stroke-linecap="round"/>
<path d="M286.426 159.057L280.589 164.894" stroke="#6B6E72" stroke-width="1.09443" stroke-linecap="round"/>
<rect x="99.2178" y="149.526" width="76.937" height="24.8631" rx="12.4315" stroke="#EBEDEF" stroke-width="0.732565"/>
<rect x="188.362" y="149.526" width="108.711" height="24.8631" rx="12.4315" stroke="#EBEDEF" stroke-width="0.732565"/>
</svg>
