<svg width="627" height="350" viewBox="0 0 627 350" fill="none" xmlns="http://www.w3.org/2000/svg">
<circle cx="109.5" cy="152.5" r="109.5" fill="#D9F1F1"/>
<path d="M73.1133 142.34V144.473H70.5977V155.889C71.8145 155.793 73.0039 155.684 74.1523 155.547L74.2891 157.434C69.1621 158.295 63.3789 158.377 59.0859 158.391L58.7852 156.23C59.7559 156.23 60.8086 156.217 61.9023 156.203V144.473H59.3867V142.34H73.1133ZM64.418 156.162C65.6211 156.135 66.8516 156.094 68.082 156.039V144.473H64.418V156.162ZM75.5742 164.324V139.824H78.1719V149.477H82.1094V151.609H78.1719V164.324H75.5742ZM90.2305 140.645C93.9219 140.672 96.6426 142.928 96.6562 146.141C96.6426 149.367 93.9219 151.609 90.2305 151.609C86.498 151.609 83.791 149.367 83.7773 146.141C83.791 142.928 86.498 140.672 90.2305 140.645ZM86.3203 146.141C86.3066 148.164 87.9746 149.504 90.2305 149.504C92.4727 149.504 94.1406 148.164 94.1406 146.141C94.1406 144.145 92.4727 142.805 90.2305 142.832C87.9746 142.805 86.3066 144.145 86.3203 146.141ZM87.4961 155.492V153.414H103.602V159.594H90.0938V161.945H104.422V164.023H87.5781V157.652H101.031V155.492H87.4961ZM101.004 152.293V139.824H103.602V152.293H101.004ZM122.961 144.309C122.975 147.631 125.176 150.83 128.867 152.129L127.445 154.152C124.779 153.127 122.77 151.104 121.717 148.574C120.664 151.391 118.572 153.619 115.688 154.727L114.293 152.676C118.107 151.322 120.377 147.918 120.391 144.227V141.328H122.961V144.309ZM118.75 163.805V156.066H121.375V161.699H135.293V163.805H118.75ZM126.98 147.562V145.43H132.148V139.852H134.746V158.117H132.148V147.562H126.98ZM149.102 141.574V143.68H142.02V146.414H148.828V148.41H142.02V151.391C145.301 151.363 147.447 151.24 149.977 150.762L150.223 152.895C147.352 153.428 145.014 153.537 141.117 153.523H139.531V141.574H149.102ZM142.758 158.008V155.902H159.41V164.324H156.84V158.008H142.758ZM151.508 154.535V140.289H153.941V146.086H156.949V139.852H159.41V154.727H156.949V148.191H153.941V154.535H151.508Z" fill="#3E3F41"/>
<circle opacity="0.3" cx="484.5" cy="152.5" r="142.5" fill="#29B8B5"/>
<circle cx="485" cy="153" r="120" fill="#29B8B5"/>
<path d="M421 152.5V155.656H410.281V160.562H406.344V155.656H394.969V152.5H421ZM398.031 166.375V158.094H402V163.188H418.125V166.375H398.031ZM398.219 150.156V139.688H417.656V150.156H398.219ZM402.125 147.062H413.75V142.781H402.125V147.062ZM447.25 138.438V166.875H443.469V138.438H447.25ZM422.062 158.562C426.25 155.984 427.812 150.891 427.812 146.062V144.531H423.156V141.344H435.969V144.531H431.656V146.062C431.641 150.781 433.125 155.562 437.281 157.938L434.938 160.875C432.391 159.375 430.734 156.844 429.766 153.781C428.797 157.094 427.078 159.906 424.469 161.5L422.062 158.562ZM433.938 151.406V148.188H437.688V138.906H441.438V165.562H437.688V151.406H433.938ZM468.188 146.188C468.172 150.516 470.484 155.516 475.156 157.688L472.938 160.812C469.766 159.359 467.516 156.453 466.234 153.047C464.969 156.797 462.625 159.984 459.344 161.531L457.031 158.375C461.766 156.172 464.156 150.891 464.188 146.188V144.438H458.156V141.188H473.906V144.438H468.188V146.188ZM476.125 166.875V138.438H480.125V149.281H484.312V152.625H480.125V166.875H476.125ZM511.344 151.875V155H485.344V151.875H496.406V149.438H488.5V139.688H508.219V142.781H492.469V146.312H508.375V149.438H500.312V151.875H511.344ZM488.312 161.688C488.312 158.312 492.062 156.438 498.281 156.438C504.453 156.438 508.156 158.312 508.188 161.688C508.156 165.016 504.453 166.906 498.281 166.906C492.062 166.906 488.312 165.016 488.312 161.688ZM492.375 161.688C492.359 163.172 494.344 163.875 498.281 163.875C502.141 163.875 504.172 163.172 504.188 161.688C504.172 160.219 502.141 159.469 498.281 159.469C494.344 159.469 492.359 160.219 492.375 161.688ZM529.469 143.5C529.469 146.578 531.062 149.609 534.844 151.062L532.719 154.094C530.281 153.172 528.609 151.484 527.594 149.391C526.562 151.844 524.781 153.891 522.125 155L519.969 151.938C523.984 150.172 525.594 146.672 525.594 143.5V140.156H529.469V143.5ZM525.25 161.562C525.234 158.234 529.062 156.234 535.094 156.25C541.094 156.234 544.938 158.234 544.969 161.562C544.938 164.859 541.094 166.891 535.094 166.875C529.062 166.891 525.234 164.859 525.25 161.562ZM529.25 161.562C529.219 163.094 531.359 163.875 535.094 163.875C538.797 163.875 540.938 163.094 540.938 161.562C540.938 160.016 538.797 159.219 535.094 159.219C531.359 159.219 529.219 160.016 529.25 161.562ZM534.938 154.969V138.969H538.656V145.406H541.031V138.469H544.812V155.844H541.031V148.625H538.656V154.969H534.938ZM558.781 142.312C558.766 146.109 560.719 149.625 565.281 151.031L563.188 154.156C560.125 153.094 558.047 151.141 556.844 148.578C555.594 151.547 553.297 153.875 549.875 155.031L547.781 151.844C552.641 150.281 554.734 146.469 554.75 142.5V139.906H558.781V142.312ZM552.5 161.375C552.5 157.875 556.219 155.828 562.281 155.844C568.359 155.828 572.078 157.875 572.094 161.375C572.078 164.891 568.359 166.891 562.281 166.875C556.219 166.891 552.5 164.891 552.5 161.375ZM556.469 161.375C556.469 162.953 558.516 163.781 562.281 163.781C566.062 163.781 568.109 162.953 568.125 161.375C568.109 159.75 566.062 158.938 562.281 158.938C558.516 158.938 556.469 159.75 556.469 161.375ZM562.688 146.906V143.656H568.031V138.438H572V155.094H568.031V146.906H562.688Z" fill="white"/>
<path d="M290.5 151.634C291.167 152.019 291.167 152.981 290.5 153.366L276.25 161.593C275.583 161.978 274.75 161.497 274.75 160.727L274.75 144.273C274.75 143.503 275.583 143.022 276.25 143.407L290.5 151.634Z" fill="#29B8B5"/>
<circle opacity="0.8" cx="332.5" cy="16.5" r="16.5" fill="#29B8B5"/>
<circle opacity="0.2" cx="386.5" cy="25.5" r="7.5" fill="#29B8B5"/>
<circle opacity="0.3" cx="328.5" cy="104.5" r="4.5" fill="#29B8B5"/>
<circle cx="597.5" cy="281.5" r="9.5" fill="#29B8B5"/>
<circle opacity="0.1" cx="574.5" cy="329.5" r="20.5" fill="#29B8B5"/>
</svg>
