<svg width="318" height="273" viewBox="0 0 318 273" fill="none" xmlns="http://www.w3.org/2000/svg">
<circle opacity="0.1" cx="226" cy="181" r="92" fill="#29B8B5"/>
<circle opacity="0.3" cx="227" cy="181" r="72" fill="#29B8B5"/>
<circle opacity="0.5" cx="77.5" cy="77.5" r="77.5" fill="#D9F1F1"/>
<circle cx="77.5" cy="76.5" r="60.5" fill="#C7FAF8"/>
<path d="M33.9531 73.2422C33.9443 76.1777 35.2803 79.1221 37.9961 80.2734L36.6777 82.0664C34.8496 81.2402 33.584 79.6406 32.8545 77.6631C32.1338 79.8252 30.8242 81.5654 28.873 82.4531L27.5195 80.5898C30.3145 79.4121 31.6768 76.3447 31.6855 73.2422V70.8516H33.9531V73.2422ZM38.8574 85.6523V69.6211H41.125V85.6523H38.8574ZM56.7695 69.6211V79.2891H54.5371V76.1426H52.4629V74.3145H54.5371V69.6211H56.7695ZM43.3223 72.8027V71.0098H46.9434V69.4805H49.1582V71.0098H52.7441V72.8027H43.3223ZM44.2012 76.1953C44.2012 74.5254 45.8096 73.3301 48.0508 73.3301C50.3008 73.3301 51.8828 74.5254 51.8828 76.1953C51.8828 77.9443 50.292 79.0869 48.0508 79.0957C45.8096 79.0869 44.2012 77.9443 44.2012 76.1953ZM46.0117 85.4414V79.9746H56.7695V85.4414H46.0117ZM46.3633 76.1953C46.3457 77.0039 47.0049 77.4346 48.0508 77.4434C49.0703 77.4346 49.7383 77.0039 49.7383 76.1953C49.7383 75.4395 49.0703 75.0088 48.0508 75.0176C47.0049 75.0088 46.3457 75.4395 46.3633 76.1953ZM48.2617 83.6484H54.5723V81.7324H48.2617V83.6484ZM65.0488 73.9805C65.04 76.5645 66.376 79.333 69.0566 80.4492L67.8438 82.207C65.9629 81.4072 64.6621 79.8164 63.9414 77.8828C63.2207 79.9834 61.8936 81.7412 60.0039 82.6113L58.7207 80.8359C61.375 79.6494 62.7461 76.6875 62.7461 73.9805V72.9961H59.3535V71.168H68.3887V72.9961H65.0488V73.9805ZM69.9707 85.6172V69.6211H72.2383V85.6172H69.9707ZM92.0664 69.6211V85.6523H89.8164V77.0215H86.9512V75.1934H89.8164V69.6211H92.0664ZM78.3027 80.8711C80.9834 79.6406 82.293 76.5908 82.293 73.6289V72.9609H78.9707V71.168H87.918V72.9609H84.5957V73.6289C84.5869 76.4414 85.8877 79.377 88.5859 80.5371L87.2676 82.3125C85.4043 81.4512 84.1562 79.7725 83.4707 77.7334C82.7764 79.9131 81.502 81.7236 79.6387 82.6465L78.3027 80.8711ZM103.193 70.6934V72.4863H100.012C100.021 74.3496 101.154 76.1514 103.703 76.8984L102.631 78.6562C100.864 78.1201 99.6338 77.0391 98.9307 75.6768C98.2188 77.2852 96.918 78.5684 95.002 79.2012L93.8594 77.4258C96.5137 76.5908 97.7178 74.5166 97.7441 72.4863H94.4746V70.6934H103.193ZM96.0742 82.5059C96.0654 80.5547 98.1748 79.4209 101.559 79.4297C104.89 79.4209 106.946 80.5547 106.955 82.5059C106.946 84.4658 104.89 85.626 101.559 85.6172C98.1748 85.626 96.0654 84.4658 96.0742 82.5059ZM98.3242 82.5059C98.3066 83.4199 99.458 83.877 101.559 83.877C103.633 83.877 104.74 83.4199 104.74 82.5059C104.74 81.6094 103.633 81.1611 101.559 81.1699C99.458 81.1611 98.3066 81.6094 98.3242 82.5059ZM104.547 79.1133V69.6211H106.797V73.3301H108.959V75.1582H106.797V79.1133H104.547ZM124.305 81.9082V83.7012H109.662V81.9082H115.779V78.2871H118.012V81.9082H124.305ZM110.014 76.9336C113.635 76.3711 115.674 73.9365 115.691 71.6777V70.5352H118.082V71.6777C118.073 73.9629 120.139 76.3711 123.795 76.9336L122.846 78.7969C120.033 78.2871 117.941 76.7842 116.887 74.7891C115.841 76.7754 113.758 78.2959 110.963 78.7969L110.014 76.9336Z" fill="#29B8B5"/>
<circle cx="227.5" cy="180.5" r="64.5" fill="#29B8B5"/>
<path d="M205.789 190V173.031H212.445C216.301 173.031 218.516 175.41 218.516 178.75C218.516 182.137 216.266 184.469 212.352 184.469H209.305V190H205.789ZM209.305 181.633H211.789C213.875 181.633 214.895 180.461 214.883 178.75C214.895 177.062 213.875 175.926 211.789 175.914H209.305V181.633ZM226.719 190H220.742V173.031H226.789C231.898 173.031 235.027 176.207 235.016 181.492C235.027 186.801 231.898 190 226.719 190ZM224.258 186.977H226.578C229.812 186.977 231.5 185.301 231.5 181.492C231.5 177.719 229.812 176.055 226.602 176.055H224.258V186.977ZM237.57 190V173.031H248.75V175.938H241.086V180.062H248.023V182.969H241.086V190H237.57Z" fill="white"/>
</svg>
