<svg width="384" height="133" viewBox="0 0 384 133" fill="none" xmlns="http://www.w3.org/2000/svg">
<rect x="0.5" y="0.5" width="383" height="132" rx="9.5" fill="white" stroke="#EBEDEF"/>
<rect x="311" y="39" width="52" height="52" rx="5" fill="#EDFAFA"/>
<path d="M341.916 78.2002H329.156V74.88H333.825L337.2 54.9589H332.346V51.6387H345.106V54.9589H340.437L337.063 74.88H341.916V78.2002Z" fill="#1A1B1C"/>
<path d="M27.4629 31.2734V44H25.1777V31.2734H27.4629ZM34.4941 34.4551V36.1777H32.6133V41.1348C32.6133 42.0488 33.0703 42.2334 33.6328 42.2422C33.8965 42.251 34.3359 42.2246 34.6172 42.207V44.0352C34.3535 44.0791 33.9229 44.1318 33.3516 44.123C31.6641 44.1318 30.3633 43.2969 30.3809 41.5039V36.1777H29.0098V34.4551H30.3809V32.1699H32.6133V34.4551H34.4941ZM35.7773 41.3105C35.7773 39.166 37.5615 38.542 39.3281 38.4277C39.9961 38.375 41.3584 38.3135 41.7803 38.2959L41.7715 37.5312C41.7715 36.582 41.165 36.0371 40.0488 36.0371C39.0469 36.0371 38.4316 36.4941 38.2559 37.1797H36.0938C36.252 35.5537 37.7109 34.332 40.1016 34.332C41.9121 34.332 44.0039 35.0791 44.0039 37.6191V44H41.8594V42.6816H41.7891C41.3672 43.4902 40.4795 44.1934 38.9766 44.1934C37.1572 44.1934 35.7773 43.2002 35.7773 41.3105ZM37.9395 41.293C37.9395 42.1191 38.6162 42.541 39.5566 42.541C40.9189 42.541 41.7891 41.6445 41.7891 40.5723L41.7803 39.79C41.376 39.8076 40.1279 39.8867 39.6797 39.9219C38.6162 40.0098 37.9395 40.458 37.9395 41.293ZM48.3633 31.2734V44H46.1133V31.2734H48.3633ZM50.5078 44V34.4551H52.7578V44H50.5078ZM50.3496 31.8711C50.3496 31.2031 50.9385 30.6582 51.6504 30.6582C52.3623 30.6582 52.9512 31.2031 52.9512 31.8711C52.9512 32.5479 52.3623 33.0928 51.6504 33.1016C50.9385 33.0928 50.3496 32.5479 50.3496 31.8711ZM59.0684 44.1934C56.2207 44.1934 54.498 42.1543 54.498 39.2715C54.498 36.3447 56.2734 34.332 59.0684 34.332C61.3799 34.332 63.0059 35.6855 63.1641 37.7422H61.0195C60.8438 36.8281 60.1758 36.1338 59.0859 36.125C57.6973 36.1338 56.7656 37.2939 56.7656 39.2188C56.7656 41.1875 57.6797 42.3564 59.0859 42.3652C60.0791 42.3564 60.8174 41.7764 61.0195 40.748H63.1641C62.9971 42.7607 61.4678 44.1934 59.0684 44.1934ZM73.8867 34.4551V36.1777H72.0059V41.1348C72.0059 42.0488 72.4629 42.2334 73.0254 42.2422C73.2891 42.251 73.7285 42.2246 74.0098 42.207V44.0352C73.7461 44.0791 73.3154 44.1318 72.7441 44.123C71.0566 44.1318 69.7559 43.2969 69.7734 41.5039V36.1777H68.4023V34.4551H69.7734V32.1699H72.0059V34.4551H73.8867ZM76.9629 47.5859C76.5146 47.5771 76.0928 47.5684 75.8027 47.5332V45.7402C76.0752 45.7666 76.4531 45.7666 76.752 45.7754C77.2969 45.7666 77.7539 45.7314 78.1406 44.7031L78.334 44.1934L74.8535 34.4551H77.2266L79.4414 41.6621H79.5469L81.7617 34.4551H84.1348L80.3027 45.1602C79.7578 46.6807 78.7559 47.5771 76.9629 47.5859ZM85.541 47.5859V34.4551H87.7383V36.0195H87.8789C88.2217 35.3428 88.9248 34.332 90.6211 34.332C92.8184 34.332 94.5498 36.0547 94.5586 39.2363C94.5498 42.374 92.8711 44.167 90.6211 44.1758C88.9775 44.167 88.2305 43.1914 87.8789 42.4883H87.791V47.5859H85.541ZM87.7383 39.2188C87.7471 41.082 88.5557 42.3301 90.0059 42.3301C91.4912 42.3301 92.2734 41.0205 92.2734 39.2188C92.2734 37.4434 91.5088 36.1689 90.0059 36.1602C88.5381 36.1689 87.7471 37.3643 87.7383 39.2188ZM100.553 44.1934C97.6787 44.1934 95.9121 42.2773 95.9121 39.2891C95.9121 36.3359 97.7051 34.332 100.43 34.332C102.768 34.332 104.789 35.7998 104.789 39.1484V39.8516H98.127C98.1621 41.4775 99.1201 42.4443 100.57 42.4355C101.555 42.4443 102.214 42.0225 102.504 41.4512H104.701C104.297 43.1035 102.768 44.1934 100.553 44.1934ZM98.1357 38.3223H102.645C102.636 37.0215 101.757 36.0723 100.465 36.0723C99.1201 36.0723 98.2148 37.1094 98.1357 38.3223Z" fill="#262626"/>
<path d="M36.3926 74.2578V75.21H31.0166V76.6016C33.4702 76.7114 34.9277 77.5098 34.9424 78.8867C34.9277 80.3442 33.2505 81.1572 30.46 81.1572C27.6328 81.1572 25.9556 80.3442 25.9629 78.8867C25.9556 77.5098 27.4058 76.7114 29.8887 76.6016V75.21H24.5273V74.2578H36.3926ZM25.2012 72.5586C27.457 72.3242 29.6323 71.1743 29.7129 69.7168H25.6113V68.7793H35.3379V69.7168H31.207C31.2876 71.1743 33.4409 72.3242 35.7334 72.5586L35.3086 73.4668C33.1772 73.2104 31.1777 72.251 30.46 70.8081C29.7422 72.251 27.7573 73.2104 25.6113 73.4668L25.2012 72.5586ZM27.1348 78.8867C27.1201 79.751 28.3726 80.271 30.46 80.2637C32.5254 80.271 33.7778 79.751 33.7852 78.8867C33.7778 78.0005 32.5254 77.4951 30.46 77.4805C28.3726 77.4951 27.1201 78.0005 27.1348 78.8867ZM49.415 78.5498V79.5166H37.4912V78.5498H40.4502V75.0415C39.3369 74.4629 38.6631 73.5254 38.6631 72.3389C38.6631 70.3247 40.6406 68.999 43.4238 68.9844C46.207 68.999 48.1846 70.3247 48.1846 72.3389C48.1846 73.5034 47.5327 74.4263 46.4561 75.0049V78.5498H49.415ZM39.7764 72.3389C39.769 73.7964 41.2852 74.7705 43.4238 74.7705C45.5405 74.7705 47.0713 73.7964 47.0713 72.3389C47.0713 70.8813 45.5405 69.9219 43.4238 69.9365C41.2852 69.9219 39.769 70.8813 39.7764 72.3389ZM41.5781 78.5498H45.2988V75.4517C44.7349 75.5981 44.105 75.6787 43.4238 75.6787C42.7573 75.6787 42.1348 75.6055 41.5781 75.459V78.5498ZM60.6357 68.1787V72.4707H62.5986V73.4375H60.6357V77.9346H59.4932V68.1787H60.6357ZM50.4844 70.7129V69.7754H53.7949V68.1787H54.9375V69.7754H58.248V70.7129H50.4844ZM51.2314 73.8623C51.2241 72.3828 52.4839 71.4307 54.3662 71.4307C56.2266 71.4307 57.4863 72.3828 57.501 73.8623C57.4863 75.3271 56.2266 76.272 54.3662 76.2646C52.4839 76.272 51.2241 75.3271 51.2314 73.8623ZM52.3301 73.8623C52.3228 74.7778 53.1357 75.3711 54.3662 75.3564C55.582 75.3711 56.4023 74.7778 56.417 73.8623C56.4023 72.9321 55.582 72.3315 54.3662 72.3389C53.1357 72.3315 52.3228 72.9321 52.3301 73.8623ZM52.4912 80.9082V77.1582H53.6191V79.9414H61.2363V80.9082H52.4912ZM77.3643 68.1641V72.0459H79.3418V73.0127H77.3643V77.5977H76.2217V68.1641H77.3643ZM67.7988 75.2832V69.292H73.5996V70.2588H68.9414V74.3164C71.5562 74.3237 73.043 74.2432 74.7861 73.8916L74.9326 74.8438C73.1016 75.1953 71.5488 75.2832 68.8096 75.2832H67.7988ZM69.2197 80.9082V76.6455H70.3477V79.9414H77.9648V80.9082H69.2197ZM83.6484 69.1748C85.4209 69.1821 86.7026 70.7056 86.8784 73.1445H89.8008V68.1641H90.9434V81.2158H89.8008V74.0967H86.8931C86.7686 76.6528 85.4648 78.2495 83.6484 78.2422C81.7222 78.2495 80.3745 76.4917 80.3818 73.7158C80.3745 70.9473 81.7222 69.1821 83.6484 69.1748ZM81.4805 73.7158C81.4878 75.8325 82.3667 77.2241 83.6484 77.2168C84.9229 77.2241 85.8164 75.8325 85.8164 73.7158C85.8164 71.5991 84.9229 70.2075 83.6484 70.2002C82.3667 70.2075 81.4878 71.5991 81.4805 73.7158ZM104.273 68.1641V81.1865H103.16V68.1641H104.273ZM93.2725 73.7891C93.2798 71.0205 94.3784 69.27 96.0703 69.2627C97.6523 69.27 98.7217 70.7935 98.8682 73.2471H100.553V68.4424H101.651V80.5273H100.553V74.1992H98.8755C98.7656 76.7334 97.6743 78.3228 96.0703 78.3154C94.3784 78.3228 93.2798 76.5576 93.2725 73.7891ZM94.3564 73.7891C94.3418 75.8984 95.0156 77.2314 96.0703 77.2168C97.1323 77.2314 97.8062 75.8984 97.7988 73.7891C97.8062 71.6724 97.1323 70.3467 96.0703 70.3467C95.0156 70.3467 94.3418 71.6724 94.3564 73.7891ZM116.607 72.1191V73.042H107.687V68.6475H108.829V72.1191H116.607ZM106.061 75.752V74.8145H117.984V75.752H106.061ZM107.613 80.8643V77.085H108.756V79.9121H116.681V80.8643H107.613ZM128.385 69.1016V70.0391H124.518V71.7383H127.843V72.6611H124.518V74.4922C126.407 74.4922 127.572 74.4189 128.971 74.1406L129.088 75.0928C127.579 75.3784 126.349 75.4297 124.239 75.4297H123.419V69.1016H128.385ZM125.03 77.7881V76.8359H133.863V81.1865H132.735V77.7881H125.03ZM128.458 72.5586V71.5918H130.216V68.457H131.329V76.1328H130.216V72.5586H128.458ZM132.765 76.2207V68.1787H133.863V76.2207H132.765ZM142.257 70.083C142.264 72.3169 144.813 74.3018 147.076 74.7266L146.549 75.6934C144.579 75.2393 142.513 73.8403 141.671 71.9287C140.821 73.8403 138.763 75.2319 136.793 75.6934L136.266 74.7266C138.521 74.2944 141.048 72.3242 141.056 70.083V69.0869H142.257V70.083ZM135.768 79.4141V78.4619H147.691V79.4141H135.768ZM159.278 75.21V76.1475H150.27V69.292H159.132V70.2588H151.441V72.1924H158.854V73.1152H151.441V75.21H159.278ZM148.731 79.4873V78.5352H160.655V79.4873H148.731ZM173.604 74.2139V75.1221H161.681V74.2139H173.604ZM163.116 77.0264V76.1621H172.11V78.9307H164.288V80.1758H172.535V81.0107H163.131V78.1396H170.968V77.0264H163.116ZM163.189 69.3945V68.5596H172.066V71.2549H164.376V72.3975H172.301V73.2324H163.233V70.4639H170.909V69.3945H163.189ZM189.19 68.1641V81.1865H188.033V68.1641H189.19ZM178.585 77.8027C182.108 76.1328 183.91 73.6353 184.166 70.5225H179.186V69.585H185.338C185.323 73.3276 183.58 76.6455 179.215 78.7402L178.585 77.8027ZM197.32 68.3252C200.213 68.3252 201.913 69.1309 201.92 70.5811C201.913 72.0459 200.213 72.8442 197.32 72.8516C194.413 72.8442 192.706 72.0459 192.706 70.5811C192.706 69.1309 194.413 68.3252 197.32 68.3252ZM191.388 74.6387V73.7158H203.253V74.6387H197.877V75.8691H201.729V78.7842H193.995V80.1318H202.125V81.04H192.853V77.9346H200.602V76.748H192.823V75.8691H196.734V74.6387H191.388ZM193.907 70.5811C193.893 71.4746 195.16 71.958 197.32 71.9727C199.481 71.958 200.741 71.4746 200.748 70.5811C200.741 69.7241 199.481 69.2188 197.32 69.2041C195.16 69.2188 193.893 69.7241 193.907 70.5811ZM207.853 69.1748C209.046 69.1821 210.021 69.8779 210.584 71.0791H214.005V68.1641H215.147V81.2158H214.005V76.1621H210.665C210.123 77.4805 209.112 78.2495 207.853 78.2422C205.926 78.2495 204.579 76.4917 204.586 73.7158C204.579 70.9473 205.926 69.1821 207.853 69.1748ZM205.685 73.7158C205.692 75.8325 206.571 77.2241 207.853 77.2168C209.127 77.2241 210.021 75.8325 210.021 73.7158C210.021 71.5991 209.127 70.2075 207.853 70.2002C206.571 70.2075 205.692 71.5991 205.685 73.7158ZM210.914 72.0459C211.039 72.5513 211.104 73.1079 211.104 73.7158C211.104 74.2505 211.053 74.7559 210.958 75.21H214.005V72.0459H210.914ZM221.9 71.665C221.893 74.0234 223.409 76.3965 225.299 77.2607L224.61 78.1982C223.131 77.4365 221.908 75.8838 221.329 74.0308C220.75 75.979 219.527 77.6489 218.048 78.4326L217.301 77.5098C219.212 76.5723 220.721 74.0674 220.729 71.665V69.292H221.9V71.665ZM223.878 73.5547V72.6172H226.969V68.1641H228.111V81.2158H226.969V73.5547H223.878ZM245.909 75.0781V76.0156H234.029V75.0781H239.391V73.7891H235.611V68.5449H244.43V69.4824H236.769V70.6982H244.078V71.5771H236.769V72.8662H244.503V73.7891H240.533V75.0781H245.909ZM235.479 79.0771C235.472 77.7222 237.091 76.9824 239.977 76.9971C242.833 76.9824 244.444 77.7222 244.459 79.0771C244.444 80.4468 242.833 81.1572 239.977 81.1572C237.091 81.1572 235.472 80.4468 235.479 79.0771ZM236.637 79.0771C236.622 79.8682 237.823 80.2783 239.977 80.2637C242.108 80.2783 243.294 79.8682 243.302 79.0771C243.294 78.3008 242.108 77.8687 239.977 77.8613C237.823 77.8687 236.622 78.3008 236.637 79.0771ZM253.512 70.4199V71.3574H246.979V70.4199H249.688V68.5596H250.831V70.4199H253.512ZM247.447 75.1953C247.447 73.4668 248.626 72.2437 250.245 72.2363C251.886 72.2437 253.058 73.4668 253.072 75.1953C253.058 76.9458 251.886 78.1763 250.245 78.1836C248.626 78.1763 247.447 76.9458 247.447 75.1953ZM248.473 75.1953C248.473 76.3525 249.212 77.1802 250.245 77.1729C251.285 77.1802 252.047 76.3525 252.047 75.1953C252.047 74.0527 251.285 73.2178 250.245 73.2031C249.212 73.2178 248.473 74.0527 248.473 75.1953ZM254.186 80.542V68.4863H255.27V73.6572H256.998V68.1641H258.097V81.1865H256.998V74.6094H255.27V80.542H254.186ZM273.917 68.1641V71.5625H275.88V72.5146H273.917V75.9863H272.774V68.1641H273.917ZM263.751 75.0635C266.893 74.1553 268.9 72.3462 269.134 70.083H264.322V69.1309H270.372C270.365 72.4487 268.028 74.8804 264.234 76.001L263.751 75.0635ZM265.538 78.6377C265.531 77.0776 267.208 76.1255 269.801 76.1328C272.416 76.1255 274.063 77.0776 274.063 78.6377C274.063 80.2197 272.416 81.1572 269.801 81.1572C267.208 81.1572 265.531 80.2197 265.538 78.6377ZM266.681 78.6377C266.666 79.6191 267.889 80.2417 269.801 80.2344C271.712 80.2417 272.95 79.6191 272.95 78.6377C272.95 77.6562 271.712 77.0483 269.801 77.0557C267.889 77.0483 266.666 77.6562 266.681 78.6377ZM288.624 78.5498V79.5166H276.7V78.5498H282.076V75.3857H283.233V78.5498H288.624ZM277.286 74.917C279.491 74.5435 282.047 72.7197 282.047 70.6396V70.3174H277.682V69.3506H287.599V70.3174H283.233V70.6396C283.241 72.7197 285.804 74.5068 288.053 74.873L287.584 75.7812C285.592 75.3857 283.49 74.1187 282.655 72.3169C281.82 74.1406 279.725 75.437 277.77 75.8398L277.286 74.917ZM36.4365 97.2139V98.1221H24.5127V97.2139H36.4365ZM25.9482 100.026V99.1621H34.9424V101.931H27.1201V103.176H35.3672V104.011H25.9629V101.14H33.7998V100.026H25.9482ZM26.0215 92.3945V91.5596H34.8984V94.2549H27.208V95.3975H35.1328V96.2324H26.0654V93.4639H33.7412V92.3945H26.0215ZM53.1211 96.6133V97.5508H47.7451V98.8691H51.5977V101.828H43.8633V103.132H51.9932V104.04H42.7207V100.979H50.4697V99.748H42.6914V98.8691H46.6172V97.5508H41.2559V96.6133H53.1211ZM41.9004 95.0898C44.1782 94.8848 46.3462 93.896 46.5293 92.541H42.3398V91.6328H52.0664V92.541H47.855C48.0234 93.8887 50.1987 94.8848 52.4912 95.0898L52.1104 95.9688C49.979 95.749 47.9722 94.9214 47.1885 93.603C46.4121 94.9214 44.4126 95.749 42.2812 95.9688L41.9004 95.0898ZM64.5176 92.3799C64.5249 94.2183 66.9126 95.8003 69.2637 96.1299L68.7949 97.0674C66.7734 96.7305 64.7666 95.6099 63.9316 94.0132C63.0967 95.6245 61.0972 96.7305 59.0684 97.0674L58.5996 96.1299C60.9507 95.8003 63.3311 94.2476 63.3311 92.3799V91.6328H64.5176V92.3799ZM57.9844 99.4697V98.5029H69.8496V99.4697H64.459V104.187H63.3311V99.4697H57.9844ZM79.1221 99.9092C79.1147 101.059 79.7373 102.282 80.9751 102.985C82.2202 102.216 82.8794 100.913 82.8721 99.9092V99.1914H84V99.9092C83.9927 101.25 84.9814 102.583 86.6514 103.161L86.0801 104.011C84.7764 103.549 83.8682 102.641 83.4141 101.55C83.0112 102.604 82.2129 103.608 81.0117 104.113C79.7446 103.63 78.939 102.678 78.5508 101.586C78.082 102.634 77.1885 103.542 75.9434 104.011L75.3574 103.161C77.0054 102.546 77.9941 101.154 78.0088 99.9092V99.1914H79.1221V99.9092ZM75.0205 94.9873C75.0132 93.1709 76.4561 91.9331 78.4336 91.9404C80.4111 91.9331 81.8394 93.1709 81.8467 94.9873C81.8394 96.7744 80.4111 98.0049 78.4336 98.0049C76.4561 98.0049 75.0132 96.7744 75.0205 94.9873ZM76.1484 94.9873C76.1338 96.1958 77.0933 97.0454 78.4336 97.0527C79.7593 97.0454 80.7188 96.1958 80.7188 94.9873C80.7188 93.7715 79.7593 92.9072 78.4336 92.9219C77.0933 92.9072 76.1338 93.7715 76.1484 94.9873ZM84.3223 98.6201V91.1787H85.4648V98.6201H84.3223ZM91.1777 92.1748C92.9502 92.1821 94.2319 93.7056 94.4077 96.1445H97.3301V91.1641H98.4727V104.216H97.3301V97.0967H94.4224C94.2979 99.6528 92.9941 101.25 91.1777 101.242C89.2515 101.25 87.9038 99.4917 87.9111 96.7158C87.9038 93.9473 89.2515 92.1821 91.1777 92.1748ZM89.0098 96.7158C89.0171 98.8325 89.896 100.224 91.1777 100.217C92.4521 100.224 93.3457 98.8325 93.3457 96.7158C93.3457 94.5991 92.4521 93.2075 91.1777 93.2002C89.896 93.2075 89.0171 94.5991 89.0098 96.7158ZM112.564 101.55V102.517H100.641V101.55H103.6V98.0415C102.486 97.4629 101.812 96.5254 101.812 95.3389C101.812 93.3247 103.79 91.999 106.573 91.9844C109.356 91.999 111.334 93.3247 111.334 95.3389C111.334 96.5034 110.682 97.4263 109.605 98.0049V101.55H112.564ZM102.926 95.3389C102.918 96.7964 104.435 97.7705 106.573 97.7705C108.69 97.7705 110.221 96.7964 110.221 95.3389C110.221 93.8813 108.69 92.9219 106.573 92.9365C104.435 92.9219 102.918 93.8813 102.926 95.3389ZM104.728 101.55H108.448V98.4517C107.884 98.5981 107.254 98.6787 106.573 98.6787C105.907 98.6787 105.284 98.6055 104.728 98.459V101.55ZM114.981 103.088C114.469 103.081 114.029 102.656 114.044 102.136C114.029 101.623 114.469 101.198 114.981 101.198C115.501 101.198 115.926 101.623 115.919 102.136C115.926 102.656 115.501 103.081 114.981 103.088Z" fill="#3E3F41"/>
<path d="M132.969 35.25C132.641 33.6875 131.305 32.8438 129.812 32.8438C127.766 32.8438 126.18 34.4219 126.172 37.3438C126.18 40.2578 127.766 41.8359 129.812 41.8438C131.305 41.8359 132.633 41 132.969 39.4531H134.375C133.969 41.7656 132.109 43.1562 129.812 43.1562C126.906 43.1562 124.805 40.9219 124.812 37.3438C124.805 33.7656 126.906 31.5312 129.812 31.5312C132.102 31.5312 133.953 32.8984 134.375 35.25H132.969ZM139.875 34.5156V35.6406H138.094V40.5625C138.086 41.6484 138.633 41.8281 139.203 41.8281C139.445 41.8281 139.805 41.8047 140 41.7969V43.0469C139.789 43.0781 139.461 43.1094 139.062 43.1094C137.93 43.1094 136.742 42.4062 136.734 40.9062V35.6406H135.453V34.5156H136.734V32.4844H138.094V34.5156H139.875ZM141.609 43V34.5156H142.906V35.8125H143C143.305 34.9531 144.188 34.3828 145.188 34.375C145.391 34.3828 145.734 34.3906 145.891 34.4062V35.7656C145.789 35.7422 145.43 35.6719 145.078 35.6719C143.859 35.6719 142.953 36.5156 142.953 37.6562V43H141.609ZM148.547 31.6875V43H147.203V31.6875H148.547ZM158 42.2344V39.2031H154.984V37.9375H158V34.9219H159.266V37.9375H162.297V39.2031H159.266V42.2344H158ZM168.75 43V34.5156H170.094V43H168.75ZM168.484 32.2188C168.477 31.7188 168.906 31.3203 169.422 31.3281C169.938 31.3203 170.367 31.7188 170.375 32.2188C170.367 32.7109 169.938 33.1094 169.422 33.1094C168.906 33.1094 168.477 32.7109 168.484 32.2188Z" fill="#6B6E72"/>
</svg>
