<svg width="384" height="133" viewBox="0 0 384 133" fill="none" xmlns="http://www.w3.org/2000/svg">
<rect x="0.5" y="0.5" width="383" height="132" rx="9.5" fill="white" stroke="#EBEDEF"/>
<rect x="311" y="39" width="52" height="52" rx="5" fill="#EDFAFA"/>
<path d="M345.372 68.2416C345.739 69.0982 345.924 70.0511 345.924 71.097C345.924 73.3248 345.088 75.0679 343.418 76.3213C341.745 77.5747 339.437 78.2022 336.491 78.2022C333.876 78.2022 331.287 77.5697 328.724 76.303V72.5579C331.148 74.0138 333.628 74.7425 336.166 74.7425C340.235 74.7425 342.275 73.5274 342.289 71.0953C342.297 70.6022 342.21 70.1124 342.033 69.6552C341.855 69.1979 341.591 68.7827 341.255 68.4342L341.064 68.2399H322.797V64.9197H351.506V68.2399H345.372V68.2416ZM338.868 63.2613H330.18C329.901 62.9962 329.644 62.7062 329.413 62.3947C328.724 61.4684 328.379 60.3495 328.379 59.0314C328.379 56.9795 329.123 55.2347 330.607 53.7971C332.096 52.3594 334.394 51.6406 337.506 51.6406C339.852 51.6406 342.098 52.1851 344.24 53.2742V56.8467C342.326 55.7062 340.228 55.1368 337.946 55.1368C333.99 55.1368 332.014 56.435 332.014 59.0314C332.014 59.7286 332.362 60.3362 333.057 60.8558C333.753 61.3754 334.611 61.7888 335.63 62.1009C336.619 62.3997 337.699 62.7882 338.868 63.2613Z" fill="#1A1B1C"/>
<path d="M25.1777 44V31.2734H27.4629V42.0664H33.0879V44H25.1777ZM34.8105 44V34.4551H37.0605V44H34.8105ZM34.6523 31.8711C34.6523 31.2031 35.2412 30.6582 35.9531 30.6582C36.665 30.6582 37.2539 31.2031 37.2539 31.8711C37.2539 32.5479 36.665 33.0928 35.9531 33.1016C35.2412 33.0928 34.6523 32.5479 34.6523 31.8711ZM41.4551 38.4102V44H39.2051V34.4551H41.3496V36.0723H41.4727C41.9033 35.0088 42.8789 34.332 44.3027 34.332C46.2803 34.332 47.5811 35.6328 47.5723 37.918V44H45.3398V38.2695C45.3398 36.9863 44.6455 36.2217 43.4766 36.2305C42.29 36.2217 41.4551 37.0215 41.4551 38.4102ZM53.9531 44.1934C51.0791 44.1934 49.3125 42.2773 49.3125 39.2891C49.3125 36.3359 51.1055 34.332 53.8301 34.332C56.168 34.332 58.1895 35.7998 58.1895 39.1484V39.8516H51.5273C51.5625 41.4775 52.5205 42.4443 53.9707 42.4355C54.9551 42.4443 55.6143 42.0225 55.9043 41.4512H58.1016C57.6973 43.1035 56.168 44.1934 53.9531 44.1934ZM51.5361 38.3223H56.0449C56.0361 37.0215 55.1572 36.0723 53.8652 36.0723C52.5205 36.0723 51.6152 37.1094 51.5361 38.3223ZM68.9648 34.4551V36.1777H67.084V41.1348C67.084 42.0488 67.541 42.2334 68.1035 42.2422C68.3672 42.251 68.8066 42.2246 69.0879 42.207V44.0352C68.8242 44.0791 68.3936 44.1318 67.8223 44.123C66.1348 44.1318 64.834 43.2969 64.8516 41.5039V36.1777H63.4805V34.4551H64.8516V32.1699H67.084V34.4551H68.9648ZM73.1484 38.4102V44H70.8984V31.2734H73.0957V36.0723H73.2188C73.6494 34.9912 74.5811 34.332 76.0488 34.332C78.0264 34.332 79.3359 35.6152 79.3359 37.918V44H77.1035V38.2695C77.0947 36.9688 76.4004 36.2217 75.2227 36.2305C74.0098 36.2217 73.1484 37.0215 73.1484 38.4102ZM81.4629 44V34.4551H83.6426V36.0371H83.748C84.0908 34.9385 85.0049 34.3145 86.1035 34.3145C86.3496 34.3145 86.7012 34.3408 86.9121 34.3672V36.4414C86.71 36.3711 86.2441 36.3096 85.875 36.3008C84.627 36.3096 83.7129 37.1709 83.7129 38.375V44H81.4629ZM92.0977 44.1934C89.3115 44.1934 87.5273 42.2158 87.5273 39.2715C87.5273 36.3008 89.3115 34.332 92.0977 34.332C94.8926 34.332 96.6768 36.3008 96.668 39.2715C96.6768 42.2158 94.8926 44.1934 92.0977 44.1934ZM89.7949 39.2539C89.7949 41.0029 90.5596 42.4004 92.1152 42.4004C93.6445 42.4004 94.4092 41.0029 94.4004 39.2539C94.4092 37.5049 93.6445 36.0986 92.1152 36.1074C90.5596 36.0986 89.7949 37.5049 89.7949 39.2539ZM104.508 39.9922V34.4551H106.74V44H104.578V42.3125H104.473C104.033 43.376 103.031 44.123 101.607 44.123C99.7178 44.123 98.417 42.8223 98.4082 40.5371V34.4551H100.658V40.1855C100.658 41.3984 101.379 42.1719 102.469 42.1719C103.453 42.1719 104.508 41.4512 104.508 39.9922ZM113.051 47.7793C110.52 47.7793 108.911 46.6543 108.762 44.8613H110.994C111.152 45.6963 111.935 46.083 113.086 46.0918C114.431 46.083 115.301 45.5029 115.301 44.1055V42.2773H115.195C114.844 42.9805 114.079 43.8594 112.436 43.8594C110.229 43.8594 108.498 42.2598 108.498 39.1484C108.498 36.0107 110.238 34.332 112.453 34.332C114.132 34.332 114.844 35.3428 115.195 36.0195H115.301V34.4551H117.516V44.1582C117.516 46.6016 115.626 47.7793 113.051 47.7793ZM110.783 39.1836C110.783 40.9414 111.574 42.1016 113.051 42.1016C114.501 42.1016 115.318 41.0117 115.318 39.1836C115.318 37.3643 114.51 36.1689 113.051 36.1602C111.557 36.1689 110.783 37.4434 110.783 39.1836ZM121.91 38.4102V44H119.66V31.2734H121.857V36.0723H121.98C122.411 34.9912 123.343 34.332 124.811 34.332C126.788 34.332 128.098 35.6152 128.098 37.918V44H125.865V38.2695C125.856 36.9688 125.162 36.2217 123.984 36.2305C122.771 36.2217 121.91 37.0215 121.91 38.4102Z" fill="#262626"/>
<path d="M36.3926 74.2578V75.21H31.0166V76.6016C33.4702 76.7114 34.9277 77.5098 34.9424 78.8867C34.9277 80.3442 33.2505 81.1572 30.46 81.1572C27.6328 81.1572 25.9556 80.3442 25.9629 78.8867C25.9556 77.5098 27.4058 76.7114 29.8887 76.6016V75.21H24.5273V74.2578H36.3926ZM25.2012 72.5586C27.457 72.3242 29.6323 71.1743 29.7129 69.7168H25.6113V68.7793H35.3379V69.7168H31.207C31.2876 71.1743 33.4409 72.3242 35.7334 72.5586L35.3086 73.4668C33.1772 73.2104 31.1777 72.251 30.46 70.8081C29.7422 72.251 27.7573 73.2104 25.6113 73.4668L25.2012 72.5586ZM27.1348 78.8867C27.1201 79.751 28.3726 80.271 30.46 80.2637C32.5254 80.271 33.7778 79.751 33.7852 78.8867C33.7778 78.0005 32.5254 77.4951 30.46 77.4805C28.3726 77.4951 27.1201 78.0005 27.1348 78.8867ZM47.6719 68.1641V72.1338H49.6348V73.1006H47.6719V77.7002H46.5146V68.1641H47.6719ZM37.5059 75.2686C40.6333 74.2944 42.6621 72.4414 42.9038 70.1416H38.0479V69.1748H44.1562C44.1562 72.5293 41.7612 75.0195 38.0039 76.1914L37.5059 75.2686ZM39.5127 80.9082V76.7334H40.6553V79.9414H48.2725V80.9082H39.5127ZM64.2979 68.1641V73.3496H66.4805V74.3164H64.2979V81.2158H63.1553V68.1641H64.2979ZM54.7324 70.332V69.3799H60.6504V74.0381H55.9043V77.085C58.3213 77.0923 60.0132 76.9971 61.9834 76.6309L62.1006 77.583C60.0498 77.9565 58.314 78.0518 55.8018 78.0664H54.7617V73.0859H59.5078V70.332H54.7324ZM77.9355 68.1787V77.7002H76.793V68.1787H77.9355ZM67.4912 72.2803C67.4839 70.4053 68.9561 69.0942 70.9043 69.0869C72.8525 69.0942 74.3101 70.4053 74.3174 72.2803C74.3101 74.1772 72.8525 75.4956 70.9043 75.4883C68.9561 75.4956 67.4839 74.1772 67.4912 72.2803ZM68.6191 72.2803C68.6045 73.5767 69.5859 74.4775 70.9043 74.4775C72.2007 74.4775 73.1895 73.5767 73.1895 72.2803C73.1895 71.0059 72.2007 70.0977 70.9043 70.0977C69.5859 70.0977 68.6045 71.0059 68.6191 72.2803ZM69.5273 80.9082V76.7334H70.6699V79.9414H78.3457V80.9082H69.5273ZM94.2246 68.8525V69.79C94.21 70.8447 94.21 72.1484 93.8584 73.9941H95.7773V74.9609H83.9121V73.9941H92.7012C93.0894 72.1704 93.0894 70.8521 93.0967 69.8047H85.3623V68.8525H94.2246ZM84.791 80.2344C87.1421 79.8828 89.2075 78.5425 89.2148 76.792V76.1621H90.3721V76.792C90.3794 78.5425 92.4521 79.8828 94.7959 80.2344L94.3711 81.1279C92.3789 80.791 90.5845 79.8535 89.7935 78.418C89.0098 79.8535 87.208 80.791 85.2305 81.1279L84.791 80.2344ZM107.643 68.1641V81.1865H106.485V68.1641H107.643ZM97.0371 77.8027C100.56 76.1328 102.362 73.6353 102.618 70.5225H97.6377V69.585H103.79C103.775 73.3276 102.032 76.6455 97.667 78.7402L97.0371 77.8027ZM121.749 74.2139V75.1221H109.825V74.2139H121.749ZM111.261 77.0264V76.1621H120.255V78.9307H112.433V80.1758H120.68V81.0107H111.275V78.1396H119.112V77.0264H111.261ZM111.334 69.3945V68.5596H120.211V71.2549H112.521V72.3975H120.445V73.2324H111.378V70.4639H119.054V69.3945H111.334ZM138.434 75.0781V76.0156H126.554V75.0781H131.915V73.7891H128.136V68.5449H136.954V69.4824H129.293V70.6982H136.603V71.5771H129.293V72.8662H137.027V73.7891H133.058V75.0781H138.434ZM128.004 79.0771C127.997 77.7222 129.615 76.9824 132.501 76.9971C135.357 76.9824 136.969 77.7222 136.983 79.0771C136.969 80.4468 135.357 81.1572 132.501 81.1572C129.615 81.1572 127.997 80.4468 128.004 79.0771ZM129.161 79.0771C129.146 79.8682 130.348 80.2783 132.501 80.2637C134.632 80.2783 135.819 79.8682 135.826 79.0771C135.819 78.3008 134.632 77.8687 132.501 77.8613C130.348 77.8687 129.146 78.3008 129.161 79.0771ZM146.036 70.4199V71.3574H139.503V70.4199H142.213V68.5596H143.355V70.4199H146.036ZM139.972 75.1953C139.972 73.4668 141.151 72.2437 142.77 72.2363C144.41 72.2437 145.582 73.4668 145.597 75.1953C145.582 76.9458 144.41 78.1763 142.77 78.1836C141.151 78.1763 139.972 76.9458 139.972 75.1953ZM140.997 75.1953C140.997 76.3525 141.737 77.1802 142.77 77.1729C143.81 77.1802 144.571 76.3525 144.571 75.1953C144.571 74.0527 143.81 73.2178 142.77 73.2031C141.737 73.2178 140.997 74.0527 140.997 75.1953ZM146.71 80.542V68.4863H147.794V73.6572H149.522V68.1641H150.621V81.1865H149.522V74.6094H147.794V80.542H146.71ZM167.057 68.1641V75.9277H165.899V72.5146H163.277V71.5625H165.899V68.1641H167.057ZM156.319 74.8877C158.253 74.1919 159.63 72.4268 159.63 70.5664V70.083H156.686V69.1162H163.702V70.083H160.787V70.5518C160.787 72.251 162.091 73.8696 163.995 74.5215L163.395 75.4443C161.937 74.917 160.802 73.8184 160.238 72.478C159.681 74.0015 158.473 75.2173 156.92 75.8105L156.319 74.8877ZM158.37 78.7549C158.363 77.2241 160.025 76.3306 162.735 76.3379C165.438 76.3306 167.101 77.2241 167.101 78.7549C167.101 80.293 165.438 81.1719 162.735 81.1865C160.025 81.1719 158.363 80.293 158.37 78.7549ZM159.513 78.7549C159.505 79.6997 160.736 80.271 162.735 80.2637C164.728 80.271 165.958 79.6997 165.958 78.7549C165.958 77.8027 164.728 77.2314 162.735 77.2314C160.736 77.2314 159.505 77.8027 159.513 78.7549ZM181.148 78.5645V79.5166H169.225V78.5645H174.586V75.752H170.631V69.0869H171.788V71.4453H178.556V69.0869H179.684V75.752H175.714V78.5645H181.148ZM171.788 74.8145H178.556V72.3828H171.788V74.8145ZM194.098 74.2139V75.1221H182.174V74.2139H194.098ZM183.609 77.0264V76.1621H192.604V78.9307H184.781V80.1758H193.028V81.0107H183.624V78.1396H191.461V77.0264H183.609ZM183.683 69.3945V68.5596H192.56V71.2549H184.869V72.3975H192.794V73.2324H183.727V70.4639H191.402V69.3945H183.683ZM209.098 68.1641V71.5625H211.061V72.5146H209.098V75.9863H207.955V68.1641H209.098ZM198.932 75.0635C202.074 74.1553 204.081 72.3462 204.315 70.083H199.503V69.1309H205.553C205.545 72.4487 203.209 74.8804 199.415 76.001L198.932 75.0635ZM200.719 78.6377C200.711 77.0776 202.389 76.1255 204.981 76.1328C207.596 76.1255 209.244 77.0776 209.244 78.6377C209.244 80.2197 207.596 81.1572 204.981 81.1572C202.389 81.1572 200.711 80.2197 200.719 78.6377ZM201.861 78.6377C201.847 79.6191 203.07 80.2417 204.981 80.2344C206.893 80.2417 208.131 79.6191 208.131 78.6377C208.131 77.6562 206.893 77.0483 204.981 77.0557C203.07 77.0483 201.847 77.6562 201.861 78.6377ZM223.805 78.5498V79.5166H211.881V78.5498H217.257V75.3857H218.414V78.5498H223.805ZM212.467 74.917C214.671 74.5435 217.228 72.7197 217.228 70.6396V70.3174H212.862V69.3506H222.779V70.3174H218.414V70.6396C218.421 72.7197 220.985 74.5068 223.233 74.873L222.765 75.7812C220.772 75.3857 218.67 74.1187 217.835 72.3169C217 74.1406 214.906 75.437 212.95 75.8398L212.467 74.917ZM234.923 68.1641V73.54H237.105V74.4922H234.923V81.1865H233.78V68.1641H234.923ZM224.771 71.2109V70.2588H228.126V68.3252H229.269V70.2588H232.521V71.2109H224.771ZM225.519 75.2832C225.511 73.5254 226.859 72.2949 228.712 72.2949C230.55 72.2949 231.891 73.5254 231.905 75.2832C231.891 77.0483 230.55 78.2715 228.712 78.2715C226.859 78.2715 225.511 77.0483 225.519 75.2832ZM226.617 75.2832C226.61 76.4697 227.496 77.3047 228.712 77.29C229.913 77.3047 230.792 76.4697 230.807 75.2832C230.792 74.104 229.913 73.2544 228.712 73.2617C227.496 73.2544 226.61 74.104 226.617 75.2832ZM248.59 68.1641V81.1865H247.447V74.3604H244.342V73.4082H247.447V68.1641H248.59ZM237.823 77.7881C241.346 76.0815 242.979 73.5693 243.214 70.5225H238.395V69.585H244.371C244.364 73.2764 242.804 76.5503 238.453 78.7109L237.823 77.7881ZM262.96 73.3643V74.3311H260.851V81.1865H259.708V68.1641H260.851V73.3643H262.96ZM251.314 77.876V69.4531H252.457V76.9092C254.361 76.9092 256.302 76.7627 258.448 76.3086L258.595 77.29C256.346 77.7441 254.325 77.876 252.354 77.876H251.314ZM274.034 69.3799C274.042 71.2183 276.429 72.8003 278.78 73.1299L278.312 74.0674C276.29 73.7305 274.283 72.6099 273.448 71.0132C272.613 72.6245 270.614 73.7305 268.585 74.0674L268.116 73.1299C270.467 72.8003 272.848 71.2476 272.848 69.3799V68.6328H274.034V69.3799ZM267.501 76.4697V75.5029H279.366V76.4697H273.976V81.1865H272.848V76.4697H267.501ZM35.3232 91.1641V98.9277H34.166V95.5146H31.5439V94.5625H34.166V91.1641H35.3232ZM24.5859 97.8877C26.5195 97.1919 27.8965 95.4268 27.8965 93.5664V93.083H24.9521V92.1162H31.9688V93.083H29.0537V93.5518C29.0537 95.251 30.3574 96.8696 32.2617 97.5215L31.6611 98.4443C30.2036 97.917 29.0684 96.8184 28.5044 95.478C27.9478 97.0015 26.7393 98.2173 25.1865 98.8105L24.5859 97.8877ZM26.6367 101.755C26.6294 100.224 28.292 99.3306 31.002 99.3379C33.7046 99.3306 35.3672 100.224 35.3672 101.755C35.3672 103.293 33.7046 104.172 31.002 104.187C28.292 104.172 26.6294 103.293 26.6367 101.755ZM27.7793 101.755C27.772 102.7 29.0024 103.271 31.002 103.264C32.9941 103.271 34.2246 102.7 34.2246 101.755C34.2246 100.803 32.9941 100.231 31.002 100.231C29.0024 100.231 27.772 100.803 27.7793 101.755ZM47.6719 91.1201V94.2842H49.6494V95.2363H47.6719V98.3271H46.5293V91.1201H47.6719ZM37.5205 93.2734V92.3506H40.8311V91.0322H41.9736V92.3506H45.2842V93.2734H37.5205ZM38.2676 95.998C38.2603 94.6797 39.5054 93.8667 41.4023 93.8594C43.292 93.8667 44.5225 94.6797 44.5371 95.998C44.5225 97.3237 43.292 98.1294 41.4023 98.1367C39.5054 98.1294 38.2603 97.3237 38.2676 95.998ZM39.3662 99.8652V99.001H47.6719V101.887H40.5234V103.161H48.1553V104.04H39.3955V101.037H46.5293V99.8652H39.3662ZM39.3662 95.998C39.3589 96.7817 40.1646 97.2725 41.4023 97.2725C42.6328 97.2725 43.4385 96.7817 43.4531 95.998C43.4385 95.2217 42.6328 94.7163 41.4023 94.709C40.1646 94.7163 39.3589 95.2217 39.3662 95.998ZM60.7529 92.3799C60.7603 94.2183 63.1479 95.8003 65.499 96.1299L65.0303 97.0674C63.0088 96.7305 61.002 95.6099 60.167 94.0132C59.332 95.6245 57.3325 96.7305 55.3037 97.0674L54.835 96.1299C57.186 95.8003 59.5664 94.2476 59.5664 92.3799V91.6328H60.7529V92.3799ZM54.2197 99.4697V98.5029H66.085V99.4697H60.6943V104.187H59.5664V99.4697H54.2197ZM75.3574 99.9092C75.3501 101.059 75.9727 102.282 77.2104 102.985C78.4556 102.216 79.1147 100.913 79.1074 99.9092V99.1914H80.2354V99.9092C80.228 101.25 81.2168 102.583 82.8867 103.161L82.3154 104.011C81.0117 103.549 80.1035 102.641 79.6494 101.55C79.2466 102.604 78.4482 103.608 77.2471 104.113C75.98 103.63 75.1743 102.678 74.7861 101.586C74.3174 102.634 73.4238 103.542 72.1787 104.011L71.5928 103.161C73.2407 102.546 74.2295 101.154 74.2441 99.9092V99.1914H75.3574V99.9092ZM71.2559 94.9873C71.2485 93.1709 72.6914 91.9331 74.6689 91.9404C76.6465 91.9331 78.0747 93.1709 78.082 94.9873C78.0747 96.7744 76.6465 98.0049 74.6689 98.0049C72.6914 98.0049 71.2485 96.7744 71.2559 94.9873ZM72.3838 94.9873C72.3691 96.1958 73.3286 97.0454 74.6689 97.0527C75.9946 97.0454 76.9541 96.1958 76.9541 94.9873C76.9541 93.7715 75.9946 92.9072 74.6689 92.9219C73.3286 92.9072 72.3691 93.7715 72.3838 94.9873ZM80.5576 98.6201V91.1787H81.7002V98.6201H80.5576ZM87.4131 92.1748C89.1855 92.1821 90.4673 93.7056 90.6431 96.1445H93.5654V91.1641H94.708V104.216H93.5654V97.0967H90.6577C90.5332 99.6528 89.2295 101.25 87.4131 101.242C85.4868 101.25 84.1392 99.4917 84.1465 96.7158C84.1392 93.9473 85.4868 92.1821 87.4131 92.1748ZM85.2451 96.7158C85.2524 98.8325 86.1313 100.224 87.4131 100.217C88.6875 100.224 89.5811 98.8325 89.5811 96.7158C89.5811 94.5991 88.6875 93.2075 87.4131 93.2002C86.1313 93.2075 85.2524 94.5991 85.2451 96.7158ZM108.8 101.55V102.517H96.876V101.55H99.835V98.0415C98.7217 97.4629 98.0479 96.5254 98.0479 95.3389C98.0479 93.3247 100.025 91.999 102.809 91.9844C105.592 91.999 107.569 93.3247 107.569 95.3389C107.569 96.5034 106.917 97.4263 105.841 98.0049V101.55H108.8ZM99.1611 95.3389C99.1538 96.7964 100.67 97.7705 102.809 97.7705C104.925 97.7705 106.456 96.7964 106.456 95.3389C106.456 93.8813 104.925 92.9219 102.809 92.9365C100.67 92.9219 99.1538 93.8813 99.1611 95.3389ZM100.963 101.55H104.684V98.4517C104.12 98.5981 103.49 98.6787 102.809 98.6787C102.142 98.6787 101.52 98.6055 100.963 98.459V101.55ZM111.217 103.088C110.704 103.081 110.265 102.656 110.279 102.136C110.265 101.623 110.704 101.198 111.217 101.198C111.737 101.198 112.162 101.623 112.154 102.136C112.162 102.656 111.737 103.081 111.217 103.088Z" fill="#3E3F41"/>
</svg>
