<svg width="408" height="90" viewBox="0 0 408 90" fill="none" xmlns="http://www.w3.org/2000/svg">
<path d="M49.5726 68.5819H41.7118V14.9727H49.5726V68.5819ZM27.1233 68.2987L19.2625 33.5979L11.4017 68.2987H3.04517L15.4383 15.256H23.0867L35.4798 68.2987H27.1233ZM95.4328 49.107V37.3512H87.3595V29.7029H95.4328V14.9727H103.931V68.5819H60.8736V49.107H95.4328ZM76.7368 16.9556H87.0762V23.7542H80.0653C81.6705 24.6984 82.9452 25.8787 83.8894 27.2951C84.8809 28.7114 85.3766 30.2694 85.3766 31.969V35.5099C85.3766 36.9263 85.0225 38.2482 84.3143 39.4757C83.6534 40.7033 82.7327 41.7891 81.5524 42.7334C80.3721 43.6776 79.003 44.4094 77.445 44.9287C75.887 45.4481 74.2582 45.7077 72.5586 45.7077C70.8117 45.7077 69.1829 45.4481 67.6721 44.9287C66.1613 44.4094 64.8394 43.6776 63.7063 42.7334C62.5732 41.7891 61.6762 40.7033 61.0152 39.4757C60.3543 38.2482 60.0238 36.9263 60.0238 35.5099V32.1815C60.0238 30.293 60.5195 28.6406 61.511 27.2242C62.5024 25.8079 63.7535 24.6512 65.2643 23.7542H58.3241V16.9556H68.8052V13.0606H76.7368V16.9556ZM69.1593 61.1461H95.5744V56.4721H69.1593V61.1461ZM78.0824 33.4562C78.0824 32.8425 77.9407 32.2523 77.6575 31.6858C77.3742 31.072 76.9965 30.5527 76.5244 30.1278C76.0522 29.6557 75.4857 29.3016 74.8247 29.0655C74.1638 28.8294 73.4792 28.7114 72.771 28.7114C72.0156 28.7114 71.3074 28.8294 70.6465 29.0655C70.0327 29.3016 69.4662 29.6557 68.9468 30.1278C68.4747 30.5527 68.097 31.072 67.8138 31.6858C67.5305 32.2523 67.3888 32.8425 67.3888 33.4562V34.4477C67.3888 35.1086 67.5305 35.7224 67.8138 36.2889C68.097 36.8555 68.4747 37.3748 68.9468 37.8469C69.4662 38.2718 70.0327 38.6023 70.6465 38.8384C71.3074 39.0744 72.0156 39.1925 72.771 39.1925C73.4792 39.1925 74.1638 39.0744 74.8247 38.8384C75.4857 38.6023 76.0522 38.2718 76.5244 37.8469C76.9965 37.3748 77.3742 36.8555 77.6575 36.2889C77.9407 35.7224 78.0824 35.1086 78.0824 34.4477V33.4562ZM134.353 39.9007L145.117 68.3695H136.123L129.537 50.3817L121.11 68.3695H112.045L132.795 22.9752H112.966V15.256H142.214V22.9752L134.353 39.9007ZM158.36 68.5819H150.499V14.9727H158.36V68.5819ZM212.648 14.9727V68.5819H169.732V49.6027H177.734V61.2169H204.574V40.4672H192.04C190.718 41.7419 189.112 42.757 187.224 43.5124C185.335 44.2206 183.305 44.5746 181.134 44.5746C179.245 44.5746 177.451 44.2914 175.751 43.7248C174.099 43.1111 172.635 42.3085 171.361 41.317C170.133 40.2783 169.142 39.0744 168.386 37.7053C167.678 36.3361 167.324 34.8726 167.324 33.3146V26.6577C167.324 25.0997 167.702 23.6361 168.457 22.267C169.213 20.8506 170.228 19.6231 171.502 18.5844C172.777 17.4986 174.217 16.6724 175.822 16.1058C177.427 15.4921 179.103 15.1852 180.85 15.1852H181.275C183.683 15.2324 185.902 15.7281 187.932 16.6724C190.009 17.5694 191.685 18.7969 192.96 20.3549H204.574V14.9727H212.648ZM187.295 28.1449C187.295 27.4367 187.153 26.7757 186.87 26.162C186.587 25.501 186.162 24.9345 185.595 24.4623C185.029 23.9902 184.391 23.6125 183.683 23.3292C182.975 23.046 182.219 22.9043 181.417 22.9043C180.614 22.9043 179.835 23.046 179.08 23.3292C178.372 23.6125 177.758 23.9902 177.239 24.4623C176.719 24.9345 176.294 25.501 175.964 26.162C175.681 26.7757 175.539 27.4367 175.539 28.1449V32.1107C175.539 32.8661 175.681 33.5506 175.964 34.1644C176.294 34.7782 176.719 35.3447 177.239 35.864C177.758 36.3361 178.372 36.7138 179.08 36.9971C179.835 37.2332 180.614 37.3512 181.417 37.3512C182.219 37.3512 182.975 37.2332 183.683 36.9971C184.391 36.7138 185.029 36.3361 185.595 35.864C186.162 35.3447 186.587 34.7782 186.87 34.1644C187.153 33.5506 187.295 32.8661 187.295 32.1107V28.1449ZM195.368 33.6687H204.574V27.1534H195.368V33.3146V33.6687ZM254.188 46.3451L257.021 23.1168H224.515V15.256H265.448V23.1168L262.403 46.3451H268.989V53.9226H248.593V68.5819H240.662V53.9226H220.266V46.3451H254.188ZM311.237 48.8945L298.986 25.1705L286.734 48.8945H276.253L293.604 15.1852H304.368L321.718 48.8945H311.237ZM294.737 61.1461V45.9202H303.235V61.1461H323.347V68.5819H274.624V61.1461H294.737Z" fill="#262626"/>
<path d="M370.241 73.4712L396.73 27.5905L396.979 27.7339C399.804 29.365 403.416 28.397 405.047 25.5719C406.678 22.7468 405.711 19.1343 402.885 17.5032L378.307 3.31272C375.482 1.68163 371.869 2.6496 370.238 5.47472C368.607 8.29985 369.575 11.9123 372.4 13.5434L373.031 13.9077L346.542 59.7884C342.763 66.3328 345.006 74.701 351.55 78.4794C358.094 82.2578 366.463 80.0156 370.241 73.4712Z" fill="#D9F1F1"/>
<path d="M390.811 35.1603L362.424 35.1616L347.122 59.7845C343.562 65.5128 345.222 73.0351 350.862 76.7327C356.768 80.604 364.709 78.7812 368.334 72.7218L390.811 35.1603Z" fill="#29B8B5"/>
<path d="M390.812 10.5483L402.01 17.052C404.83 18.6904 405.765 22.347 404.127 25.1679V25.1679C402.515 27.9432 398.934 28.9273 396.159 27.3154V27.3154L369.127 73.8583C365.566 79.9893 357.709 82.0729 351.578 78.512V78.512C345.447 74.9511 343.364 67.0942 346.925 60.9631L373.957 14.4202L373.696 14.2686C370.867 12.6256 369.905 9.00021 371.548 6.17119V6.17119C373.185 3.35367 376.789 2.38667 379.616 4.00685L382.013 5.38075" stroke="black" stroke-width="3.35345" stroke-linecap="round"/>
<path d="M376.465 27.2653C377.029 27.5911 377.751 27.3977 378.077 26.8334C378.403 26.269 378.209 25.5473 377.645 25.2215L376.465 27.2653ZM369.558 23.2777L376.465 27.2653L377.645 25.2215L370.738 21.234L369.558 23.2777Z" fill="black" fill-opacity="0.5"/>
<path d="M371.356 36.1012C371.92 36.4271 372.642 36.2337 372.968 35.6693C373.293 35.1049 373.1 34.3833 372.536 34.0574L371.356 36.1012ZM364.449 32.1137L371.356 36.1012L372.536 34.0574L365.629 30.0699L364.449 32.1137Z" fill="black" fill-opacity="0.5"/>
<path d="M366.258 44.9489C366.822 45.2747 367.544 45.0813 367.87 44.517C368.196 43.9526 368.002 43.2309 367.438 42.9051L366.258 44.9489ZM359.351 40.9613L366.258 44.9489L367.438 42.9051L360.531 38.9176L359.351 40.9613Z" fill="black" fill-opacity="0.5"/>
<path d="M361.149 53.775C361.713 54.1009 362.435 53.9075 362.761 53.3431C363.086 52.7788 362.893 52.0571 362.329 51.7313L361.149 53.775ZM354.242 49.7875L361.149 53.775L362.329 51.7313L355.422 47.7437L354.242 49.7875Z" fill="black" fill-opacity="0.5"/>
<path d="M356.039 62.6227C356.604 62.9485 357.325 62.7552 357.651 62.1908C357.977 61.6264 357.784 60.9048 357.219 60.5789L356.039 62.6227ZM349.133 58.6352L356.039 62.6227L357.219 60.5789L350.313 56.5914L349.133 58.6352Z" fill="black" fill-opacity="0.5"/>
</svg>
