<svg width="592" height="251" viewBox="0 0 592 251" fill="none" xmlns="http://www.w3.org/2000/svg">
<path d="M333.237 188.771C331.289 189.418 325.458 187.894 322.229 187.455C322.083 197.689 321.789 218.244 321.789 218.595C321.789 219.034 323.11 223.42 323.11 224.297C323.11 224.999 325.752 226.636 327.073 227.367H331.476H335.439L339.842 223.42V199.736V184.385C338.668 184.97 337.2 187.455 333.237 188.771Z" fill="#29B8B5"/>
<path d="M333.237 186.103C331.289 186.737 325.458 185.243 322.229 184.813C322.083 194.843 321.789 214.987 321.789 215.331C321.789 215.761 323.11 220.059 323.11 220.919C323.11 221.606 325.752 223.211 327.073 223.927H331.476H335.439L339.842 220.059V196.849V181.805C338.668 182.378 337.2 184.813 333.237 186.103Z" fill="#29B8B5" fill-opacity="0.5"/>
<path d="M285.506 162.089C281.476 161.741 279.069 163.105 278.369 163.83L277.949 216.922L279.209 223.885L282.148 227.367H289.704L294.742 223.885L296.002 216.487V165.135C294.183 164.265 289.536 162.437 285.506 162.089Z" fill="#29B8B5"/>
<path d="M285.506 158.649C281.476 158.305 279.069 159.651 278.369 160.367L277.949 212.76L279.209 219.632L282.148 223.067H289.704L294.742 219.632L296.002 212.331V161.655C294.183 160.796 289.536 158.992 285.506 158.649Z" fill="#29B8B5" fill-opacity="0.5"/>
<path d="M375.309 152.242C371.368 151.307 367.612 152.386 366.912 153.105L366.492 217.003L367.752 223.911L370.69 227.365H378.247L383.285 223.911L384.545 216.572V147.493C382.726 146.629 380.766 153.538 375.309 152.242Z" fill="#29B8B5"/>
<path d="M375.309 147.945C371.368 147.01 367.612 148.089 366.912 148.808L366.492 212.706L367.752 219.614L370.69 223.068H378.247L383.285 219.614L384.545 212.275V143.196C382.726 142.333 380.766 149.241 375.309 147.945Z" fill="#29B8B5" fill-opacity="0.5"/>
<path d="M147.566 156.015C137.866 155.674 134.574 153.79 132.842 151.236L111.622 189.128L109.457 190.926L112.921 198.164L120.716 200.719H214.257L222.918 196.887L224.65 192.108L221.186 185.296L202.997 152.939C199.388 151.236 191.998 146.819 180.911 145.797C167.054 144.52 159.692 156.441 147.566 156.015Z" fill="#29B8B5" fill-opacity="0.5"/>
<path d="M147.564 163.051C137.864 162.705 131.975 157.43 130.243 154.836L109.457 192.454V198.508L112.921 205.859L120.716 208.453H214.251L222.911 204.562L225.51 197.643L222.911 189.428L205.59 159.16C201.982 157.43 191.993 153.711 180.907 152.673C167.05 151.376 159.689 163.484 147.564 163.051Z" fill="#29B8B5"/>
<path d="M43.2645 165.517C39.8259 165.235 35.9574 166.34 35.0978 167.633L34.668 232.525H65.6153V166.222C63.7528 166.692 60.1136 167.633 55.2995 167.633C49.282 167.633 47.5627 165.87 43.2645 165.517Z" fill="#29B8B5" fill-opacity="0.5"/>
<path d="M43.2645 169.816C39.8259 169.531 35.9574 170.65 35.0978 171.959L34.668 237.684H65.6153V170.531C63.7528 171.007 60.1136 171.959 55.2995 171.959C49.282 171.959 47.5627 170.174 43.2645 169.816Z" fill="#29B8B5"/>
<path d="M34.1104 124.346C34.1104 123.961 34.4223 123.649 34.807 123.649H66.4755H72.4603C73.0167 123.649 73.3486 124.27 73.04 124.733L65.8214 135.56C65.4908 136.056 65.3144 136.639 65.3144 137.235V236.683C65.3144 237.068 65.0025 237.38 64.6177 237.38H34.807C34.4223 237.38 34.1104 237.068 34.1104 236.683V124.346Z" stroke="black" stroke-width="2.32227"/>
<rect x="28.0908" y="237.124" width="43.2391" height="9.71281" rx="4.85641" stroke="#6B6E72" stroke-width="2.32227"/>
<rect x="140.704" y="66.9131" width="51.8356" height="9.71281" rx="4.85641" stroke="black" stroke-width="2.32227"/>
<rect x="269.653" y="131.388" width="33.783" height="9.71281" rx="4.85641" stroke="black" stroke-width="2.32227"/>
<rect x="314.353" y="131.388" width="33.783" height="9.71281" rx="4.85641" stroke="black" stroke-width="2.32227"/>
<rect x="359.056" y="131.388" width="33.783" height="9.71281" rx="4.85641" stroke="black" stroke-width="2.32227"/>
<path d="M56.1602 159.153C55.5189 159.153 54.999 159.673 54.999 160.314C54.999 160.956 55.5189 161.476 56.1602 161.476L56.1602 159.153ZM56.1602 161.476L64.7566 161.476L64.7566 159.153L56.1602 159.153L56.1602 161.476Z" fill="black" fill-opacity="0.5"/>
<path d="M333.824 162.591C333.183 162.591 332.663 163.111 332.663 163.752C332.663 164.393 333.183 164.913 333.824 164.913L333.824 162.591ZM333.824 164.913L338.982 164.913L338.982 162.591L333.824 162.591L333.824 164.913Z" fill="black" fill-opacity="0.5"/>
<path d="M378.527 162.591C377.886 162.591 377.366 163.111 377.366 163.752C377.366 164.393 377.886 164.913 378.527 164.913L378.527 162.591ZM378.527 164.913L383.685 164.913L383.685 162.591L378.527 162.591L378.527 164.913Z" fill="black" fill-opacity="0.5"/>
<path d="M56.1602 168.61C55.5189 168.61 54.999 169.13 54.999 169.771C54.999 170.413 55.5189 170.933 56.1602 170.933L56.1602 168.61ZM56.1602 170.933L64.7566 170.933L64.7566 168.61L56.1602 168.61L56.1602 170.933Z" fill="black" fill-opacity="0.5"/>
<path d="M289.125 172.048C288.484 172.048 287.964 172.568 287.964 173.209C287.964 173.85 288.484 174.37 289.125 174.37L289.125 172.048ZM289.125 174.37L294.283 174.37L294.283 172.048L289.125 172.048L289.125 174.37Z" fill="black" fill-opacity="0.5"/>
<path d="M333.824 172.048C333.183 172.048 332.663 172.568 332.663 173.209C332.663 173.85 333.183 174.37 333.824 174.37L333.824 172.048ZM333.824 174.37L338.982 174.37L338.982 172.048L333.824 172.048L333.824 174.37Z" fill="black" fill-opacity="0.5"/>
<path d="M378.527 172.048C377.886 172.048 377.366 172.568 377.366 173.209C377.366 173.85 377.886 174.37 378.527 174.37L378.527 172.048ZM378.527 174.37L383.685 174.37L383.685 172.048L378.527 172.048L378.527 174.37Z" fill="black" fill-opacity="0.5"/>
<path d="M56.1602 178.065C55.5189 178.065 54.999 178.585 54.999 179.227C54.999 179.868 55.5189 180.388 56.1602 180.388L56.1602 178.065ZM56.1602 180.388L64.7566 180.388L64.7566 178.065L56.1602 178.065L56.1602 180.388Z" fill="black" fill-opacity="0.5"/>
<path d="M289.125 181.503C288.484 181.503 287.964 182.023 287.964 182.664C287.964 183.305 288.484 183.825 289.125 183.825L289.125 181.503ZM289.125 183.825L294.283 183.825L294.283 181.503L289.125 181.503L289.125 183.825Z" fill="black" fill-opacity="0.5"/>
<path d="M333.824 181.503C333.183 181.503 332.663 182.023 332.663 182.664C332.663 183.305 333.183 183.825 333.824 183.825L333.824 181.503ZM333.824 183.825L338.982 183.825L338.982 181.503L333.824 181.503L333.824 183.825Z" fill="black" fill-opacity="0.5"/>
<path d="M378.527 181.503C377.886 181.503 377.366 182.023 377.366 182.664C377.366 183.305 377.886 183.825 378.527 183.825L378.527 181.503ZM378.527 183.825L383.685 183.825L383.685 181.503L378.527 181.503L378.527 183.825Z" fill="black" fill-opacity="0.5"/>
<path d="M148.136 143.035C148.696 143.347 148.897 144.054 148.585 144.614C148.272 145.174 147.565 145.375 147.005 145.063L148.136 143.035ZM147.005 145.063L139.496 140.878L140.626 138.85L148.136 143.035L147.005 145.063Z" fill="black" fill-opacity="0.5"/>
<path d="M143.952 150.544C144.512 150.856 144.713 151.564 144.401 152.124C144.089 152.684 143.382 152.885 142.821 152.573L143.952 150.544ZM142.821 152.573L135.312 148.388L136.443 146.36L143.952 150.544L142.821 152.573Z" fill="black" fill-opacity="0.5"/>
<path d="M139.768 158.054C140.329 158.366 140.53 159.073 140.217 159.634C139.905 160.194 139.198 160.395 138.638 160.083L139.768 158.054ZM138.638 160.083L131.129 155.898L132.259 153.869L139.768 158.054L138.638 160.083Z" fill="black" fill-opacity="0.5"/>
<path d="M135.585 165.564C136.145 165.876 136.346 166.583 136.034 167.143C135.722 167.704 135.014 167.905 134.454 167.592L135.585 165.564ZM134.454 167.592L126.945 163.408L128.076 161.379L135.585 165.564L134.454 167.592Z" fill="black" fill-opacity="0.5"/>
<path d="M56.1602 187.522C55.5189 187.522 54.999 188.042 54.999 188.684C54.999 189.325 55.5189 189.845 56.1602 189.845L56.1602 187.522ZM56.1602 189.845L64.7566 189.845L64.7566 187.522L56.1602 187.522L56.1602 189.845Z" fill="black" fill-opacity="0.5"/>
<path d="M289.125 190.96C288.484 190.96 287.964 191.48 287.964 192.121C287.964 192.762 288.484 193.282 289.125 193.282L289.125 190.96ZM289.125 193.282L294.283 193.282L294.283 190.96L289.125 190.96L289.125 193.282Z" fill="black" fill-opacity="0.5"/>
<path d="M333.824 190.96C333.183 190.96 332.663 191.48 332.663 192.121C332.663 192.762 333.183 193.282 333.824 193.282L333.824 190.96ZM333.824 193.282L338.982 193.282L338.982 190.96L333.824 190.96L333.824 193.282Z" fill="black" fill-opacity="0.5"/>
<path d="M378.527 190.96C377.886 190.96 377.366 191.48 377.366 192.121C377.366 192.762 377.886 193.282 378.527 193.282L378.527 190.96ZM378.527 193.282L383.685 193.282L383.685 190.96L378.527 190.96L378.527 193.282Z" fill="black" fill-opacity="0.5"/>
<path d="M56.1602 197.837C55.5189 197.837 54.999 198.357 54.999 198.998C54.999 199.639 55.5189 200.159 56.1602 200.159L56.1602 197.837ZM56.1602 200.159L64.7566 200.159L64.7566 197.837L56.1602 197.837L56.1602 200.159Z" fill="black" fill-opacity="0.5"/>
<path d="M289.125 200.415C288.484 200.415 287.964 200.935 287.964 201.576C287.964 202.217 288.484 202.737 289.125 202.737L289.125 200.415ZM289.125 202.737L294.283 202.737L294.283 200.415L289.125 200.415L289.125 202.737Z" fill="black" fill-opacity="0.5"/>
<path d="M333.824 200.415C333.183 200.415 332.663 200.935 332.663 201.576C332.663 202.217 333.183 202.737 333.824 202.737L333.824 200.415ZM333.824 202.737L338.982 202.737L338.982 200.415L333.824 200.415L333.824 202.737Z" fill="black" fill-opacity="0.5"/>
<path d="M378.527 200.415C377.886 200.415 377.366 200.935 377.366 201.576C377.366 202.217 377.886 202.737 378.527 202.737L378.527 200.415ZM378.527 202.737L383.685 202.737L383.685 200.415L378.527 200.415L378.527 202.737Z" fill="black" fill-opacity="0.5"/>
<path d="M56.1602 206.433C55.5189 206.433 54.999 206.952 54.999 207.594C54.999 208.235 55.5189 208.755 56.1602 208.755L56.1602 206.433ZM56.1602 208.755L64.7566 208.755L64.7566 206.433L56.1602 206.433L56.1602 208.755Z" fill="black" fill-opacity="0.5"/>
<path d="M56.1602 215.89C55.5189 215.89 54.999 216.41 54.999 217.051C54.999 217.692 55.5189 218.212 56.1602 218.212L56.1602 215.89ZM56.1602 218.212L64.7566 218.212L64.7566 215.89L56.1602 215.89L56.1602 218.212Z" fill="black" fill-opacity="0.5"/>
<mask id="path-42-inside-1_718_15639" fill="white">
<path fill-rule="evenodd" clip-rule="evenodd" d="M179.932 75.3906H153.282V112.431L110.907 188.242C105.369 198.149 112.531 210.356 123.88 210.356H210.195C221.545 210.356 228.706 198.149 223.169 188.242L179.932 110.89V75.3906Z"/>
</mask>
<path d="M153.282 75.3906V73.0684H150.96V75.3906H153.282ZM179.932 75.3906H182.254V73.0684H179.932V75.3906ZM153.282 112.431L155.31 113.564L155.605 113.036V112.431H153.282ZM110.907 188.242L108.88 187.109L110.907 188.242ZM223.169 188.242L221.142 189.375L223.169 188.242ZM179.932 110.89H177.609V111.495L177.905 112.023L179.932 110.89ZM153.282 77.7129H179.932V73.0684H153.282V77.7129ZM155.605 112.431V75.3906H150.96V112.431H155.605ZM112.934 189.375L155.31 113.564L151.255 111.297L108.88 187.109L112.934 189.375ZM123.88 208.034C114.304 208.034 108.261 197.734 112.934 189.375L108.88 187.109C102.477 198.564 110.757 212.678 123.88 212.678V208.034ZM210.195 208.034H123.88V212.678H210.195V208.034ZM221.142 189.375C225.814 197.734 219.771 208.034 210.195 208.034V212.678C223.318 212.678 231.599 198.564 225.196 187.109L221.142 189.375ZM177.905 112.023L221.142 189.375L225.196 187.109L181.959 109.756L177.905 112.023ZM177.609 75.3906V110.89H182.254V75.3906H177.609Z" fill="black" mask="url(#path-42-inside-1_718_15639)"/>
<mask id="path-44-inside-2_718_15639" fill="white">
<rect x="112.895" y="210.174" width="107.456" height="8.59649" rx="0.92891"/>
</mask>
<rect x="112.895" y="210.174" width="107.456" height="8.59649" rx="0.92891" stroke="#9A9DA0" stroke-width="4.64455" mask="url(#path-44-inside-2_718_15639)"/>
<mask id="path-45-inside-3_718_15639" fill="white">
<rect x="467.93" y="239.402" width="77.3684" height="8.59649" rx="0.92891"/>
</mask>
<rect x="467.93" y="239.402" width="77.3684" height="8.59649" rx="0.92891" stroke="#9A9DA0" stroke-width="4.64455" mask="url(#path-45-inside-3_718_15639)"/>
<rect x="143.286" y="218.212" width="3.69527" height="28.6251" stroke="#9A9DA0" stroke-width="2.32227"/>
<rect x="186.267" y="218.212" width="3.69527" height="28.6251" stroke="#9A9DA0" stroke-width="2.32227"/>
<path d="M277.388 140.845H295.697V219.631C295.697 224.687 291.598 228.786 286.542 228.786C281.486 228.786 277.388 224.687 277.388 219.631V140.845Z" stroke="black" stroke-width="2.32227"/>
<path d="M322.091 140.845H340.4V219.631C340.4 224.687 336.301 228.786 331.245 228.786C326.19 228.786 322.091 224.687 322.091 219.631V140.845Z" stroke="black" stroke-width="2.32227"/>
<path d="M366.794 140.845H385.103V219.631C385.103 224.687 381.005 228.786 375.949 228.786C370.893 228.786 366.794 224.687 366.794 219.631V140.845Z" stroke="black" stroke-width="2.32227"/>
<path d="M249.578 248V172.558C249.578 171.019 250.826 169.771 252.365 169.771H417.862C419.401 169.771 420.648 171.019 420.648 172.558V248" stroke="#9A9DA0" stroke-width="2.32227"/>
<path d="M51.9417 117.352C51.0832 96.3218 56.5777 51.3428 85.4238 39.6689C121.481 25.0765 129.208 48.2526 118.047 52.5445C109.151 55.9654 79.4041 48.7148 100.877 16.0635C121.481 -15.2673 179.86 9.19661 167.841 60.2703M286.745 131.086C284.599 122.359 284.599 104.305 301.769 101.901C318.94 99.4978 329.957 120.356 331.817 131.086C335.108 120.213 337.827 101.901 354.568 100.184C370.46 98.5548 378.177 124.219 379.036 125.936C379.612 127.087 381.182 129.799 382.47 127.224C383.758 124.648 387.621 109.627 384.616 84.7338C381.041 55.1198 421.103 76.1499 413.806 84.3045C407.968 90.8281 399.559 85.6782 397.065 82.1587C391.914 74.8901 395.348 59.4117 413.806 61.5575C431.027 63.5595 436.986 69.283 439.561 71.4288" stroke="black" stroke-width="2.32227"/>
<ellipse cx="271.068" cy="118.621" rx="6.01754" ry="5.58772" fill="#29B8B5"/>
<ellipse cx="282.245" cy="90.2543" rx="7.73684" ry="7.30702" fill="#8DAEFF"/>
<ellipse cx="569.37" cy="190.832" rx="7.73684" ry="7.30702" fill="#8DAEFF"/>
<circle cx="130.517" cy="39.5342" r="3.00877" fill="#29B8B5"/>
<circle cx="256.884" cy="99.7099" r="3.00877" fill="#29B8B5" fill-opacity="0.5"/>
<circle cx="433.971" cy="52.4276" r="5.58772" fill="#29B8B5"/>
<circle cx="431.391" cy="84.2351" r="2.14912" fill="#29B8B5" fill-opacity="0.2"/>
<circle cx="418.931" cy="69.1906" r="3.4386" fill="#29B8B5" fill-opacity="0.5"/>
<circle cx="583.122" cy="175.788" r="3.4386" fill="#29B8B5" fill-opacity="0.5"/>
<path d="M2 248.859H590" stroke="#9A9DA0" stroke-width="2.32227" stroke-linecap="round"/>
<path d="M505.758 240.261L505.758 4.7168" stroke="#9A9DA0" stroke-width="2.32227"/>
<path d="M568.207 43.6737V178.065H445.021V9.31739H534.05L568.207 43.6737Z" fill="white" stroke="black" stroke-width="2.32227"/>
<path d="M535.283 10.96L566.564 42.2412L535.283 42.2412L535.283 10.96Z" fill="#D9D9D9" stroke="black" stroke-width="2.32227"/>
<circle cx="505.752" cy="10.7366" r="5.71606" stroke="#9A9DA0" stroke-width="2.32227"/>
<path d="M461.051 38.2441L519.507 38.2441" stroke="black" stroke-width="2.32227" stroke-linecap="round"/>
<path d="M461.051 60.5938L524.665 60.5938" stroke="black" stroke-width="2.32227" stroke-linecap="round"/>
<path d="M461.051 82.9473L552.174 82.9473" stroke="black" stroke-width="2.32227" stroke-linecap="round"/>
<path d="M461.051 105.297L552.174 105.297" stroke="black" stroke-width="2.32227" stroke-linecap="round"/>
<path d="M461.051 127.646L552.174 127.646" stroke="black" stroke-width="2.32227" stroke-linecap="round"/>
<path d="M461.051 149.998L498.875 149.998" stroke="black" stroke-width="2.32227" stroke-linecap="round"/>
<path d="M289.125 162.591C288.484 162.591 287.964 163.111 287.964 163.752C287.964 164.393 288.484 164.913 289.125 164.913L289.125 162.591ZM289.125 164.913L294.283 164.913L294.283 162.591L289.125 162.591L289.125 164.913Z" fill="black" fill-opacity="0.5"/>
</svg>
