<svg width="384" height="133" viewBox="0 0 384 133" fill="none" xmlns="http://www.w3.org/2000/svg">
<rect x="0.5" y="0.5" width="383" height="132" rx="9.5" fill="white" stroke="#EBEDEF"/>
<path d="M33.2109 31.2734H35.5137V39.5879C35.5049 42.3213 33.4482 44.1934 30.3457 44.1934C27.2256 44.1934 25.1865 42.3213 25.1777 39.5879V31.2734H27.4629V39.3945C27.4717 41.0029 28.5879 42.1455 30.3457 42.1543C32.1035 42.1455 33.2109 41.0029 33.2109 39.3945V31.2734ZM40.0137 38.4102V44H37.7637V34.4551H39.9082V36.0723H40.0312C40.4619 35.0088 41.4375 34.332 42.8613 34.332C44.8389 34.332 46.1396 35.6328 46.1309 37.918V44H43.8984V38.2695C43.8984 36.9863 43.2041 36.2217 42.0352 36.2305C40.8486 36.2217 40.0137 37.0215 40.0137 38.4102ZM51.8262 44.1758C49.585 44.167 47.8887 42.374 47.8887 39.2363C47.8887 36.0547 49.6289 34.332 51.8438 34.332C53.5225 34.332 54.2256 35.3428 54.5684 36.0195H54.6562V31.2734H56.8887V44H54.6914V42.4883H54.5684C54.208 43.1914 53.4785 44.167 51.8262 44.1758ZM50.1738 39.2188C50.1738 41.0205 50.9648 42.3301 52.4414 42.3301C53.8916 42.3301 54.709 41.082 54.709 39.2188C54.709 37.3643 53.9004 36.1689 52.4414 36.1602C50.9473 36.1689 50.1738 37.4434 50.1738 39.2188ZM63.3926 44.1934C60.5186 44.1934 58.752 42.2773 58.752 39.2891C58.752 36.3359 60.5449 34.332 63.2695 34.332C65.6074 34.332 67.6289 35.7998 67.6289 39.1484V39.8516H60.9668C61.002 41.4775 61.96 42.4443 63.4102 42.4355C64.3945 42.4443 65.0537 42.0225 65.3438 41.4512H67.541C67.1367 43.1035 65.6074 44.1934 63.3926 44.1934ZM60.9756 38.3223H65.4844C65.4756 37.0215 64.5967 36.0723 63.3047 36.0723C61.96 36.0723 61.0547 37.1094 60.9756 38.3223ZM69.3691 44V34.4551H71.5488V36.0371H71.6543C71.9971 34.9385 72.9111 34.3145 74.0098 34.3145C74.2559 34.3145 74.6074 34.3408 74.8184 34.3672V36.4414C74.6162 36.3711 74.1504 36.3096 73.7812 36.3008C72.5332 36.3096 71.6191 37.1709 71.6191 38.375V44H69.3691ZM78.4043 31.2734V44H76.1543V31.2734H78.4043ZM80.5488 44V34.4551H82.7988V44H80.5488ZM80.3906 31.8711C80.3906 31.2031 80.9795 30.6582 81.6914 30.6582C82.4033 30.6582 82.9922 31.2031 82.9922 31.8711C82.9922 32.5479 82.4033 33.0928 81.6914 33.1016C80.9795 33.0928 80.3906 32.5479 80.3906 31.8711ZM87.1934 38.4102V44H84.9434V34.4551H87.0879V36.0723H87.2109C87.6416 35.0088 88.6172 34.332 90.041 34.332C92.0186 34.332 93.3193 35.6328 93.3105 37.918V44H91.0781V38.2695C91.0781 36.9863 90.3838 36.2217 89.2148 36.2305C88.0283 36.2217 87.1934 37.0215 87.1934 38.4102ZM99.6914 44.1934C96.8174 44.1934 95.0508 42.2773 95.0508 39.2891C95.0508 36.3359 96.8438 34.332 99.5684 34.332C101.906 34.332 103.928 35.7998 103.928 39.1484V39.8516H97.2656C97.3008 41.4775 98.2588 42.4443 99.709 42.4355C100.693 42.4443 101.353 42.0225 101.643 41.4512H103.84C103.436 43.1035 101.906 44.1934 99.6914 44.1934ZM97.2744 38.3223H101.783C101.774 37.0215 100.896 36.0723 99.6035 36.0723C98.2588 36.0723 97.3535 37.1094 97.2744 38.3223Z" fill="#262626"/>
<path d="M36.3926 74.2578V75.21H31.0166V76.6016C33.4702 76.7114 34.9277 77.5098 34.9424 78.8867C34.9277 80.3442 33.2505 81.1572 30.46 81.1572C27.6328 81.1572 25.9556 80.3442 25.9629 78.8867C25.9556 77.5098 27.4058 76.7114 29.8887 76.6016V75.21H24.5273V74.2578H36.3926ZM25.2012 72.5586C27.457 72.3242 29.6323 71.1743 29.7129 69.7168H25.6113V68.7793H35.3379V69.7168H31.207C31.2876 71.1743 33.4409 72.3242 35.7334 72.5586L35.3086 73.4668C33.1772 73.2104 31.1777 72.251 30.46 70.8081C29.7422 72.251 27.7573 73.2104 25.6113 73.4668L25.2012 72.5586ZM27.1348 78.8867C27.1201 79.751 28.3726 80.271 30.46 80.2637C32.5254 80.271 33.7778 79.751 33.7852 78.8867C33.7778 78.0005 32.5254 77.4951 30.46 77.4805C28.3726 77.4951 27.1201 78.0005 27.1348 78.8867ZM49.415 78.5498V79.5166H37.4912V78.5498H40.4502V75.0415C39.3369 74.4629 38.6631 73.5254 38.6631 72.3389C38.6631 70.3247 40.6406 68.999 43.4238 68.9844C46.207 68.999 48.1846 70.3247 48.1846 72.3389C48.1846 73.5034 47.5327 74.4263 46.4561 75.0049V78.5498H49.415ZM39.7764 72.3389C39.769 73.7964 41.2852 74.7705 43.4238 74.7705C45.5405 74.7705 47.0713 73.7964 47.0713 72.3389C47.0713 70.8813 45.5405 69.9219 43.4238 69.9365C41.2852 69.9219 39.769 70.8813 39.7764 72.3389ZM41.5781 78.5498H45.2988V75.4517C44.7349 75.5981 44.105 75.6787 43.4238 75.6787C42.7573 75.6787 42.1348 75.6055 41.5781 75.459V78.5498ZM60.6357 68.1787V72.4707H62.5986V73.4375H60.6357V77.9346H59.4932V68.1787H60.6357ZM50.4844 70.7129V69.7754H53.7949V68.1787H54.9375V69.7754H58.248V70.7129H50.4844ZM51.2314 73.8623C51.2241 72.3828 52.4839 71.4307 54.3662 71.4307C56.2266 71.4307 57.4863 72.3828 57.501 73.8623C57.4863 75.3271 56.2266 76.272 54.3662 76.2646C52.4839 76.272 51.2241 75.3271 51.2314 73.8623ZM52.3301 73.8623C52.3228 74.7778 53.1357 75.3711 54.3662 75.3564C55.582 75.3711 56.4023 74.7778 56.417 73.8623C56.4023 72.9321 55.582 72.3315 54.3662 72.3389C53.1357 72.3315 52.3228 72.9321 52.3301 73.8623ZM52.4912 80.9082V77.1582H53.6191V79.9414H61.2363V80.9082H52.4912ZM77.3643 68.1641V72.0459H79.3418V73.0127H77.3643V77.5977H76.2217V68.1641H77.3643ZM67.7988 75.2832V69.292H73.5996V70.2588H68.9414V74.3164C71.5562 74.3237 73.043 74.2432 74.7861 73.8916L74.9326 74.8438C73.1016 75.1953 71.5488 75.2832 68.8096 75.2832H67.7988ZM69.2197 80.9082V76.6455H70.3477V79.9414H77.9648V80.9082H69.2197ZM83.6484 69.1748C85.4209 69.1821 86.7026 70.7056 86.8784 73.1445H89.8008V68.1641H90.9434V81.2158H89.8008V74.0967H86.8931C86.7686 76.6528 85.4648 78.2495 83.6484 78.2422C81.7222 78.2495 80.3745 76.4917 80.3818 73.7158C80.3745 70.9473 81.7222 69.1821 83.6484 69.1748ZM81.4805 73.7158C81.4878 75.8325 82.3667 77.2241 83.6484 77.2168C84.9229 77.2241 85.8164 75.8325 85.8164 73.7158C85.8164 71.5991 84.9229 70.2075 83.6484 70.2002C82.3667 70.2075 81.4878 71.5991 81.4805 73.7158ZM104.273 68.1641V81.1865H103.16V68.1641H104.273ZM93.2725 73.7891C93.2798 71.0205 94.3784 69.27 96.0703 69.2627C97.6523 69.27 98.7217 70.7935 98.8682 73.2471H100.553V68.4424H101.651V80.5273H100.553V74.1992H98.8755C98.7656 76.7334 97.6743 78.3228 96.0703 78.3154C94.3784 78.3228 93.2798 76.5576 93.2725 73.7891ZM94.3564 73.7891C94.3418 75.8984 95.0156 77.2314 96.0703 77.2168C97.1323 77.2314 97.8062 75.8984 97.7988 73.7891C97.8062 71.6724 97.1323 70.3467 96.0703 70.3467C95.0156 70.3467 94.3418 71.6724 94.3564 73.7891ZM116.607 72.1191V73.042H107.687V68.6475H108.829V72.1191H116.607ZM106.061 75.752V74.8145H117.984V75.752H106.061ZM107.613 80.8643V77.085H108.756V79.9121H116.681V80.8643H107.613ZM133.6 68.1787V77.7734H132.442V72.749H129.718C129.461 74.353 128.114 75.4443 126.393 75.4443C124.444 75.4443 123.001 74.104 123.009 72.2217C123.001 70.332 124.444 69.021 126.393 69.0137C128.15 69.021 129.52 70.1416 129.732 71.7969H132.442V68.1787H133.6ZM124.107 72.2217C124.107 73.5181 125.082 74.4336 126.393 74.4482C127.674 74.4336 128.648 73.5181 128.648 72.2217C128.648 70.9326 127.674 70.0317 126.393 70.0244C125.082 70.0317 124.107 70.9326 124.107 72.2217ZM125.235 80.9082V76.792H126.393V79.9414H133.966V80.9082H125.235ZM142.403 69.4092V70.376H137.584V77.0117C139.935 77.019 141.48 76.9385 143.282 76.5869L143.429 77.5391C141.51 77.9053 139.92 77.9932 137.423 77.9932H136.427V69.4092H142.403ZM141.627 73.8623V72.9102H145.421V68.1641H146.578V81.2158H145.421V73.8623H141.627ZM158.81 68.1641V73.3496H160.992V74.3164H158.81V81.2158H157.667V68.1641H158.81ZM149.244 70.332V69.3799H155.162V74.0381H150.416V77.085C152.833 77.0923 154.525 76.9971 156.495 76.6309L156.612 77.583C154.562 77.9565 152.826 78.0518 150.313 78.0664H149.273V73.0859H154.02V70.332H149.244ZM172.447 68.1787V77.7002H171.305V68.1787H172.447ZM162.003 72.2803C161.996 70.4053 163.468 69.0942 165.416 69.0869C167.364 69.0942 168.822 70.4053 168.829 72.2803C168.822 74.1772 167.364 75.4956 165.416 75.4883C163.468 75.4956 161.996 74.1772 162.003 72.2803ZM163.131 72.2803C163.116 73.5767 164.098 74.4775 165.416 74.4775C166.712 74.4775 167.701 73.5767 167.701 72.2803C167.701 71.0059 166.712 70.0977 165.416 70.0977C164.098 70.0977 163.116 71.0059 163.131 72.2803ZM164.039 80.9082V76.7334H165.182V79.9414H172.857V80.9082H164.039ZM180.592 68.3984C183.485 68.3984 185.184 69.1968 185.191 70.6396C185.184 72.1191 183.485 72.9175 180.592 72.9248C177.684 72.9175 175.978 72.1191 175.978 70.6396C175.978 69.1968 177.684 68.3984 180.592 68.3984ZM174.659 74.7412V73.8037H186.524V74.7412H174.659ZM176.095 76.748V75.8691H185.001V78.7842H177.267V80.1318H185.396V81.04H176.124V77.9346H183.873V76.748H176.095ZM177.179 70.6396C177.164 71.5479 178.431 72.0459 180.592 72.0459C182.752 72.0459 184.012 71.5479 184.02 70.6396C184.012 69.7827 182.752 69.27 180.592 69.2627C178.431 69.27 177.164 69.7827 177.179 70.6396ZM203.253 75.0781V76.0156H191.373V75.0781H196.734V73.7891H192.955V68.5449H201.773V69.4824H194.112V70.6982H201.422V71.5771H194.112V72.8662H201.847V73.7891H197.877V75.0781H203.253ZM192.823 79.0771C192.816 77.7222 194.435 76.9824 197.32 76.9971C200.177 76.9824 201.788 77.7222 201.803 79.0771C201.788 80.4468 200.177 81.1572 197.32 81.1572C194.435 81.1572 192.816 80.4468 192.823 79.0771ZM193.98 79.0771C193.966 79.8682 195.167 80.2783 197.32 80.2637C199.452 80.2783 200.638 79.8682 200.646 79.0771C200.638 78.3008 199.452 77.8687 197.32 77.8613C195.167 77.8687 193.966 78.3008 193.98 79.0771ZM210.855 70.4199V71.3574H204.322V70.4199H207.032V68.5596H208.175V70.4199H210.855ZM204.791 75.1953C204.791 73.4668 205.97 72.2437 207.589 72.2363C209.229 72.2437 210.401 73.4668 210.416 75.1953C210.401 76.9458 209.229 78.1763 207.589 78.1836C205.97 78.1763 204.791 76.9458 204.791 75.1953ZM205.816 75.1953C205.816 76.3525 206.556 77.1802 207.589 77.1729C208.629 77.1802 209.391 76.3525 209.391 75.1953C209.391 74.0527 208.629 73.2178 207.589 73.2031C206.556 73.2178 205.816 74.0527 205.816 75.1953ZM211.529 80.542V68.4863H212.613V73.6572H214.342V68.1641H215.44V81.1865H214.342V74.6094H212.613V80.542H211.529ZM231.261 68.1641V71.5625H233.224V72.5146H231.261V75.9863H230.118V68.1641H231.261ZM221.095 75.0635C224.237 74.1553 226.244 72.3462 226.478 70.083H221.666V69.1309H227.716C227.708 72.4487 225.372 74.8804 221.578 76.001L221.095 75.0635ZM222.882 78.6377C222.875 77.0776 224.552 76.1255 227.145 76.1328C229.759 76.1255 231.407 77.0776 231.407 78.6377C231.407 80.2197 229.759 81.1572 227.145 81.1572C224.552 81.1572 222.875 80.2197 222.882 78.6377ZM224.024 78.6377C224.01 79.6191 225.233 80.2417 227.145 80.2344C229.056 80.2417 230.294 79.6191 230.294 78.6377C230.294 77.6562 229.056 77.0483 227.145 77.0557C225.233 77.0483 224.01 77.6562 224.024 78.6377ZM245.968 78.5498V79.5166H234.044V78.5498H239.42V75.3857H240.577V78.5498H245.968ZM234.63 74.917C236.834 74.5435 239.391 72.7197 239.391 70.6396V70.3174H235.025V69.3506H244.942V70.3174H240.577V70.6396C240.584 72.7197 243.148 74.5068 245.396 74.873L244.928 75.7812C242.936 75.3857 240.833 74.1187 239.999 72.3169C239.164 74.1406 237.069 75.437 235.113 75.8398L234.63 74.917ZM258.917 74.2139V75.1221H246.993V74.2139H258.917ZM248.429 77.0264V76.1621H257.423V78.9307H249.601V80.1758H257.848V81.0107H248.443V78.1396H256.28V77.0264H248.429ZM248.502 69.3945V68.5596H257.379V71.2549H249.688V72.3975H257.613V73.2324H248.546V70.4639H256.222V69.3945H248.502ZM275.602 73.6133V74.5508H270.226V75.8691H274.078V78.8281H266.344V80.1318H274.474V81.04H265.201V77.9785H272.95V76.748H265.172V75.8691H269.098V74.5508H263.736V73.6133H275.602ZM264.381 72.0898C266.659 71.8848 268.827 70.896 269.01 69.541H264.82V68.6328H274.547V69.541H270.335C270.504 70.8887 272.679 71.8848 274.972 72.0898L274.591 72.9688C272.459 72.749 270.453 71.9214 269.669 70.603C268.893 71.9214 266.893 72.749 264.762 72.9688L264.381 72.0898ZM31.0605 92.3799C31.0679 94.2183 33.4556 95.8003 35.8066 96.1299L35.3379 97.0674C33.3164 96.7305 31.3096 95.6099 30.4746 94.0132C29.6396 95.6245 27.6401 96.7305 25.6113 97.0674L25.1426 96.1299C27.4937 95.8003 29.874 94.2476 29.874 92.3799V91.6328H31.0605V92.3799ZM24.5273 99.4697V98.5029H36.3926V99.4697H31.002V104.187H29.874V99.4697H24.5273ZM45.665 99.9092C45.6577 101.059 46.2803 102.282 47.5181 102.985C48.7632 102.216 49.4224 100.913 49.415 99.9092V99.1914H50.543V99.9092C50.5356 101.25 51.5244 102.583 53.1943 103.161L52.623 104.011C51.3193 103.549 50.4111 102.641 49.957 101.55C49.5542 102.604 48.7559 103.608 47.5547 104.113C46.2876 103.63 45.4819 102.678 45.0938 101.586C44.625 102.634 43.7314 103.542 42.4863 104.011L41.9004 103.161C43.5483 102.546 44.5371 101.154 44.5518 99.9092V99.1914H45.665V99.9092ZM41.5635 94.9873C41.5562 93.1709 42.999 91.9331 44.9766 91.9404C46.9541 91.9331 48.3823 93.1709 48.3896 94.9873C48.3823 96.7744 46.9541 98.0049 44.9766 98.0049C42.999 98.0049 41.5562 96.7744 41.5635 94.9873ZM42.6914 94.9873C42.6768 96.1958 43.6362 97.0454 44.9766 97.0527C46.3022 97.0454 47.2617 96.1958 47.2617 94.9873C47.2617 93.7715 46.3022 92.9072 44.9766 92.9219C43.6362 92.9072 42.6768 93.7715 42.6914 94.9873ZM50.8652 98.6201V91.1787H52.0078V98.6201H50.8652ZM57.7207 92.1748C59.4932 92.1821 60.7749 93.7056 60.9507 96.1445H63.873V91.1641H65.0156V104.216H63.873V97.0967H60.9653C60.8408 99.6528 59.5371 101.25 57.7207 101.242C55.7944 101.25 54.4468 99.4917 54.4541 96.7158C54.4468 93.9473 55.7944 92.1821 57.7207 92.1748ZM55.5527 96.7158C55.5601 98.8325 56.439 100.224 57.7207 100.217C58.9951 100.224 59.8887 98.8325 59.8887 96.7158C59.8887 94.5991 58.9951 93.2075 57.7207 93.2002C56.439 93.2075 55.5601 94.5991 55.5527 96.7158ZM79.1074 101.55V102.517H67.1836V101.55H70.1426V98.0415C69.0293 97.4629 68.3555 96.5254 68.3555 95.3389C68.3555 93.3247 70.333 91.999 73.1162 91.9844C75.8994 91.999 77.877 93.3247 77.877 95.3389C77.877 96.5034 77.2251 97.4263 76.1484 98.0049V101.55H79.1074ZM69.4688 95.3389C69.4614 96.7964 70.9775 97.7705 73.1162 97.7705C75.2329 97.7705 76.7637 96.7964 76.7637 95.3389C76.7637 93.8813 75.2329 92.9219 73.1162 92.9365C70.9775 92.9219 69.4614 93.8813 69.4688 95.3389ZM71.2705 101.55H74.9912V98.4517C74.4272 98.5981 73.7974 98.6787 73.1162 98.6787C72.4497 98.6787 71.8271 98.6055 71.2705 98.459V101.55ZM81.5244 103.088C81.0117 103.081 80.5723 102.656 80.5869 102.136C80.5723 101.623 81.0117 101.198 81.5244 101.198C82.0444 101.198 82.4692 101.623 82.4619 102.136C82.4692 102.656 82.0444 103.081 81.5244 103.088Z" fill="#3E3F41"/>
<path d="M131.969 35.25C131.641 33.6875 130.305 32.8438 128.812 32.8438C126.766 32.8438 125.18 34.4219 125.172 37.3438C125.18 40.2578 126.766 41.8359 128.812 41.8438C130.305 41.8359 131.633 41 131.969 39.4531H133.375C132.969 41.7656 131.109 43.1562 128.812 43.1562C125.906 43.1562 123.805 40.9219 123.812 37.3438C123.805 33.7656 125.906 31.5312 128.812 31.5312C131.102 31.5312 132.953 32.8984 133.375 35.25H131.969ZM138.875 34.5156V35.6406H137.094V40.5625C137.086 41.6484 137.633 41.8281 138.203 41.8281C138.445 41.8281 138.805 41.8047 139 41.7969V43.0469C138.789 43.0781 138.461 43.1094 138.062 43.1094C136.93 43.1094 135.742 42.4062 135.734 40.9062V35.6406H134.453V34.5156H135.734V32.4844H137.094V34.5156H138.875ZM140.609 43V34.5156H141.906V35.8125H142C142.305 34.9531 143.188 34.3828 144.188 34.375C144.391 34.3828 144.734 34.3906 144.891 34.4062V35.7656C144.789 35.7422 144.43 35.6719 144.078 35.6719C142.859 35.6719 141.953 36.5156 141.953 37.6562V43H140.609ZM147.547 31.6875V43H146.203V31.6875H147.547ZM157 42.2344V39.2031H153.984V37.9375H157V34.9219H158.266V37.9375H161.297V39.2031H158.266V42.2344H157ZM173.109 39.5156V34.5156H174.438V43H173.109V41.5625H173.016C172.617 42.4219 171.773 43.1094 170.5 43.1094C168.891 43.1094 167.742 42.0625 167.75 39.9062V34.5156H169.094V39.8125C169.094 41.0312 169.852 41.8203 170.938 41.8125C171.898 41.8203 173.102 41.1016 173.109 39.5156Z" fill="#6B6E72"/>
<path d="M331.154 49.9805V64.9213C331.154 66.6825 331.794 68.3715 332.934 69.6168C334.073 70.8621 335.619 71.5617 337.23 71.5617C338.842 71.5617 340.387 70.8621 341.527 69.6168C342.666 68.3715 343.306 66.6825 343.306 64.9213V49.9805H346.344V64.9213C346.344 67.5631 345.384 70.0966 343.675 71.9645C341.966 73.8325 339.648 74.8819 337.23 74.8819C334.813 74.8819 332.495 73.8325 330.786 71.9645C329.076 70.0966 328.116 67.5631 328.116 64.9213V49.9805H331.154ZM325.078 78.2021H349.382V81.5223H325.078V78.2021Z" fill="#1A1B1C"/>
<rect x="311" y="39" width="52" height="52" rx="5" fill="#EDFAFA"/>
<path d="M331.154 49.9805V64.9213C331.154 66.6825 331.794 68.3715 332.934 69.6168C334.073 70.8621 335.619 71.5617 337.23 71.5617C338.842 71.5617 340.387 70.8621 341.527 69.6168C342.666 68.3715 343.306 66.6825 343.306 64.9213V49.9805H346.344V64.9213C346.344 67.5631 345.384 70.0966 343.675 71.9645C341.966 73.8325 339.648 74.8819 337.23 74.8819C334.813 74.8819 332.495 73.8325 330.786 71.9645C329.076 70.0966 328.116 67.5631 328.116 64.9213V49.9805H331.154ZM325.078 78.2021H349.382V81.5223H325.078V78.2021Z" fill="#1A1B1C"/>
</svg>
