<svg width="38" height="36" viewBox="0 0 38 36" fill="none" xmlns="http://www.w3.org/2000/svg">
<path d="M18.6562 23.8945H22.0244" stroke="#29B8B5" stroke-width="1.60754" stroke-linecap="round"/>
<path d="M6.87109 8.73438H16.9756" stroke="#29B8B5" stroke-width="1.60754" stroke-linecap="round"/>
<path d="M6.87109 14.6328H15.2915" stroke="#29B8B5" stroke-width="1.60754" stroke-linecap="round"/>
<path d="M6.87109 20.5234H15.2915" stroke="#29B8B5" stroke-width="1.60754" stroke-linecap="round"/>
<path d="M6.87109 27.2617H10.2393" stroke="#29B8B5" stroke-width="1.60754" stroke-linecap="round"/>
<path d="M15.293 27.2617L20.3452 27.2617" stroke="#29B8B5" stroke-width="1.60754" stroke-linecap="round"/>
<path d="M13.858 28.5455L20.2725 21.9424C20.564 21.6423 20.727 21.2405 20.727 20.8222V14.085C20.727 13.6897 20.4065 13.3692 20.0112 13.3692C19.6159 13.3692 19.2954 13.0488 19.2954 12.6535V11.8956C19.2954 11.0817 19.9552 10.4219 20.7691 10.4219H24.9796C25.7935 10.4219 26.4533 11.0817 26.4533 11.8956V12.6535C26.4533 13.0488 26.1329 13.3692 25.7375 13.3692C25.3422 13.3692 25.0218 13.6897 25.0218 14.085V20.8222C25.0218 21.2405 25.1848 21.6423 25.4762 21.9424L31.8908 28.5455C33.871 30.584 32.4266 34.0008 29.5846 34.0008H16.1641C13.3222 34.0008 11.8778 30.584 13.858 28.5455Z" stroke="#29B8B5" stroke-width="2.0898" stroke-linecap="round"/>
<path d="M10.2375 34H3.42394C2.53612 34 1.81641 33.2803 1.81641 32.3925V3.60754C1.81641 2.71972 2.53612 2 3.42394 2L23.7878 2C24.6756 2 25.3953 2.71972 25.3953 3.60754V5.36842" stroke="#29B8B5" stroke-width="2.0898" stroke-linecap="round"/>
</svg>
