<svg width="868" height="128" viewBox="0 0 868 128" fill="none" xmlns="http://www.w3.org/2000/svg">
<g filter="url(#filter0_d_718_15929)">
<path d="M9 18C9 12.4771 13.4772 8 19 8H849C854.523 8 859 12.4772 859 18V108C859 113.523 854.523 118 849 118H19C13.4772 118 9 113.523 9 108V18Z" fill="white"/>
<path d="M145.603 35.0744H149.191C149.72 35.0744 150.227 34.8459 150.601 34.439C150.975 34.0322 151.185 33.4804 151.185 32.905C151.185 32.3296 150.975 31.7778 150.601 31.371C150.227 30.9641 149.72 30.7356 149.191 30.7356H145.603V35.0744ZM153.578 38.9794C153.578 39.4923 153.485 40.0001 153.304 40.4738C153.124 40.9476 152.86 41.3781 152.527 41.7407C152.193 42.1033 151.798 42.391 151.362 42.5872C150.927 42.7834 150.46 42.8845 149.989 42.8845H144.008V35.9422V29H149.191C149.894 29 150.581 29.2245 151.168 29.6454C151.754 30.0664 152.214 30.6654 152.49 31.3682C152.767 32.071 152.848 32.8467 152.723 33.599C152.598 34.3513 152.273 35.0471 151.788 35.6003C152.332 35.9434 152.784 36.4361 153.099 37.0292C153.413 37.6223 153.578 38.2949 153.578 38.9794ZM145.603 36.81V41.1489H149.989C150.518 41.1489 151.025 40.9203 151.399 40.5135C151.773 40.1066 151.983 39.5548 151.983 38.9794C151.983 38.4041 151.773 37.8523 151.399 37.4454C151.025 37.0386 150.518 36.81 149.989 36.81H145.603Z" fill="#262626"/>
<path d="M197.325 42.2808H190.945V40.6207H193.28L194.967 30.6601H192.54V29H198.92V30.6601H196.586L194.898 40.6207H197.325V42.2808Z" fill="#262626"/>
<path d="M245.194 37.3005C245.377 37.7288 245.47 38.2052 245.47 38.7282C245.47 39.8421 245.052 40.7136 244.217 41.3403C243.38 41.967 242.226 42.2808 240.753 42.2808C239.446 42.2808 238.151 41.9645 236.87 41.3312V39.4586C238.082 40.1866 239.322 40.551 240.591 40.551C242.625 40.551 243.645 39.9434 243.652 38.7273C243.657 38.4808 243.613 38.2359 243.524 38.0073C243.435 37.7787 243.303 37.571 243.136 37.3968L243.04 37.2997H233.906V35.6396H248.261V37.2997L245.194 37.3005ZM241.942 34.8103H237.598C237.458 34.6778 237.33 34.5328 237.214 34.3771C236.87 33.9139 236.697 33.3544 236.697 32.6954C236.697 31.6694 237.069 30.7971 237.812 30.0782C238.556 29.3594 239.705 29 241.261 29C242.434 29 243.557 29.2723 244.628 29.8168V31.603C243.671 31.0328 242.622 30.7481 241.481 30.7481C239.503 30.7481 238.515 31.3972 238.515 32.6954C238.515 33.044 238.689 33.3478 239.036 33.6076C239.384 33.8674 239.813 34.0741 240.323 34.2301C240.817 34.3795 241.357 34.5738 241.942 34.8103Z" fill="#262626"/>
<path d="M99.3176 28C99.7371 28 100.077 28.34 100.077 28.7595V35.4704C100.077 36.351 100.397 37.1955 100.967 37.8182C101.537 38.4408 102.309 38.7906 103.115 38.7906C103.921 38.7906 104.694 38.4408 105.263 37.8182C105.833 37.1955 106.153 36.351 106.153 35.4704V28.7595C106.153 28.34 106.493 28 106.913 28C107.332 28 107.672 28.34 107.672 28.7595V35.4704C107.672 36.7913 107.192 38.0581 106.337 38.992C105.483 39.926 104.324 40.4507 103.115 40.4507C101.907 40.4507 100.747 39.926 99.8928 38.992C99.0382 38.0581 98.5581 36.7913 98.5581 35.4704V28.7595C98.5581 28.34 98.8981 28 99.3176 28ZM97.0391 42.9409C97.0391 42.4825 97.4107 42.1108 97.8691 42.1108H108.361C108.82 42.1108 109.191 42.4825 109.191 42.9409C109.191 43.3993 108.82 43.7709 108.361 43.7709H97.8691C97.4107 43.7709 97.0391 43.3993 97.0391 42.9409Z" fill="#262626"/>
<path d="M100.077 28V35.4704C100.077 36.351 100.397 37.1955 100.967 37.8182C101.537 38.4408 102.309 38.7906 103.115 38.7906C103.921 38.7906 104.694 38.4408 105.263 37.8182C105.833 37.1955 106.153 36.351 106.153 35.4704V28H107.672V35.4704C107.672 36.7913 107.192 38.0581 106.337 38.992C105.483 39.926 104.324 40.4507 103.115 40.4507C101.907 40.4507 100.747 39.926 99.8928 38.992C99.0382 38.0581 98.5581 36.7913 98.5581 35.4704V28H100.077ZM97.0391 42.1108H109.191V43.7709H97.0391V42.1108Z" fill="#262626"/>
<path d="M293.954 37.5078V39.8848H296.233V41.4694H293.954V43.8464H292.435V41.4694H290.157V39.8848H292.435V37.5078H293.954ZM293.96 28C294.376 28 294.714 28.3526 294.714 28.7868V35.9232H293.195V29.5846H281.042V40.6763L288.638 32.7539L290.916 35.1309V37.3723L288.638 34.9954L283.19 40.6771H288.638V42.2617H280.277C280.077 42.2615 279.885 42.1786 279.744 42.031C279.603 41.8835 279.523 41.6835 279.523 41.475V35.1309V28.7868C279.525 28.5787 279.605 28.3795 279.746 28.2323C279.887 28.0851 280.077 28.0017 280.277 28H293.96ZM284.08 31.1693C284.483 31.1693 284.87 31.3362 285.155 31.6334C285.439 31.9306 285.6 32.3336 285.6 32.7539C285.6 33.1742 285.439 33.5772 285.155 33.8744C284.87 34.1716 284.483 34.3386 284.08 34.3386C283.678 34.3386 283.291 34.1716 283.006 33.8744C282.722 33.5772 282.561 33.1742 282.561 32.7539C282.561 32.3336 282.722 31.9306 283.006 31.6334C283.291 31.3362 283.678 31.1693 284.08 31.1693Z" fill="#262626"/>
<path d="M42.5244 35.6826V36.9863H37.4121V39.418H35.8008V36.9863H30.4248V35.6826H42.5244ZM31.8896 42.04V38.2021H33.5156V40.7217H41.1914V42.04H31.8896ZM31.9629 34.4521V29.6621H40.9717V34.4521H31.9629ZM33.5449 33.1777H39.3604V30.9365H33.5449V33.1777ZM54.7998 29.0615V42.3037H53.2471V29.0615H54.7998ZM43.1689 38.5391C45.0806 37.3745 45.9229 34.9868 45.9229 32.6797V31.8008H43.623V30.4824H49.6289V31.8008H47.4902V32.6797C47.4902 34.9136 48.2886 37.1548 50.1855 38.2461L49.2188 39.4473C47.9956 38.7222 47.1826 37.4624 46.7212 35.9536C46.2524 37.5869 45.4102 38.9785 44.165 39.7549L43.1689 38.5391ZM48.6621 34.9941V33.6758H50.5664V29.3105H52.1045V41.6592H50.5664V34.9941H48.6621Z" fill="#24ABA8"/>
<path d="M40.2129 87.8223C40.3223 87.804 40.418 87.7949 40.5 87.7949C40.5911 87.7858 40.6732 87.7767 40.7461 87.7676L40.5273 88.8887C40.2174 88.8704 39.8164 88.8568 39.3242 88.8477C38.8411 88.8385 38.3262 88.834 37.7793 88.834C37.2324 88.8249 36.6855 88.8249 36.1387 88.834C35.6009 88.834 35.1224 88.8385 34.7031 88.8477C34.6849 88.9206 34.6712 88.9889 34.6621 89.0527C34.653 89.1165 34.6393 89.1758 34.6211 89.2305L33.5 89.3809C33.4727 89.2168 33.4362 89.0026 33.3906 88.7383C33.3451 88.4648 33.3132 88.2096 33.2949 87.9727L33.0488 85.6758C33.0397 85.5117 33.0215 85.3841 32.9941 85.293C32.9759 85.2018 32.9349 85.1243 32.8711 85.0605C32.8164 84.9967 32.7253 84.9421 32.5977 84.8965C32.4792 84.8509 32.3151 84.8008 32.1055 84.7461L32.3652 84.1309C32.9668 84.2129 33.6276 84.2676 34.3477 84.2949C35.0677 84.3223 35.7969 84.3314 36.5352 84.3223C37.2734 84.3132 37.998 84.2904 38.709 84.2539C39.4199 84.2174 40.0762 84.1719 40.6777 84.1172C40.6504 84.3451 40.6185 84.6139 40.582 84.9238C40.5456 85.2337 40.5046 85.5573 40.459 85.8945C40.4134 86.2227 40.3678 86.5553 40.3223 86.8926C40.2858 87.2298 40.2493 87.5397 40.2129 87.8223ZM38.9277 85.1562C38.6543 85.1471 38.3171 85.1426 37.916 85.1426C37.5241 85.1335 37.123 85.1335 36.7129 85.1426C36.3027 85.1517 35.9108 85.1654 35.5371 85.1836C35.1634 85.1927 34.8581 85.2064 34.6211 85.2246L34.7715 87.7129C34.7806 87.7858 34.7852 87.8451 34.7852 87.8906C34.7852 87.9362 34.7852 87.9818 34.7852 88.0273C35.0768 88.0182 35.3913 88.0091 35.7285 88C36.0749 87.9909 36.4258 87.9818 36.7812 87.9727C37.1367 87.9544 37.4876 87.9408 37.834 87.9316C38.1803 87.9225 38.513 87.9134 38.832 87.9043L38.9277 85.1562ZM37.9023 91.7051C37.9023 91.86 37.8978 92.0423 37.8887 92.252C37.8796 92.4525 37.8659 92.6576 37.8477 92.8672C37.8294 93.0768 37.8112 93.2865 37.793 93.4961C37.7747 93.6966 37.7565 93.8743 37.7383 94.0293L36.4805 94.2344C36.4622 94.0612 36.444 93.8652 36.4258 93.6465C36.4167 93.4277 36.403 93.209 36.3848 92.9902C36.3757 92.7715 36.3665 92.5664 36.3574 92.375C36.3574 92.1836 36.3574 92.0286 36.3574 91.9102V91.0898C36.002 91.099 35.6465 91.1126 35.291 91.1309C34.9355 91.14 34.6029 91.1491 34.293 91.1582C33.9831 91.1673 33.7051 91.181 33.459 91.1992C33.2129 91.2083 33.0215 91.2174 32.8848 91.2266C32.7207 91.2357 32.5384 91.2493 32.3379 91.2676C32.1465 91.2858 31.9505 91.3086 31.75 91.3359C31.5495 91.3542 31.349 91.377 31.1484 91.4043C30.957 91.4225 30.7839 91.4408 30.6289 91.459L30.082 90.1055C30.4922 90.151 30.957 90.1966 31.4766 90.2422C31.9961 90.2786 32.4609 90.306 32.8711 90.3242C33.0898 90.3333 33.377 90.3379 33.7324 90.3379C34.0879 90.3379 34.4753 90.3379 34.8945 90.3379C35.3229 90.3288 35.765 90.3197 36.2207 90.3105C36.6855 90.2923 37.1276 90.2786 37.5469 90.2695C37.9753 90.2604 38.3672 90.2513 38.7227 90.2422C39.0781 90.224 39.3652 90.2103 39.584 90.2012C39.8848 90.1921 40.1992 90.1738 40.5273 90.1465C40.8555 90.1191 41.179 90.0918 41.498 90.0645C41.8262 90.028 42.1406 89.9915 42.4414 89.9551C42.7422 89.9186 43.0202 89.8822 43.2754 89.8457L43.0566 91.1309C42.8743 91.1217 42.6556 91.1126 42.4004 91.1035C42.1543 91.0944 41.8854 91.0853 41.5938 91.0762C41.3021 91.0671 41.0013 91.0579 40.6914 91.0488C40.3815 91.0397 40.0762 91.0352 39.7754 91.0352C39.5566 91.0352 39.2878 91.0352 38.9688 91.0352C38.6589 91.026 38.3034 91.0306 37.9023 91.0488V91.7051ZM41.416 96.2031C40.86 96.1758 40.2539 96.153 39.5977 96.1348C38.9414 96.1257 38.2897 96.1211 37.6426 96.1211C37.0046 96.1302 36.3939 96.1393 35.8105 96.1484C35.2272 96.1667 34.735 96.1895 34.334 96.2168C33.9603 96.2441 33.696 96.1712 33.541 95.998C33.3952 95.834 33.3223 95.6471 33.3223 95.4375V93.8652C33.3223 93.6738 33.3132 93.5234 33.2949 93.4141C33.2767 93.2956 33.2266 93.1999 33.1445 93.127C33.0716 93.0449 32.9531 92.9766 32.7891 92.9219C32.625 92.8672 32.4017 92.8034 32.1191 92.7305L32.3789 92.1152C32.5156 92.1335 32.6979 92.1562 32.9258 92.1836C33.1628 92.2109 33.4043 92.2428 33.6504 92.2793C33.9056 92.3158 34.1517 92.3522 34.3887 92.3887C34.6257 92.4251 34.8125 92.4525 34.9492 92.4707C34.931 92.5801 34.9128 92.7533 34.8945 92.9902C34.8763 93.2181 34.8672 93.4141 34.8672 93.5781V95C34.8672 95.1549 34.8809 95.2461 34.9082 95.2734C34.9355 95.3008 35.0176 95.319 35.1543 95.3281C35.3822 95.3281 35.6602 95.3236 35.9883 95.3145C36.3255 95.3145 36.6901 95.3053 37.082 95.2871C37.4831 95.278 37.8932 95.2643 38.3125 95.2461C38.7409 95.2279 39.1556 95.2005 39.5566 95.1641C39.9577 95.1367 40.3359 95.1048 40.6914 95.0684C41.056 95.041 41.3659 95.0046 41.6211 94.959L41.416 96.2031ZM51.2188 89.6953C50.8997 89.7227 50.5762 89.7591 50.248 89.8047C49.929 89.8503 49.6875 89.8958 49.5234 89.9414L48.9082 88.793C48.8353 88.9206 48.7533 89.0482 48.6621 89.1758C48.5801 89.2943 48.498 89.4128 48.416 89.5312C48.6257 89.75 48.8581 89.9824 49.1133 90.2285C49.3685 90.4655 49.6191 90.6979 49.8652 90.9258C50.1204 91.1536 50.3574 91.3678 50.5762 91.5684C50.804 91.7598 51 91.9147 51.1641 92.0332L50.043 93.0312C49.7604 92.612 49.4232 92.1517 49.0312 91.6504C48.6484 91.1491 48.2656 90.6842 47.8828 90.2559C47.3997 90.8665 46.862 91.4408 46.2695 91.9785C45.6771 92.5163 45.0345 93.0312 44.3418 93.5234L43.8906 93.0449C44.4284 92.6165 44.9251 92.1517 45.3809 91.6504C45.8457 91.14 46.2559 90.6159 46.6113 90.0781C46.9668 89.5404 47.2721 88.9935 47.5273 88.4375C47.7826 87.8815 47.974 87.3438 48.1016 86.8242C47.8646 86.8333 47.6641 86.8424 47.5 86.8516C47.3451 86.8516 47.1491 86.8607 46.9121 86.8789C46.8118 86.888 46.6751 86.9017 46.502 86.9199C46.3379 86.9382 46.1602 86.9609 45.9688 86.9883C45.7865 87.0065 45.6042 87.0293 45.4219 87.0566C45.2396 87.084 45.0801 87.1113 44.9434 87.1387L44.1504 85.8262C44.278 85.8535 44.4329 85.8854 44.6152 85.9219C44.7975 85.9492 44.9889 85.9766 45.1895 86.0039C45.39 86.0221 45.5859 86.0404 45.7773 86.0586C45.9779 86.0768 46.1556 86.0859 46.3105 86.0859C46.9668 86.0951 47.5456 86.0723 48.0469 86.0176C48.5482 85.9538 49.0632 85.8581 49.5918 85.7305L50.043 86.2227C49.8971 86.6875 49.7285 87.1296 49.5371 87.5488C49.3548 87.9681 49.1452 88.3783 48.9082 88.7793C49.2819 88.8431 49.5964 88.8841 49.8516 88.9023C50.1159 88.9115 50.3574 88.9115 50.5762 88.9023C50.6673 88.8932 50.763 88.8932 50.8633 88.9023C50.9635 88.9023 51.082 88.8978 51.2188 88.8887V85.5938C51.2188 85.4661 51.196 85.3522 51.1504 85.252C51.1139 85.1517 51.041 85.0605 50.9316 84.9785C50.8314 84.8874 50.6901 84.8053 50.5078 84.7324C50.3255 84.6595 50.0931 84.5866 49.8105 84.5137L50.125 83.9258C50.3346 83.9531 50.5625 83.9896 50.8086 84.0352C51.0638 84.0716 51.3145 84.1172 51.5605 84.1719C51.8066 84.2174 52.0436 84.2676 52.2715 84.3223C52.5085 84.3678 52.709 84.4134 52.873 84.459C52.8548 84.541 52.8366 84.6504 52.8184 84.7871C52.8001 84.9147 52.7819 85.0469 52.7637 85.1836C52.7454 85.3112 52.7318 85.4251 52.7227 85.5254C52.7135 85.6257 52.709 85.6803 52.709 85.6895V92.1426C52.709 92.4251 52.6999 92.7487 52.6816 93.1133C52.6725 93.4779 52.6543 93.847 52.627 94.2207C52.6087 94.5853 52.5859 94.9362 52.5586 95.2734C52.5312 95.6107 52.5085 95.8932 52.4902 96.1211L51.3281 96.2715C51.3099 96.0983 51.2962 95.8841 51.2871 95.6289C51.278 95.3828 51.2643 95.1185 51.2461 94.8359C51.237 94.5534 51.2279 94.2663 51.2188 93.9746C51.2188 93.6829 51.2188 93.4049 51.2188 93.1406V89.6953ZM52.3398 83.3379C52.5586 83.3652 52.8001 83.4062 53.0645 83.4609C53.3379 83.5065 53.6068 83.5566 53.8711 83.6113C54.1354 83.6569 54.3906 83.707 54.6367 83.7617C54.8828 83.8073 55.0879 83.8483 55.252 83.8848C55.2428 83.9668 55.2292 84.0762 55.2109 84.2129C55.2018 84.3496 55.1927 84.4818 55.1836 84.6094C55.1745 84.737 55.1654 84.8555 55.1562 84.9648C55.1471 85.0651 55.1426 85.1198 55.1426 85.1289V92.6348C55.1426 92.9173 55.1335 93.2409 55.1152 93.6055C55.1061 93.9609 55.0879 94.3255 55.0605 94.6992C55.0423 95.0638 55.015 95.4147 54.9785 95.752C54.9512 96.0892 54.9193 96.3717 54.8828 96.5996L53.6934 96.7637C53.6751 96.5905 53.6615 96.3763 53.6523 96.1211C53.6432 95.875 53.6341 95.6061 53.625 95.3145C53.6159 95.0319 53.6068 94.7448 53.5977 94.4531C53.5977 94.1615 53.5977 93.8835 53.5977 93.6191V85.0742C53.5977 84.8099 53.4928 84.5911 53.2832 84.418C53.0736 84.2448 52.6725 84.0853 52.0801 83.9395L52.3398 83.3379ZM65.5195 85.8125C65.5286 85.6393 65.5286 85.4753 65.5195 85.3203C65.5195 85.1562 65.5241 84.9876 65.5332 84.8145C65.4512 84.8145 65.36 84.8145 65.2598 84.8145C65.1686 84.8053 65.0638 84.8008 64.9453 84.8008C64.681 84.8008 64.3939 84.8053 64.084 84.8145C63.7741 84.8236 63.4642 84.8372 63.1543 84.8555C62.8444 84.8737 62.5482 84.8919 62.2656 84.9102C61.9831 84.9284 61.7461 84.9421 61.5547 84.9512C61.4727 84.9603 61.3451 84.974 61.1719 84.9922C61.0078 85.0013 60.8255 85.015 60.625 85.0332C60.4245 85.0514 60.2194 85.0742 60.0098 85.1016C59.8092 85.1198 59.627 85.1426 59.4629 85.1699C59.3444 84.9603 59.2214 84.7507 59.0938 84.541C58.9753 84.3223 58.8568 84.1081 58.7383 83.8984C58.9388 83.944 59.1803 83.9805 59.4629 84.0078C59.7454 84.0352 60.028 84.0579 60.3105 84.0762C60.5931 84.0944 60.8574 84.1081 61.1035 84.1172C61.3496 84.1263 61.541 84.1309 61.6777 84.1309C62.0697 84.1309 62.5163 84.1263 63.0176 84.1172C63.528 84.1081 64.0384 84.0944 64.5488 84.0762C65.0684 84.0579 65.5697 84.0352 66.0527 84.0078C66.5449 83.9805 66.9733 83.9486 67.3379 83.9121C67.3379 83.985 67.3242 84.1035 67.2969 84.2676C67.2695 84.4225 67.2376 84.5957 67.2012 84.7871C67.1738 84.9694 67.1419 85.1517 67.1055 85.334C67.069 85.5072 67.0417 85.6393 67.0234 85.7305C67.069 85.7214 67.1146 85.7168 67.1602 85.7168C67.2057 85.7168 67.2513 85.7122 67.2969 85.7031C67.2786 85.8672 67.2559 86.0358 67.2285 86.209C67.2103 86.3822 67.1921 86.5553 67.1738 86.7285C66.791 86.7103 66.3809 86.7012 65.9434 86.7012C65.5059 86.6921 65.0638 86.6875 64.6172 86.6875C64.2526 86.6875 63.8971 86.6921 63.5508 86.7012C63.2044 86.7012 62.8809 86.7057 62.5801 86.7148C62.2884 86.7148 62.0241 86.7194 61.7871 86.7285C61.5592 86.7285 61.377 86.7331 61.2402 86.7422V87.6035C61.2402 87.7129 61.2493 87.7812 61.2676 87.8086C61.2858 87.8359 61.3496 87.8496 61.459 87.8496C61.7962 87.8496 62.2383 87.8405 62.7852 87.8223C63.3411 87.804 63.9199 87.7767 64.5215 87.7402C65.1322 87.7038 65.7246 87.6582 66.2988 87.6035C66.8822 87.5488 67.3698 87.4896 67.7617 87.4258C67.7161 87.6354 67.6706 87.8451 67.625 88.0547C67.5885 88.2552 67.5475 88.4603 67.502 88.6699C67.1374 88.6517 66.7363 88.6426 66.2988 88.6426C65.8613 88.6335 65.4056 88.6289 64.9316 88.6289C64.5215 88.6289 64.1113 88.6335 63.7012 88.6426C63.291 88.6517 62.8945 88.6654 62.5117 88.6836C62.1289 88.6927 61.7689 88.7018 61.4316 88.7109C61.1035 88.7201 60.8164 88.7246 60.5703 88.7246C60.2513 88.7246 60.0189 88.6426 59.873 88.4785C59.7363 88.3145 59.668 88.123 59.668 87.9043V87.3164C59.668 87.1523 59.6543 87.0202 59.627 86.9199C59.6087 86.8197 59.5632 86.7376 59.4902 86.6738C59.4264 86.6009 59.3307 86.5371 59.2031 86.4824C59.0755 86.4277 58.9023 86.3685 58.6836 86.3047C58.7292 86.2135 58.7702 86.127 58.8066 86.0449C58.8522 85.9629 58.8978 85.8763 58.9434 85.7852C59.3444 85.8307 59.7819 85.8672 60.2559 85.8945C60.7298 85.9128 61.222 85.9219 61.7324 85.9219C62.3887 85.9219 63.0404 85.9128 63.6875 85.8945C64.3438 85.8672 64.9544 85.8398 65.5195 85.8125ZM65.5879 93.332C65.597 93.1315 65.6016 92.9401 65.6016 92.7578C65.6107 92.5664 65.6198 92.375 65.6289 92.1836C65.5469 92.1836 65.4557 92.1836 65.3555 92.1836C65.2552 92.1745 65.1504 92.1699 65.041 92.1699C64.804 92.1699 64.5443 92.1745 64.2617 92.1836C63.9792 92.1927 63.6966 92.2064 63.4141 92.2246C63.1315 92.2337 62.8581 92.2474 62.5938 92.2656C62.3294 92.2747 62.1016 92.2839 61.9102 92.293C61.8281 92.3021 61.7005 92.3158 61.5273 92.334C61.3633 92.3431 61.181 92.3568 60.9805 92.375C60.7799 92.3932 60.5794 92.4206 60.3789 92.457C60.1784 92.4844 59.9961 92.5163 59.832 92.5527C59.7135 92.3431 59.5905 92.1335 59.4629 91.9238C59.3444 91.7142 59.2259 91.5091 59.1074 91.3086C59.2624 91.3542 59.4766 91.3906 59.75 91.418C60.0234 91.4362 60.3014 91.4544 60.584 91.4727C60.8665 91.4909 61.1217 91.5046 61.3496 91.5137C61.5775 91.5137 61.7233 91.5137 61.7871 91.5137C62.1608 91.5137 62.5938 91.5137 63.0859 91.5137C63.5781 91.5046 64.0794 91.4909 64.5898 91.4727C65.1094 91.4544 65.6152 91.4362 66.1074 91.418C66.6087 91.3906 67.0508 91.3542 67.4336 91.3086C67.4062 91.3815 67.3743 91.4954 67.3379 91.6504C67.3105 91.8053 67.2832 91.9785 67.2559 92.1699C67.2285 92.3522 67.1966 92.5391 67.1602 92.7305C67.1328 92.9219 67.1055 93.0814 67.0781 93.209C67.151 93.1999 67.2103 93.1953 67.2559 93.1953C67.3014 93.1953 67.347 93.1908 67.3926 93.1816C67.3743 93.3548 67.3516 93.5234 67.3242 93.6875C67.306 93.8424 67.2878 94.0065 67.2695 94.1797C66.9141 94.1615 66.5404 94.1523 66.1484 94.1523C65.7565 94.1432 65.36 94.1387 64.959 94.1387C64.6035 94.1387 64.2526 94.1432 63.9062 94.1523C63.5599 94.1523 63.2363 94.1569 62.9355 94.166C62.6348 94.1751 62.3613 94.1842 62.1152 94.1934C61.8783 94.2025 61.6868 94.2116 61.541 94.2207V95.1641C61.541 95.3281 61.5775 95.4102 61.6504 95.4102C61.7324 95.4193 61.8828 95.4238 62.1016 95.4238C62.4753 95.4238 62.931 95.4102 63.4688 95.3828C64.0065 95.3646 64.5534 95.3372 65.1094 95.3008C65.6745 95.2643 66.2168 95.2188 66.7363 95.1641C67.265 95.1094 67.7025 95.0547 68.0488 95C68.0033 95.2096 67.9577 95.4147 67.9121 95.6152C67.8665 95.8249 67.821 96.0345 67.7754 96.2441C67.4564 96.235 67.11 96.2259 66.7363 96.2168C66.3717 96.2168 65.9844 96.2168 65.5742 96.2168C65.1367 96.2168 64.6947 96.2214 64.248 96.2305C63.8105 96.2396 63.3822 96.2487 62.9629 96.2578C62.5527 96.2669 62.1654 96.276 61.8008 96.2852C61.4362 96.2943 61.1217 96.2988 60.8574 96.2988C60.5202 96.2988 60.2923 96.2168 60.1738 96.0527C60.0553 95.8978 59.9961 95.7018 59.9961 95.4648V94.7812C59.9961 94.6263 59.9824 94.4987 59.9551 94.3984C59.9368 94.2982 59.8913 94.2161 59.8184 94.1523C59.7454 94.0794 59.6406 94.0156 59.5039 93.9609C59.3763 93.9062 59.1986 93.8424 58.9707 93.7695C59.0163 93.6875 59.0618 93.6055 59.1074 93.5234C59.153 93.4323 59.2031 93.3457 59.2578 93.2637C59.7044 93.3092 60.1921 93.3411 60.7207 93.3594C61.2493 93.3776 61.7962 93.3867 62.3613 93.3867C62.9264 93.3867 63.4824 93.3822 64.0293 93.373C64.5762 93.3639 65.0957 93.3503 65.5879 93.332ZM69.8672 89.2031C69.8307 89.4128 69.7943 89.627 69.7578 89.8457C69.7305 90.0553 69.6986 90.265 69.6621 90.4746C69.4525 90.4655 69.1973 90.4564 68.8965 90.4473C68.6048 90.429 68.2904 90.4154 67.9531 90.4062C67.6159 90.3971 67.2695 90.3926 66.9141 90.3926C66.5586 90.3835 66.2259 90.3789 65.916 90.3789C64.8952 90.3789 63.9336 90.3926 63.0312 90.4199C62.138 90.4473 61.3177 90.4837 60.5703 90.5293C59.832 90.5658 59.1803 90.6113 58.6152 90.666C58.0501 90.7116 57.5898 90.7526 57.2344 90.7891C57.1432 90.5612 57.0475 90.3379 56.9473 90.1191C56.8561 89.8913 56.7695 89.6634 56.6875 89.4355C56.9974 89.472 57.3118 89.5039 57.6309 89.5312C57.959 89.5586 58.2826 89.5814 58.6016 89.5996C58.9206 89.6178 59.2305 89.6315 59.5312 89.6406C59.832 89.6497 60.1146 89.6543 60.3789 89.6543C61.4909 89.6543 62.498 89.6406 63.4004 89.6133C64.3027 89.5859 65.1322 89.554 65.8887 89.5176C66.6452 89.472 67.347 89.4219 67.9941 89.3672C68.6413 89.3125 69.2656 89.2578 69.8672 89.2031ZM81.1602 91.7734C81.5247 91.8281 81.8574 91.9284 82.1582 92.0742C82.4681 92.2201 82.7324 92.3978 82.9512 92.6074C83.1699 92.8171 83.3385 93.054 83.457 93.3184C83.5755 93.5736 83.6348 93.8516 83.6348 94.1523C83.6348 94.4987 83.5527 94.8177 83.3887 95.1094C83.2337 95.4102 83.0104 95.6699 82.7188 95.8887C82.4362 96.1074 82.099 96.276 81.707 96.3945C81.3151 96.5221 80.8867 96.5859 80.4219 96.5859C79.957 96.5859 79.5286 96.5221 79.1367 96.3945C78.7448 96.276 78.403 96.1074 78.1113 95.8887C77.8288 95.6699 77.6055 95.4102 77.4414 95.1094C77.2865 94.8177 77.209 94.4987 77.209 94.1523C77.209 93.8424 77.2728 93.5508 77.4004 93.2773C77.528 93.0039 77.7057 92.7624 77.9336 92.5527C78.1615 92.3431 78.4349 92.1699 78.7539 92.0332C79.082 91.8965 79.4421 91.8053 79.834 91.7598C79.8158 91.6322 79.7611 91.5319 79.6699 91.459C79.5879 91.3861 79.4284 91.3177 79.1914 91.2539L79.5469 90.7617C79.638 90.7799 79.7611 90.8073 79.916 90.8438C80.0801 90.8711 80.2441 90.903 80.4082 90.9395C80.5814 90.9668 80.75 91.0033 80.9141 91.0488C81.0872 91.0853 81.2331 91.1172 81.3516 91.1445C81.3333 91.2174 81.3014 91.3086 81.2559 91.418C81.2194 91.5273 81.1875 91.6458 81.1602 91.7734ZM82.0625 94.0703C82.0625 93.8424 82.0169 93.6283 81.9258 93.4277C81.8346 93.2181 81.7116 93.0404 81.5566 92.8945C81.4108 92.7487 81.2376 92.6348 81.0371 92.5527C80.8366 92.4616 80.6315 92.416 80.4219 92.416C80.2031 92.416 79.998 92.4616 79.8066 92.5527C79.6152 92.6348 79.4466 92.7487 79.3008 92.8945C79.1549 93.0404 79.0365 93.2181 78.9453 93.4277C78.8633 93.6283 78.8223 93.8424 78.8223 94.0703C78.8223 94.3073 78.8633 94.526 78.9453 94.7266C79.0365 94.9271 79.1549 95.0957 79.3008 95.2324C79.4466 95.3783 79.6152 95.4922 79.8066 95.5742C79.998 95.6562 80.2031 95.6973 80.4219 95.6973C80.6406 95.6973 80.8457 95.6562 81.0371 95.5742C81.2376 95.4922 81.4108 95.3783 81.5566 95.2324C81.7116 95.0957 81.8346 94.9271 81.9258 94.7266C82.0169 94.526 82.0625 94.3073 82.0625 94.0703ZM75.6777 84.0625C76.0697 84.1354 76.5163 84.1901 77.0176 84.2266C77.528 84.2539 78.0612 84.2721 78.6172 84.2812C79.1823 84.2904 79.7474 84.2904 80.3125 84.2812C80.8867 84.263 81.4336 84.2402 81.9531 84.2129C82.4727 84.1764 82.9421 84.14 83.3613 84.1035C83.7897 84.0579 84.1361 84.0124 84.4004 83.9668L84.168 85.2109C83.0651 85.1562 81.9805 85.1335 80.9141 85.1426C79.8477 85.1426 78.9134 85.1654 78.1113 85.2109V87.2617C78.1113 87.4167 78.125 87.5078 78.1523 87.5352C78.1797 87.5625 78.2754 87.5807 78.4395 87.5898C78.7767 87.599 79.2005 87.5944 79.7109 87.5762C80.2305 87.5579 80.7728 87.5306 81.3379 87.4941C81.903 87.4577 82.4635 87.4121 83.0195 87.3574C83.5755 87.3027 84.0677 87.248 84.4961 87.1934L84.2363 88.4375C83.6895 88.4102 83.1107 88.3919 82.5 88.3828C81.8984 88.3646 81.3014 88.36 80.709 88.3691C80.1257 88.3691 79.5651 88.3828 79.0273 88.4102C78.4987 88.4284 78.0339 88.4512 77.6328 88.4785C77.2773 88.5059 77.0085 88.4238 76.8262 88.2324C76.6439 88.0319 76.5527 87.7995 76.5527 87.5352V85.7988C76.5527 85.6257 76.5391 85.4844 76.5117 85.375C76.4935 85.2565 76.4434 85.1608 76.3613 85.0879C76.2793 85.0059 76.1608 84.9329 76.0059 84.8691C75.8509 84.8053 75.6367 84.737 75.3633 84.6641L75.6777 84.0625ZM86.6016 90.5566C86.4193 90.5475 86.2005 90.5384 85.9453 90.5293C85.6992 90.5202 85.4303 90.5156 85.1387 90.5156C84.847 90.5065 84.5462 90.4974 84.2363 90.4883C83.9264 90.4792 83.6211 90.4746 83.3203 90.4746C83.0742 90.4746 82.7552 90.4792 82.3633 90.4883C81.9805 90.4883 81.5612 90.4928 81.1055 90.502C80.6589 90.5111 80.194 90.5247 79.7109 90.543C79.237 90.5521 78.7858 90.5658 78.3574 90.584C77.929 90.6022 77.5417 90.6204 77.1953 90.6387C76.8581 90.6478 76.6029 90.6569 76.4297 90.666C76.2656 90.6842 76.0833 90.7025 75.8828 90.7207C75.6914 90.7298 75.4954 90.7435 75.2949 90.7617C75.0944 90.7799 74.8939 90.7982 74.6934 90.8164C74.502 90.8346 74.3288 90.8529 74.1738 90.8711L73.627 89.5176C74.0371 89.5632 74.502 89.6087 75.0215 89.6543C75.541 89.6908 76.0059 89.7181 76.416 89.7363C76.6348 89.7454 76.9219 89.75 77.2773 89.75C77.6328 89.75 78.0202 89.75 78.4395 89.75C78.8678 89.7409 79.3099 89.7318 79.7656 89.7227C80.2305 89.7044 80.6725 89.6908 81.0918 89.6816C81.5202 89.6725 81.9121 89.6634 82.2676 89.6543C82.623 89.6361 82.9102 89.6224 83.1289 89.6133C83.4297 89.6042 83.7441 89.5859 84.0723 89.5586C84.4004 89.5312 84.724 89.5039 85.043 89.4766C85.3711 89.4401 85.6855 89.4036 85.9863 89.3672C86.2871 89.3307 86.5651 89.2943 86.8203 89.2578L86.6016 90.5566ZM94.5449 90.4336C95.1374 90.4154 95.6797 90.3971 96.1719 90.3789C96.6641 90.3516 97.1289 90.3242 97.5664 90.2969C98.013 90.2604 98.4414 90.224 98.8516 90.1875C99.2617 90.1419 99.681 90.0918 100.109 90.0371C100.073 90.2467 100.036 90.4609 100 90.6797C99.9727 90.8984 99.9408 91.1126 99.9043 91.3223C99.722 91.3132 99.5033 91.2995 99.248 91.2812C98.9928 91.263 98.7194 91.2493 98.4277 91.2402C98.1361 91.2311 97.8353 91.222 97.5254 91.2129C97.2155 91.2038 96.9147 91.1992 96.623 91.1992C95.6204 91.1992 94.6406 91.2129 93.6836 91.2402C92.7266 91.2676 91.8424 91.304 91.0312 91.3496C90.2201 91.3952 89.5046 91.4453 88.8848 91.5C88.2741 91.5456 87.8047 91.5911 87.4766 91.6367C87.3854 91.4089 87.2897 91.1855 87.1895 90.9668C87.0983 90.7389 87.0117 90.5111 86.9297 90.2832C87.5951 90.3652 88.2467 90.4245 88.8848 90.4609C89.5319 90.4883 90.1836 90.502 90.8398 90.502C91.1589 90.502 91.5052 90.502 91.8789 90.502C92.2617 90.502 92.6491 90.4974 93.041 90.4883V89.2441C92.5944 89.2533 92.1797 89.2669 91.7969 89.2852C91.4232 89.3034 91.0905 89.3125 90.7988 89.3125C90.4798 89.3125 90.252 89.2305 90.1152 89.0664C89.9785 88.9023 89.9102 88.7018 89.9102 88.4648V87.6035C89.9102 87.4395 89.8965 87.3073 89.8691 87.207C89.8509 87.1068 89.8053 87.0247 89.7324 86.9609C89.6686 86.888 89.5729 86.8242 89.4453 86.7695C89.3177 86.7057 89.1445 86.6374 88.9258 86.5645C88.9714 86.4824 89.0124 86.4049 89.0488 86.332C89.0944 86.25 89.14 86.168 89.1855 86.0859C89.623 86.1315 90.1016 86.1634 90.6211 86.1816C91.1497 86.1999 91.6921 86.209 92.248 86.209C92.8587 86.209 93.4648 86.1999 94.0664 86.1816C94.6771 86.1634 95.2422 86.1406 95.7617 86.1133C95.7708 85.9128 95.7708 85.7122 95.7617 85.5117C95.7617 85.3021 95.7663 85.0924 95.7754 84.8828C95.7025 84.8828 95.625 84.8828 95.543 84.8828C95.4701 84.8737 95.388 84.8691 95.2969 84.8691C95.0417 84.8691 94.75 84.8737 94.4219 84.8828C94.1029 84.8919 93.7793 84.9056 93.4512 84.9238C93.1322 84.9421 92.8268 84.9603 92.5352 84.9785C92.2435 84.9967 91.9974 85.0104 91.7969 85.0195C91.7057 85.0286 91.5781 85.0423 91.4141 85.0605C91.25 85.0697 91.0677 85.0833 90.8672 85.1016C90.6667 85.1198 90.4616 85.1426 90.252 85.1699C90.0514 85.1882 89.8691 85.2109 89.7051 85.2383C89.5866 85.0286 89.4635 84.819 89.3359 84.6094C89.2174 84.3906 89.099 84.1764 88.9805 83.9668C89.2083 84.0124 89.4635 84.0488 89.7461 84.0762C90.0286 84.1035 90.3158 84.1263 90.6074 84.1445C90.8991 84.1628 91.1816 84.1764 91.4551 84.1855C91.7285 84.1855 91.9746 84.1855 92.1934 84.1855C92.5944 84.1855 93.0365 84.181 93.5195 84.1719C94.0026 84.1628 94.4857 84.1536 94.9688 84.1445C95.4518 84.1263 95.9212 84.1035 96.377 84.0762C96.8327 84.0488 97.2337 84.0169 97.5801 83.9805C97.5527 84.0625 97.5208 84.1901 97.4844 84.3633C97.457 84.5273 97.4297 84.7096 97.4023 84.9102C97.375 85.1016 97.3477 85.3021 97.3203 85.5117C97.293 85.7122 97.2702 85.8854 97.252 86.0312C97.3066 86.0221 97.3568 86.0176 97.4023 86.0176C97.4479 86.0176 97.4935 86.013 97.5391 86.0039C97.5208 86.168 97.498 86.3366 97.4707 86.5098C97.4525 86.6738 97.4342 86.8379 97.416 87.002C97.0697 86.9837 96.7051 86.9746 96.3223 86.9746C95.9395 86.9655 95.543 86.9609 95.1328 86.9609C94.75 86.9609 94.3672 86.9655 93.9844 86.9746C93.6107 86.9746 93.2598 86.9792 92.9316 86.9883C92.6126 86.9974 92.3255 87.0065 92.0703 87.0156C91.8242 87.0156 91.6283 87.0202 91.4824 87.0293V88.1641C91.4824 88.237 91.487 88.2917 91.4961 88.3281C91.5052 88.3646 91.528 88.3919 91.5645 88.4102C91.6009 88.4193 91.6602 88.4238 91.7422 88.4238C91.8242 88.4238 91.9382 88.4238 92.084 88.4238C92.4668 88.4238 92.9225 88.4147 93.4512 88.3965C93.9889 88.3691 94.5358 88.3372 95.0918 88.3008C95.6478 88.2552 96.1855 88.2051 96.7051 88.1504C97.2246 88.0957 97.6576 88.041 98.0039 87.9863C97.9583 88.196 97.9128 88.4102 97.8672 88.6289C97.8307 88.8385 97.7897 89.0482 97.7441 89.2578C97.4616 89.2396 97.1517 89.2305 96.8145 89.2305C96.4863 89.2305 96.1445 89.2305 95.7891 89.2305H94.5449V90.4336ZM91.1953 92.3613C91.6693 92.3613 92.2116 92.3522 92.8223 92.334C93.4329 92.3066 94.0436 92.2793 94.6543 92.252C95.2741 92.2155 95.8574 92.179 96.4043 92.1426C96.9512 92.097 97.4023 92.056 97.7578 92.0195C97.7122 92.2565 97.6803 92.4616 97.6621 92.6348C97.6439 92.7988 97.6348 92.9583 97.6348 93.1133V94.4668C97.6348 94.7311 97.6211 95.0228 97.5938 95.3418C97.5755 95.6608 97.5026 96.0163 97.375 96.4082C97.1745 96.4447 96.9785 96.4811 96.7871 96.5176C96.6048 96.5632 96.4134 96.6042 96.2129 96.6406C96.1947 96.5312 96.1764 96.3945 96.1582 96.2305C96.1491 96.0664 96.1354 95.8932 96.1172 95.7109C96.1081 95.5378 96.099 95.3646 96.0898 95.1914C96.0807 95.0273 96.0762 94.8906 96.0762 94.7812V93.0449C95.9486 93.0358 95.821 93.0312 95.6934 93.0312C95.5658 93.0312 95.4382 93.0312 95.3105 93.0312C94.3353 93.0312 93.3737 93.0723 92.4258 93.1543C91.4779 93.2363 90.5892 93.3366 89.7598 93.4551C89.6595 93.2454 89.5547 93.0312 89.4453 92.8125C89.3451 92.5938 89.2402 92.3796 89.1309 92.1699C89.2676 92.1882 89.4225 92.2109 89.5957 92.2383C89.778 92.2565 89.9648 92.2747 90.1562 92.293C90.3477 92.3112 90.5345 92.3294 90.7168 92.3477C90.8991 92.3568 91.0586 92.3613 91.1953 92.3613ZM109.639 89.6816C109.803 89.6634 109.98 89.6497 110.172 89.6406C110.363 89.6315 110.532 89.6224 110.678 89.6133V85.0742C110.678 84.9375 110.655 84.819 110.609 84.7188C110.573 84.6094 110.5 84.5091 110.391 84.418C110.281 84.3268 110.126 84.2448 109.926 84.1719C109.734 84.0898 109.484 84.0124 109.174 83.9395L109.447 83.3379C109.675 83.3652 109.926 83.4062 110.199 83.4609C110.473 83.5065 110.742 83.5566 111.006 83.6113C111.279 83.6569 111.535 83.707 111.771 83.7617C112.018 83.8073 112.223 83.8483 112.387 83.8848C112.368 83.9668 112.35 84.0762 112.332 84.2129C112.314 84.3496 112.296 84.4818 112.277 84.6094C112.268 84.737 112.259 84.8555 112.25 84.9648C112.241 85.0651 112.236 85.1198 112.236 85.1289V92.6348C112.236 92.9173 112.227 93.2409 112.209 93.6055C112.2 93.9609 112.182 94.3255 112.154 94.6992C112.136 95.0638 112.113 95.4147 112.086 95.752C112.059 96.0892 112.031 96.3717 112.004 96.5996L110.842 96.7637C110.824 96.5996 110.805 96.39 110.787 96.1348C110.769 95.8887 110.751 95.6198 110.732 95.3281C110.714 95.0456 110.701 94.7585 110.691 94.4668C110.682 94.166 110.678 93.8835 110.678 93.6191V90.5156C110.541 90.5339 110.372 90.543 110.172 90.543C109.971 90.543 109.794 90.5521 109.639 90.5703V92.1426C109.639 92.4251 109.634 92.7487 109.625 93.1133C109.616 93.4779 109.598 93.847 109.57 94.2207C109.552 94.5853 109.529 94.9362 109.502 95.2734C109.475 95.6107 109.443 95.8932 109.406 96.1211L108.285 96.2715C108.267 96.1165 108.249 95.9115 108.23 95.6562C108.221 95.4102 108.208 95.1458 108.189 94.8633C108.18 94.5716 108.171 94.2754 108.162 93.9746C108.153 93.6738 108.148 93.3958 108.148 93.1406V85.5938C108.148 85.3385 108.053 85.1289 107.861 84.9648C107.679 84.8008 107.314 84.6504 106.768 84.5137L107.055 83.9258C107.264 83.9531 107.492 83.9896 107.738 84.0352C107.993 84.0716 108.244 84.1172 108.49 84.1719C108.736 84.2174 108.973 84.2676 109.201 84.3223C109.438 84.3678 109.639 84.4134 109.803 84.459C109.785 84.541 109.766 84.6504 109.748 84.7871C109.73 84.9147 109.712 85.0469 109.693 85.1836C109.675 85.3112 109.661 85.4251 109.652 85.5254C109.643 85.6257 109.639 85.6803 109.639 85.6895V89.6816ZM106.426 86.0449C106.116 86.0358 105.774 86.0404 105.4 86.0586C105.036 86.0768 104.73 86.0859 104.484 86.0859C104.421 86.0859 104.329 86.0905 104.211 86.0996C104.092 86.1087 103.96 86.1224 103.814 86.1406C103.669 86.1497 103.523 86.1634 103.377 86.1816C103.231 86.1999 103.104 86.2181 102.994 86.2363L102.297 85.0332C102.406 85.0605 102.552 85.0879 102.734 85.1152C102.926 85.1335 103.122 85.1517 103.322 85.1699C103.523 85.1882 103.714 85.2064 103.896 85.2246C104.079 85.2337 104.215 85.2383 104.307 85.2383C104.416 85.2383 104.562 85.2337 104.744 85.2246C104.936 85.2064 105.136 85.1882 105.346 85.1699C105.564 85.1517 105.783 85.1335 106.002 85.1152C106.23 85.0879 106.439 85.0605 106.631 85.0332L106.426 86.0449ZM107.82 87.7402C107.529 87.7402 107.173 87.7448 106.754 87.7539C106.344 87.763 105.924 87.7767 105.496 87.7949C105.068 87.804 104.653 87.8223 104.252 87.8496C103.851 87.8678 103.514 87.8815 103.24 87.8906C103.131 87.8997 102.985 87.9134 102.803 87.9316C102.63 87.9408 102.447 87.9544 102.256 87.9727C102.064 87.9909 101.878 88.0091 101.695 88.0273C101.522 88.0456 101.381 88.0592 101.271 88.0684L100.697 86.7559C100.807 86.7832 100.957 86.8105 101.148 86.8379C101.34 86.8652 101.54 86.8926 101.75 86.9199C101.969 86.9382 102.174 86.9564 102.365 86.9746C102.557 86.9928 102.707 87.002 102.816 87.002C103.108 87.002 103.459 86.9974 103.869 86.9883C104.279 86.9701 104.712 86.9427 105.168 86.9062C105.633 86.8698 106.107 86.8242 106.59 86.7695C107.082 86.7148 107.551 86.6465 107.998 86.5645L107.82 87.7402ZM107.752 90.7344C107.752 91.0625 107.674 91.3724 107.52 91.6641C107.374 91.9466 107.169 92.1973 106.904 92.416C106.649 92.6257 106.339 92.7943 105.975 92.9219C105.619 93.0495 105.232 93.1133 104.812 93.1133C104.402 93.1133 104.015 93.0495 103.65 92.9219C103.295 92.7943 102.985 92.6211 102.721 92.4023C102.465 92.1836 102.26 91.9329 102.105 91.6504C101.96 91.3587 101.887 91.0534 101.887 90.7344C101.887 90.388 101.96 90.0736 102.105 89.791C102.26 89.4993 102.465 89.2487 102.721 89.0391C102.985 88.8294 103.295 88.6654 103.65 88.5469C104.015 88.4284 104.402 88.3691 104.812 88.3691C105.25 88.3691 105.651 88.4329 106.016 88.5605C106.38 88.6882 106.69 88.8613 106.945 89.0801C107.201 89.2988 107.396 89.554 107.533 89.8457C107.679 90.1283 107.752 90.4245 107.752 90.7344ZM103.486 90.6797C103.486 91.1354 103.614 91.5137 103.869 91.8145C104.133 92.1152 104.452 92.2656 104.826 92.2656C104.99 92.2656 105.15 92.2292 105.305 92.1562C105.46 92.0742 105.596 91.9648 105.715 91.8281C105.842 91.6823 105.943 91.5137 106.016 91.3223C106.098 91.1309 106.139 90.9167 106.139 90.6797C106.139 90.4792 106.102 90.2878 106.029 90.1055C105.965 89.9141 105.87 89.7454 105.742 89.5996C105.624 89.4538 105.482 89.3398 105.318 89.2578C105.163 89.1758 104.999 89.1348 104.826 89.1348C104.462 89.1348 104.147 89.276 103.883 89.5586C103.618 89.8411 103.486 90.2148 103.486 90.6797ZM121.178 86.8926C121.506 86.9928 121.861 87.0931 122.244 87.1934C122.627 87.2845 123.014 87.3711 123.406 87.4531C123.798 87.5352 124.186 87.6126 124.568 87.6855C124.951 87.7493 125.307 87.8086 125.635 87.8633L124.719 88.957C124.491 88.875 124.199 88.7702 123.844 88.6426C123.488 88.515 123.105 88.3783 122.695 88.2324C122.285 88.0866 121.87 87.9408 121.451 87.7949C121.041 87.64 120.658 87.4987 120.303 87.3711C119.501 87.8086 118.658 88.1868 117.773 88.5059C116.889 88.8249 115.992 89.1029 115.08 89.3398L114.684 88.834C116.124 88.3783 117.427 87.8268 118.594 87.1797C119.77 86.5326 120.727 85.8307 121.465 85.0742C120.945 85.0742 120.426 85.0833 119.906 85.1016C119.387 85.1198 118.89 85.1426 118.416 85.1699C118.334 85.179 118.206 85.1927 118.033 85.2109C117.869 85.2292 117.687 85.252 117.486 85.2793C117.286 85.2975 117.085 85.3203 116.885 85.3477C116.684 85.375 116.507 85.4023 116.352 85.4297L115.531 84.1172C115.65 84.1445 115.809 84.1764 116.01 84.2129C116.219 84.2402 116.438 84.2676 116.666 84.2949C116.894 84.3132 117.117 84.3314 117.336 84.3496C117.555 84.3678 117.742 84.377 117.896 84.377C118.225 84.377 118.626 84.3724 119.1 84.3633C119.574 84.3542 120.07 84.3359 120.59 84.3086C121.109 84.2721 121.624 84.2311 122.135 84.1855C122.645 84.1309 123.096 84.0625 123.488 83.9805L123.98 84.5C123.598 84.974 123.165 85.4069 122.682 85.7988C122.208 86.1816 121.706 86.5462 121.178 86.8926ZM121.191 93.4551C121.191 93.7012 121.182 93.9655 121.164 94.248C121.155 94.5215 121.141 94.7949 121.123 95.0684C121.105 95.3418 121.077 95.6061 121.041 95.8613C121.014 96.1165 120.986 96.3398 120.959 96.5312L119.729 96.7363C119.71 96.5814 119.697 96.3854 119.688 96.1484C119.678 95.9115 119.669 95.6608 119.66 95.3965C119.66 95.1322 119.66 94.8724 119.66 94.6172C119.66 94.3529 119.66 94.1204 119.66 93.9199V91.2129C119.314 91.2129 118.977 91.222 118.648 91.2402C118.32 91.2493 118.015 91.263 117.732 91.2812C117.45 91.2904 117.195 91.304 116.967 91.3223C116.748 91.3314 116.57 91.3405 116.434 91.3496C116.26 91.3587 116.074 91.3724 115.873 91.3906C115.673 91.3997 115.472 91.4134 115.271 91.4316C115.08 91.4499 114.889 91.4727 114.697 91.5C114.506 91.5182 114.333 91.5365 114.178 91.5547L113.631 90.2012C113.831 90.2285 114.05 90.2559 114.287 90.2832C114.533 90.3014 114.779 90.3197 115.025 90.3379C115.281 90.3561 115.527 90.3743 115.764 90.3926C116.01 90.4017 116.229 90.4108 116.42 90.4199C116.639 90.429 116.921 90.4336 117.268 90.4336C117.614 90.4336 117.992 90.4336 118.402 90.4336C118.812 90.4245 119.236 90.4154 119.674 90.4062C120.12 90.388 120.549 90.3743 120.959 90.3652C121.369 90.3561 121.743 90.347 122.08 90.3379C122.426 90.3197 122.709 90.306 122.928 90.2969C123.229 90.2878 123.543 90.2695 123.871 90.2422C124.199 90.2148 124.523 90.1875 124.842 90.1602C125.17 90.1237 125.484 90.0872 125.785 90.0508C126.086 90.0143 126.359 89.9779 126.605 89.9414L126.414 91.2266C126.232 91.2174 126.013 91.2083 125.758 91.1992C125.512 91.1901 125.243 91.181 124.951 91.1719C124.66 91.1628 124.359 91.1536 124.049 91.1445C123.739 91.1354 123.434 91.1309 123.133 91.1309C122.896 91.1309 122.613 91.1309 122.285 91.1309C121.966 91.1309 121.602 91.1445 121.191 91.1719V93.4551ZM131.35 88.8477C131.568 89.0846 131.801 89.3353 132.047 89.5996C132.302 89.8548 132.557 90.1055 132.812 90.3516C133.068 90.5977 133.318 90.8346 133.564 91.0625C133.82 91.2812 134.057 91.4772 134.275 91.6504L133.086 92.7441C132.721 92.252 132.352 91.737 131.979 91.1992C131.605 90.6615 131.222 90.1465 130.83 89.6543C130.383 90.2741 129.878 90.8529 129.312 91.3906C128.747 91.9193 128.109 92.4388 127.398 92.9492L126.947 92.5391C127.923 91.6732 128.72 90.7298 129.34 89.709C129.96 88.679 130.388 87.6354 130.625 86.5781C130.661 86.4232 130.675 86.3138 130.666 86.25C130.657 86.1862 130.625 86.1406 130.57 86.1133C130.47 86.0495 130.338 85.9766 130.174 85.8945C130.019 85.8034 129.873 85.735 129.736 85.6895L130.133 85.1426C130.479 85.2155 130.871 85.3203 131.309 85.457C131.746 85.5846 132.197 85.7214 132.662 85.8672C132.489 86.4323 132.298 86.9609 132.088 87.4531C131.878 87.9362 131.632 88.401 131.35 88.8477ZM135.793 83.3379C136.012 83.3652 136.253 83.4062 136.518 83.4609C136.791 83.5065 137.06 83.5566 137.324 83.6113C137.589 83.6569 137.844 83.707 138.09 83.7617C138.336 83.8073 138.541 83.8483 138.705 83.8848C138.696 83.9668 138.682 84.0762 138.664 84.2129C138.655 84.3496 138.646 84.4818 138.637 84.6094C138.628 84.737 138.618 84.8555 138.609 84.9648C138.6 85.0651 138.596 85.1198 138.596 85.1289V92.6348C138.596 92.9173 138.587 93.2409 138.568 93.6055C138.559 93.9609 138.541 94.3255 138.514 94.6992C138.495 95.0638 138.468 95.4147 138.432 95.752C138.404 96.0892 138.372 96.3717 138.336 96.5996L137.146 96.7637C137.128 96.5905 137.115 96.3763 137.105 96.1211C137.096 95.875 137.087 95.6061 137.078 95.3145C137.069 95.0319 137.06 94.7448 137.051 94.4531C137.051 94.1615 137.051 93.8835 137.051 93.6191V85.0742C137.051 84.8099 136.946 84.5911 136.736 84.418C136.527 84.2448 136.126 84.0853 135.533 83.9395L135.793 83.3379ZM134.59 89.1211C134.234 89.1393 133.879 89.1758 133.523 89.2305C133.177 89.276 132.885 89.3262 132.648 89.3809L131.965 88.1094C132.348 88.1641 132.68 88.2096 132.963 88.2461C133.255 88.2826 133.519 88.2962 133.756 88.2871C133.856 88.2962 133.975 88.2962 134.111 88.2871C134.257 88.2689 134.417 88.2507 134.59 88.2324V85.5938C134.59 85.4661 134.567 85.3522 134.521 85.252C134.485 85.1517 134.412 85.0605 134.303 84.9785C134.202 84.8874 134.061 84.8053 133.879 84.7324C133.697 84.6595 133.464 84.5866 133.182 84.5137L133.496 83.9258C133.706 83.9531 133.934 83.9896 134.18 84.0352C134.435 84.0716 134.686 84.1172 134.932 84.1719C135.187 84.2174 135.428 84.2676 135.656 84.3223C135.884 84.3678 136.08 84.4134 136.244 84.459C136.226 84.541 136.208 84.6504 136.189 84.7871C136.171 84.9147 136.153 85.0469 136.135 85.1836C136.117 85.3112 136.103 85.4251 136.094 85.5254C136.085 85.6257 136.08 85.6803 136.08 85.6895V92.1426C136.08 92.4251 136.071 92.7487 136.053 93.1133C136.044 93.4779 136.025 93.847 135.998 94.2207C135.98 94.5853 135.957 94.9362 135.93 95.2734C135.902 95.6107 135.875 95.8932 135.848 96.1211L134.699 96.2715C134.681 96.0983 134.667 95.8841 134.658 95.6289C134.649 95.3828 134.635 95.1185 134.617 94.8359C134.608 94.5534 134.599 94.2663 134.59 93.9746C134.59 93.6829 134.59 93.4049 134.59 93.1406V89.1211ZM147.592 85.1426C148.02 85.2155 148.408 85.3385 148.754 85.5117C149.109 85.6758 149.41 85.8854 149.656 86.1406C149.902 86.3867 150.094 86.6647 150.23 86.9746C150.367 87.2845 150.436 87.6172 150.436 87.9727C150.436 88.2734 150.385 88.5605 150.285 88.834C150.185 89.0983 150.044 89.349 149.861 89.5859C149.688 89.8138 149.469 90.0189 149.205 90.2012C148.95 90.3743 148.667 90.5156 148.357 90.625C148.631 90.6432 148.932 90.6706 149.26 90.707C149.588 90.7435 149.866 90.7754 150.094 90.8027C149.993 91.2129 149.921 91.6595 149.875 92.1426C149.839 92.6257 149.798 93.0951 149.752 93.5508C149.998 93.5234 150.267 93.4961 150.559 93.4688C150.859 93.4414 151.16 93.4141 151.461 93.3867C151.762 93.3594 152.053 93.332 152.336 93.3047C152.618 93.2682 152.874 93.2363 153.102 93.209C153.074 93.4186 153.047 93.6328 153.02 93.8516C152.992 94.0703 152.96 94.2845 152.924 94.4941C152.742 94.485 152.523 94.4759 152.268 94.4668C152.012 94.4577 151.739 94.4486 151.447 94.4395C151.156 94.4303 150.85 94.4258 150.531 94.4258C150.221 94.4167 149.916 94.4121 149.615 94.4121C148.667 94.4121 147.747 94.4258 146.854 94.4531C145.96 94.4714 145.131 94.5033 144.365 94.5488C143.609 94.5853 142.934 94.6309 142.342 94.6855C141.749 94.7402 141.275 94.7949 140.92 94.8496C140.838 94.6217 140.756 94.3939 140.674 94.166C140.592 93.929 140.51 93.6966 140.428 93.4688C141.102 93.5508 141.763 93.61 142.41 93.6465C143.066 93.6738 143.786 93.6875 144.57 93.6875C144.552 93.4323 144.543 93.1816 144.543 92.9355C144.543 92.6803 144.534 92.4251 144.516 92.1699C144.507 92.0879 144.488 92.0059 144.461 91.9238C144.434 91.8418 144.383 91.7689 144.311 91.7051C144.238 91.6322 144.128 91.5729 143.982 91.5273C143.837 91.4818 143.645 91.4453 143.408 91.418C143.454 91.3177 143.49 91.2174 143.518 91.1172C143.554 91.0169 143.595 90.9167 143.641 90.8164C143.796 90.8164 143.978 90.821 144.188 90.8301C144.406 90.8392 144.634 90.8529 144.871 90.8711C145.108 90.8802 145.34 90.8939 145.568 90.9121C145.796 90.9303 146.001 90.9531 146.184 90.9805C146.129 91.2174 146.092 91.4362 146.074 91.6367C146.056 91.8372 146.047 91.9876 146.047 92.0879C146.047 92.3522 146.051 92.6165 146.061 92.8809C146.079 93.1452 146.097 93.4004 146.115 93.6465C146.498 93.6465 146.867 93.6419 147.223 93.6328C147.578 93.6237 147.911 93.61 148.221 93.5918C148.248 93.3001 148.285 93.0039 148.33 92.7031C148.376 92.4023 148.398 92.1061 148.398 91.8145C148.398 91.6139 148.326 91.4727 148.18 91.3906C148.043 91.3086 147.765 91.2357 147.346 91.1719C147.373 91.1172 147.396 91.0625 147.414 91.0078C147.441 90.9531 147.469 90.8984 147.496 90.8438C147.368 90.862 147.245 90.8757 147.127 90.8848C147.008 90.8939 146.885 90.8984 146.758 90.8984C146.238 90.8984 145.76 90.8255 145.322 90.6797C144.885 90.5247 144.502 90.3197 144.174 90.0645C143.855 89.8001 143.604 89.4902 143.422 89.1348C143.24 88.7793 143.148 88.3919 143.148 87.9727C143.148 87.6081 143.221 87.2617 143.367 86.9336C143.522 86.6055 143.736 86.3184 144.01 86.0723C144.283 85.8171 144.607 85.6074 144.98 85.4434C145.354 85.2702 145.769 85.1608 146.225 85.1152C146.215 84.9876 146.17 84.8874 146.088 84.8145C146.006 84.7415 145.837 84.6686 145.582 84.5957C145.628 84.5137 145.678 84.4316 145.732 84.3496C145.796 84.2585 145.855 84.1719 145.91 84.0898C146.01 84.1172 146.138 84.1491 146.293 84.1855C146.457 84.2129 146.626 84.2448 146.799 84.2812C146.981 84.3177 147.159 84.3542 147.332 84.3906C147.505 84.418 147.651 84.4453 147.77 84.4727C147.733 84.5547 147.697 84.6549 147.66 84.7734C147.633 84.8828 147.61 85.0059 147.592 85.1426ZM148.781 87.9453C148.781 87.6536 148.727 87.3802 148.617 87.125C148.517 86.8698 148.376 86.651 148.193 86.4688C148.011 86.2773 147.797 86.1315 147.551 86.0312C147.314 85.9219 147.063 85.8672 146.799 85.8672C146.535 85.8672 146.284 85.9219 146.047 86.0312C145.81 86.1315 145.6 86.2773 145.418 86.4688C145.245 86.651 145.104 86.8698 144.994 87.125C144.894 87.3802 144.844 87.6536 144.844 87.9453C144.844 88.2461 144.894 88.5241 144.994 88.7793C145.104 89.0345 145.245 89.2533 145.418 89.4355C145.6 89.6178 145.81 89.7591 146.047 89.8594C146.284 89.9596 146.535 90.0098 146.799 90.0098C147.072 90.0098 147.327 89.9596 147.564 89.8594C147.801 89.7591 148.011 89.6178 148.193 89.4355C148.376 89.2533 148.517 89.0345 148.617 88.7793C148.727 88.5241 148.781 88.2461 148.781 87.9453ZM155.139 93.6465C155.439 93.6465 155.695 93.7513 155.904 93.9609C156.114 94.1615 156.219 94.3893 156.219 94.6445C156.219 94.9089 156.114 95.1413 155.904 95.3418C155.695 95.5514 155.439 95.6562 155.139 95.6562C154.993 95.6562 154.852 95.6289 154.715 95.5742C154.587 95.5195 154.473 95.4421 154.373 95.3418C154.282 95.2507 154.204 95.1458 154.141 95.0273C154.086 94.9089 154.059 94.7812 154.059 94.6445C154.059 94.5169 154.086 94.3939 154.141 94.2754C154.204 94.1569 154.282 94.0521 154.373 93.9609C154.473 93.8607 154.587 93.7832 154.715 93.7285C154.852 93.6738 154.993 93.6465 155.139 93.6465Z" fill="#9A9DA0"/>
</g>
<path d="M9 63H859" stroke="#EBEDEF"/>
<defs>
<filter id="filter0_d_718_15929" x="0.3" y="0.3" width="867.4" height="127.4" filterUnits="userSpaceOnUse" color-interpolation-filters="sRGB">
<feFlood flood-opacity="0" result="BackgroundImageFix"/>
<feColorMatrix in="SourceAlpha" type="matrix" values="0 0 0 0 0 0 0 0 0 0 0 0 0 0 0 0 0 0 127 0" result="hardAlpha"/>
<feOffset dy="1"/>
<feGaussianBlur stdDeviation="4.35"/>
<feComposite in2="hardAlpha" operator="out"/>
<feColorMatrix type="matrix" values="0 0 0 0 0 0 0 0 0 0 0 0 0 0 0 0 0 0 0.13 0"/>
<feBlend mode="normal" in2="BackgroundImageFix" result="effect1_dropShadow_718_15929"/>
<feBlend mode="normal" in="SourceGraphic" in2="effect1_dropShadow_718_15929" result="shape"/>
</filter>
</defs>
</svg>
