<svg width="23" height="22" viewBox="0 0 23 22" fill="none" xmlns="http://www.w3.org/2000/svg">
<path d="M11.4766 14.6191H13.5718" stroke="#3E3F41" stroke-linecap="round"/>
<path d="M4.14453 5.19141H10.4302" stroke="#3E3F41" stroke-linecap="round"/>
<path d="M4.14453 8.85742H9.38263" stroke="#3E3F41" stroke-linecap="round"/>
<path d="M4.14453 12.5254H9.38263" stroke="#3E3F41" stroke-linecap="round"/>
<path d="M4.14453 16.7148H6.23977" stroke="#3E3F41" stroke-linecap="round"/>
<path d="M9.38281 16.7148L12.5257 16.7148" stroke="#3E3F41" stroke-linecap="round"/>
<path d="M8.48802 17.5125L12.4783 13.4048C12.6596 13.2182 12.761 12.9682 12.761 12.708V8.51702C12.761 8.27111 12.5617 8.07175 12.3157 8.07175C12.0698 8.07175 11.8705 7.8724 11.8705 7.62648V7.15502C11.8705 6.64872 12.2809 6.23828 12.7872 6.23828H15.4065C15.9128 6.23828 16.3232 6.64872 16.3232 7.15502V7.62648C16.3232 7.8724 16.1238 8.07175 15.8779 8.07175C15.632 8.07175 15.4326 8.27111 15.4326 8.51702V12.708C15.4326 12.9682 15.5341 13.2182 15.7154 13.4048L19.7057 17.5125C20.9375 18.7805 20.039 20.906 18.2711 20.906H9.92258C8.15471 20.906 7.25619 18.7805 8.48802 17.5125Z" stroke="#3E3F41" stroke-width="1.3" stroke-linecap="round"/>
<path d="M6.23849 20.9063H2C1.44772 20.9063 1 20.4585 1 19.9063V2C1 1.44771 1.44772 1 2 1L14.6678 1C15.22 1 15.6678 1.44772 15.6678 2V3.09539" stroke="#3E3F41" stroke-width="1.3" stroke-linecap="round"/>
</svg>
