<svg width="19" height="24" viewBox="0 0 19 24" fill="none" xmlns="http://www.w3.org/2000/svg">
<mask id="path-1-inside-1_904_3363" fill="white">
<rect y="2" width="19" height="22" rx="1"/>
</mask>
<rect y="2" width="19" height="22" rx="1" stroke="#3E3F41" stroke-width="2.6" mask="url(#path-1-inside-1_904_3363)"/>
<mask id="path-2-inside-2_904_3363" fill="white">
<rect x="2" y="4" width="15" height="18" rx="1"/>
</mask>
<rect x="2" y="4" width="15" height="18" rx="1" stroke="#3E3F41" stroke-width="2.6" mask="url(#path-2-inside-2_904_3363)"/>
<path d="M5.65 2.38461C5.65 2.19132 5.8067 2.03462 6 2.03462H7.22589C7.43688 2.03462 7.63663 1.93954 7.76968 1.77579L7.2652 1.3659L7.76968 1.77579L8.17006 1.28301C8.49545 0.88253 8.98399 0.65 9.5 0.65C10.016 0.65 10.5045 0.88253 10.8299 1.28301L11.2303 1.77578C11.2303 1.77578 11.2303 1.77579 11.2303 1.77579C11.3634 1.93954 11.5631 2.03462 11.7741 2.03462H13C13.1933 2.03462 13.35 2.19132 13.35 2.38462V5C13.35 5.1933 13.1933 5.35 13 5.35H6C5.8067 5.35 5.65 5.1933 5.65 5V2.38461Z" fill="white" stroke="#3E3F41" stroke-width="1.3"/>
<path d="M5.5 15L13.5 15" stroke="#3E3F41" stroke-linecap="round"/>
<path d="M5.5 18.5L13.5 18.5" stroke="#3E3F41" stroke-linecap="round"/>
<path d="M9.55469 8.46484V9.45071" stroke="#3E3F41" stroke-linecap="round"/>
<path d="M8.75 11.0996L7.50798 12.0489" stroke="#3E3F41" stroke-linecap="round"/>
<path d="M10.5117 11.0996L11.7406 12.0489" stroke="#3E3F41" stroke-linecap="round"/>
<circle cx="9.55805" cy="7.78265" r="0.683045" stroke="#3E3F41"/>
<circle cx="9.55805" cy="10.4389" r="0.683045" stroke="#3E3F41"/>
<circle cx="6.68305" cy="12.4819" r="0.683045" stroke="#3E3F41"/>
<circle cx="12.433" cy="12.4819" r="0.683045" stroke="#3E3F41"/>
</svg>
