<svg width="163" height="34" viewBox="0 0 163 34" fill="none" xmlns="http://www.w3.org/2000/svg">
<path d="M55.2174 25.6314H52.17V4.84922H55.2174V25.6314ZM46.5146 25.5216L43.4673 12.0695L40.42 25.5216H37.1805L41.9848 4.95904H44.9498L49.7541 25.5216H46.5146ZM72.9956 18.0817V13.5245H69.8659V10.5595H72.9956V4.84922H76.29V25.6314H59.5983V18.0817H72.9956ZM65.7479 5.61792H69.7561V8.25344H67.0382C67.6605 8.61949 68.1546 9.07704 68.5207 9.62611C68.905 10.1752 69.0972 10.7792 69.0972 11.438V12.8107C69.0972 13.3598 68.9599 13.8722 68.6854 14.3481C68.4292 14.8239 68.0723 15.2449 67.6147 15.6109C67.1571 15.977 66.6264 16.2607 66.0224 16.462C65.4184 16.6633 64.787 16.764 64.1281 16.764C63.4509 16.764 62.8195 16.6633 62.2338 16.462C61.6482 16.2607 61.1357 15.977 60.6965 15.6109C60.2572 15.2449 59.9095 14.8239 59.6532 14.3481C59.397 13.8722 59.2689 13.3598 59.2689 12.8107V11.5204C59.2689 10.7883 59.4611 10.1477 59.8454 9.59866C60.2297 9.04959 60.7148 8.60118 61.3004 8.25344H58.61V5.61792H62.6731V4.10798H65.7479V5.61792ZM62.8104 22.7488H73.0505V20.9369H62.8104V22.7488ZM66.2695 12.0146C66.2695 11.7766 66.2146 11.5478 66.1048 11.3282C65.995 11.0903 65.8485 10.889 65.6655 10.7242C65.4825 10.5412 65.2629 10.404 65.0066 10.3124C64.7504 10.2209 64.485 10.1752 64.2105 10.1752C63.9177 10.1752 63.6431 10.2209 63.3869 10.3124C63.149 10.404 62.9293 10.5412 62.728 10.7242C62.545 10.889 62.3986 11.0903 62.2888 11.3282C62.1789 11.5478 62.124 11.7766 62.124 12.0146V12.3989C62.124 12.6551 62.1789 12.8931 62.2888 13.1127C62.3986 13.3323 62.545 13.5336 62.728 13.7167C62.9293 13.8814 63.149 14.0095 63.3869 14.101C63.6431 14.1925 63.9177 14.2383 64.2105 14.2383C64.485 14.2383 64.7504 14.1925 65.0066 14.101C65.2629 14.0095 65.4825 13.8814 65.6655 13.7167C65.8485 13.5336 65.995 13.3323 66.1048 13.1127C66.2146 12.8931 66.2695 12.6551 66.2695 12.3989V12.0146ZM88.0833 14.5128L92.2563 25.5491H88.7697L86.2165 18.5759L82.9496 25.5491H79.4355L87.4794 7.95145H79.7924V4.95904H91.1307V7.95145L88.0833 14.5128ZM97.39 25.6314H94.3427V4.84922H97.39V25.6314ZM118.435 4.84922V25.6314H101.798V18.2739H104.901V22.7763H115.306V14.7324H110.446C109.934 15.2266 109.312 15.6201 108.579 15.9129C107.847 16.1875 107.06 16.3247 106.218 16.3247C105.486 16.3247 104.791 16.2149 104.132 15.9953C103.491 15.7574 102.924 15.4462 102.43 15.0619C101.954 14.6592 101.57 14.1925 101.277 13.6618C101.002 13.131 100.865 12.5636 100.865 11.9596V9.37903C100.865 8.77506 101.011 8.20769 101.304 7.67692C101.597 7.12785 101.991 6.652 102.485 6.24935C102.979 5.82839 103.537 5.5081 104.159 5.28848C104.782 5.05055 105.431 4.93158 106.109 4.93158H106.273C107.207 4.94989 108.067 5.14206 108.854 5.5081C109.659 5.85585 110.309 6.33171 110.803 6.93568H115.306V4.84922H118.435ZM108.607 9.95555C108.607 9.68102 108.552 9.42479 108.442 9.18686C108.332 8.93062 108.168 8.711 107.948 8.52798C107.728 8.34495 107.481 8.19853 107.207 8.08872C106.932 7.97891 106.639 7.924 106.328 7.924C106.017 7.924 105.715 7.97891 105.422 8.08872C105.148 8.19853 104.91 8.34495 104.709 8.52798C104.507 8.711 104.342 8.93062 104.214 9.18686C104.105 9.42479 104.05 9.68102 104.05 9.95555V11.4929C104.05 11.7858 104.105 12.0512 104.214 12.2891C104.342 12.527 104.507 12.7466 104.709 12.948C104.91 13.131 105.148 13.2774 105.422 13.3872C105.715 13.4787 106.017 13.5245 106.328 13.5245C106.639 13.5245 106.932 13.4787 107.207 13.3872C107.481 13.2774 107.728 13.131 107.948 12.948C108.168 12.7466 108.332 12.527 108.442 12.2891C108.552 12.0512 108.607 11.7858 108.607 11.4929V9.95555ZM111.737 12.0969H115.306V9.5712H111.737V11.9596V12.0969ZM134.539 17.0111L135.637 8.00636H123.036V4.95904H138.904V8.00636L137.723 17.0111H140.276V19.9486H132.37V25.6314H129.295V19.9486H121.389V17.0111H134.539ZM156.655 17.9994L151.905 8.80251L147.156 17.9994H143.093L149.819 4.93158H153.992L160.718 17.9994H156.655ZM150.258 22.7488V16.8463H153.552V22.7488H161.349V25.6314H142.461V22.7488H150.258Z" fill="black"/>
<path d="M12.8246 25.8356L22.1851 9.62268L22.2729 9.67336C23.2712 10.2497 24.5478 9.90769 25.1242 8.90937C25.7005 7.91106 25.3585 6.63451 24.3602 6.05813L15.6748 1.04363C14.6765 0.467248 13.3999 0.809297 12.8236 1.80762C12.2472 2.80593 12.5892 4.08248 13.5875 4.65886L13.8105 4.78758L4.44998 21.0005C3.1148 23.3131 3.90715 26.2702 6.21974 27.6054C8.53233 28.9405 11.4894 28.1482 12.8246 25.8356Z" fill="#D9F1F1"/>
<path d="M20.0891 12.2966L10.0581 12.2971L4.65049 20.9981C3.39248 23.0223 3.97918 25.6805 5.97235 26.9871C8.0592 28.3552 10.8652 27.711 12.1465 25.5698L20.0891 12.2966Z" fill="#29B8B5"/>
<path d="M20.089 3.59997L24.046 5.89816C25.0428 6.47712 25.373 7.76927 24.7941 8.76609V8.76609C24.2245 9.74679 22.9593 10.0945 21.9786 9.52496V9.52496L12.4263 25.9719C11.168 28.1384 8.39159 28.8747 6.22505 27.6163V27.6163C4.05851 26.358 3.32225 23.5816 4.58057 21.4151L14.1329 4.96818L14.0406 4.91461C13.0409 4.33399 12.7012 3.0529 13.2818 2.05321V2.05321C13.8601 1.05758 15.1339 0.715866 16.1328 1.28839L16.9799 1.77389" stroke="black" stroke-width="1.18501" stroke-linecap="round"/>
<path d="M15.0212 9.50846C15.2206 9.62361 15.4756 9.55528 15.5908 9.35584C15.7059 9.15641 15.6376 8.9014 15.4381 8.78626L15.0212 9.50846ZM12.5806 8.09939L15.0212 9.50846L15.4381 8.78626L12.9975 7.37718L12.5806 8.09939Z" fill="black" fill-opacity="0.5"/>
<path d="M13.2165 12.6296C13.4159 12.7447 13.6709 12.6764 13.7861 12.4769C13.9012 12.2775 13.8329 12.0225 13.6335 11.9073L13.2165 12.6296ZM10.7759 11.2205L13.2165 12.6296L13.6335 11.9073L11.1929 10.4983L10.7759 11.2205Z" fill="black" fill-opacity="0.5"/>
<path d="M11.4118 15.7585C11.6112 15.8736 11.8662 15.8053 11.9814 15.6058C12.0965 15.4064 12.0282 15.1514 11.8288 15.0363L11.4118 15.7585ZM8.9712 14.3494L11.4118 15.7585L11.8288 15.0363L9.38817 13.6272L8.9712 14.3494Z" fill="black" fill-opacity="0.5"/>
<path d="M9.60711 18.8757C9.80654 18.9908 10.0616 18.9225 10.1767 18.723C10.2918 18.5236 10.2235 18.2686 10.0241 18.1534L9.60711 18.8757ZM7.16652 17.4666L9.60711 18.8757L10.0241 18.1534L7.58348 16.7444L7.16652 17.4666Z" fill="black" fill-opacity="0.5"/>
<path d="M7.80243 22.0007C8.00186 22.1158 8.25687 22.0475 8.37201 21.848C8.48715 21.6486 8.41882 21.3936 8.21939 21.2784L7.80243 22.0007ZM5.36183 20.5916L7.80243 22.0007L8.21939 21.2784L5.7788 19.8694L5.36183 20.5916Z" fill="black" fill-opacity="0.5"/>
</svg>
