<svg width="28" height="28" viewBox="0 0 28 28" fill="none" xmlns="http://www.w3.org/2000/svg">
<path d="M14 26.5C20.9036 26.5 26.5 20.9036 26.5 14C26.5 7.09644 20.9036 1.5 14 1.5C7.09644 1.5 1.5 7.09644 1.5 14C1.5 20.9036 7.09644 26.5 14 26.5Z" stroke="#3E3F41" stroke-width="1.6" stroke-linecap="round" stroke-linejoin="round"/>
<path d="M20.8516 12.3359V16.3359M18.8516 14.3359H22.8516" stroke="#3E3F41" stroke-width="1.2" stroke-linecap="round" stroke-linejoin="round"/>
<path d="M9.5709 10.2838L8.1009 15.0578C8.09157 15.0858 8.09623 15.1138 8.1149 15.1418C8.13357 15.1605 8.1569 15.1698 8.1849 15.1698H10.9849C11.0129 15.1698 11.0362 15.1605 11.0549 15.1418C11.0736 15.1138 11.0782 15.0858 11.0689 15.0578L9.5989 10.2838C9.5989 10.2745 9.59423 10.2698 9.5849 10.2698C9.57557 10.2698 9.5709 10.2745 9.5709 10.2838ZM6.0709 19.0898C5.8749 19.0898 5.71623 19.0105 5.5949 18.8518C5.4829 18.6932 5.45957 18.5205 5.5249 18.3338L8.5209 9.62584C8.59557 9.40184 8.7309 9.21984 8.9269 9.07984C9.1229 8.93984 9.33757 8.86984 9.5709 8.86984H9.6549C9.89757 8.86984 10.1122 8.93984 10.2989 9.07984C10.4949 9.21984 10.6302 9.40184 10.7049 9.62584L13.7009 18.3338C13.7662 18.5205 13.7382 18.6932 13.6169 18.8518C13.5049 19.0105 13.3509 19.0898 13.1549 19.0898H13.0989C12.8656 19.0898 12.6509 19.0198 12.4549 18.8798C12.2682 18.7398 12.1376 18.5578 12.0629 18.3338L11.5029 16.4858C11.4936 16.4112 11.4422 16.3738 11.3489 16.3738H7.8209C7.7369 16.3738 7.68557 16.4112 7.6669 16.4858L7.1069 18.3338C7.04157 18.5578 6.9109 18.7398 6.7149 18.8798C6.52823 19.0198 6.31357 19.0898 6.0709 19.0898ZM15.5993 19.0898C15.3847 19.0898 15.198 19.0105 15.0393 18.8518C14.8807 18.6932 14.8013 18.5065 14.8013 18.2918V9.66784C14.8013 9.45318 14.8807 9.26651 15.0393 9.10784C15.198 8.94918 15.3847 8.86984 15.5993 8.86984H15.6833C15.898 8.86984 16.0847 8.94918 16.2433 9.10784C16.402 9.26651 16.4813 9.45318 16.4813 9.66784V18.2918C16.4813 18.5065 16.402 18.6932 16.2433 18.8518C16.0847 19.0105 15.898 19.0898 15.6833 19.0898H15.5993Z" fill="#3E3F41"/>
</svg>
