<svg width="10" height="14" viewBox="0 0 10 14" fill="none" xmlns="http://www.w3.org/2000/svg">
<path d="M1.60278 6.07445H5.19147C5.72024 6.07445 6.22735 5.84588 6.60124 5.43903C6.97513 5.03218 7.18518 4.48037 7.18518 3.905C7.18518 3.32963 6.97513 2.77782 6.60124 2.37097C6.22735 1.96412 5.72024 1.73556 5.19147 1.73556H1.60278V6.07445ZM9.57764 9.97945C9.57764 10.4923 9.48482 11.0001 9.30447 11.4738C9.12412 11.9476 8.85978 12.3781 8.52654 12.7407C8.1933 13.1033 7.79769 13.391 7.36229 13.5872C6.92689 13.7834 6.46023 13.8845 5.98896 13.8845H0.0078125V6.94223V0H5.19147C5.89402 3.20342e-05 6.58111 0.224453 7.16754 0.645434C7.75397 1.06642 8.21395 1.66544 8.49043 2.36823C8.76691 3.07101 8.84774 3.84665 8.72289 4.59896C8.59803 5.35126 8.273 6.04715 7.78808 6.60032C8.33249 6.94335 8.78441 7.43614 9.09851 8.02924C9.41262 8.62235 9.57785 9.29491 9.57764 9.97945ZM1.60278 7.81V12.1489H5.98896C6.51772 12.1489 7.02483 11.9203 7.39873 11.5135C7.77262 11.1066 7.98267 10.5548 7.98267 9.97945C7.98267 9.40408 7.77262 8.85227 7.39873 8.44542C7.02483 8.03857 6.51772 7.81 5.98896 7.81H1.60278Z" fill="#262626"/>
</svg>
