<svg width="22" height="25" viewBox="0 0 22 25" fill="none" xmlns="http://www.w3.org/2000/svg">
<path d="M15.3241 5.53333V4.62667C15.3241 3.35721 15.3241 2.72249 15.0839 2.23762C14.8726 1.81112 14.5355 1.46436 14.1208 1.24705C13.6494 1 13.0323 1 11.7981 1H10.0352C8.801 1 8.1839 1 7.7125 1.24705C7.29785 1.46436 6.96073 1.81112 6.74945 2.23762C6.50926 2.72249 6.50926 3.35721 6.50926 4.62667V5.53333M8.71296 11.7667V17.4333M13.1204 11.7667V17.4333M1 5.53333H20.8333M18.6296 5.53333V18.2267C18.6296 20.1308 18.6296 21.0829 18.2693 21.8102C17.9524 22.45 17.4467 22.9701 16.8248 23.2961C16.1177 23.6667 15.192 23.6667 13.3407 23.6667H8.49259C6.64131 23.6667 5.71567 23.6667 5.00857 23.2961C4.38659 22.9701 3.8809 22.45 3.56399 21.8102C3.2037 21.0829 3.2037 20.1308 3.2037 18.2267V5.53333" stroke="#3E3F41" stroke-width="1.5" stroke-linecap="round" stroke-linejoin="round"/>
</svg>
