<svg width="22" height="22" viewBox="0 0 22 22" fill="none" xmlns="http://www.w3.org/2000/svg">
<path d="M10.9167 20.8333H20.8333M1 20.8333H2.8451C3.38411 20.8333 3.65361 20.8333 3.90723 20.7693C4.13209 20.7126 4.34705 20.6189 4.54422 20.4919C4.76661 20.3486 4.95718 20.1483 5.33831 19.7476L19.1806 5.19493C20.0934 4.23529 20.0934 2.67939 19.1806 1.71974C18.2678 0.760087 16.7879 0.760088 15.875 1.71974L2.03272 16.2724C1.65159 16.6731 1.46102 16.8734 1.32474 17.1072C1.20391 17.3145 1.11487 17.5405 1.06089 17.7769C1 18.0436 1 18.3269 1 18.8936V20.8333Z" stroke="#3E3F41" stroke-width="1.5" stroke-linecap="round" stroke-linejoin="round"/>
</svg>
