<svg width="27" height="24" viewBox="0 0 27 24" fill="none" xmlns="http://www.w3.org/2000/svg">
<path d="M11.9033 3.55728C12.4193 3.48384 12.9517 3.44444 13.5 3.44444C19.9823 3.44444 24.2359 8.95036 25.6649 11.1283C25.8379 11.3919 25.9244 11.5238 25.9728 11.727C26.0091 11.8797 26.0091 12.1206 25.9727 12.2733C25.9243 12.4765 25.8372 12.6092 25.663 12.8746C25.2823 13.4546 24.7018 14.2698 23.9327 15.1539M6.80048 5.5406C4.05511 7.33319 2.19131 9.82368 1.33631 11.1265C1.16258 11.3912 1.07571 11.5235 1.02729 11.7268C0.990917 11.8795 0.990903 12.1203 1.02725 12.273C1.07565 12.4763 1.16213 12.6081 1.33508 12.8717C2.7641 15.0496 7.01773 20.5556 13.5 20.5556C16.1137 20.5556 18.3651 19.6604 20.2151 18.4492M2.07191 1L24.9281 23M10.8064 9.40727C10.117 10.0708 9.69063 10.9875 9.69063 12C9.69063 14.025 11.3961 15.6667 13.5 15.6667C14.5519 15.6667 15.5043 15.2563 16.1936 14.5927" stroke="#3E3F41" stroke-width="1.6" stroke-linecap="round" stroke-linejoin="round"/>
</svg>
