<svg width="18" height="16" viewBox="0 0 18 16" fill="none" xmlns="http://www.w3.org/2000/svg">
<path d="M14.9541 9.50783V11.8848H17.2327V13.4694H14.9541V15.8464H13.4351V13.4694H11.1566V11.8848H13.4351V9.50783H14.9541ZM14.9602 0C15.3764 0 15.7136 0.352582 15.7136 0.786773V7.92319H14.1946V1.58464H2.04246V12.6763L9.63756 4.75392L11.9161 7.13087V9.37234L9.63756 6.99539L4.18959 12.6771H9.63756V14.2617H1.27687C1.07698 14.2615 0.885342 14.1786 0.744067 14.031C0.602793 13.8835 0.523437 13.6835 0.523438 13.475V7.13087V0.786773C0.524827 0.578693 0.604629 0.379535 0.745604 0.232322C0.886579 0.0851093 1.07741 0.00165963 1.27687 0H14.9602ZM5.0805 3.16928C5.48337 3.16928 5.86974 3.33623 6.15461 3.63341C6.43948 3.93058 6.59952 4.33364 6.59952 4.75392C6.59952 5.17419 6.43948 5.57725 6.15461 5.87442C5.86974 6.1716 5.48337 6.33855 5.0805 6.33855C4.67763 6.33855 4.29126 6.1716 4.00639 5.87442C3.72152 5.57725 3.56148 5.17419 3.56148 4.75392C3.56148 4.33364 3.72152 3.93058 4.00639 3.63341C4.29126 3.33623 4.67763 3.16928 5.0805 3.16928Z" fill="#262626"/>
</svg>
