<svg width="16" height="14" viewBox="0 0 16 14" fill="none" xmlns="http://www.w3.org/2000/svg">
<path d="M12.1939 8.30049C12.3773 8.72879 12.4698 9.20524 12.4698 9.72817C12.4698 10.8421 12.0519 11.7136 11.2169 12.3403C10.3804 12.967 9.22642 13.2808 7.75346 13.2808C6.44559 13.2808 5.15127 12.9645 3.86971 12.3312V10.4586C5.08189 11.1866 6.32198 11.551 7.59078 11.551C9.62516 11.551 10.6451 10.9434 10.6523 9.72734C10.6565 9.48079 10.6129 9.23589 10.5241 9.00727C10.4354 8.77866 10.3032 8.57102 10.1356 8.39677L10.0399 8.29966H0.90625V6.63956H15.261V8.29966L12.1939 8.30049ZM8.94172 5.81034H4.59781C4.45812 5.67777 4.32977 5.53279 4.21422 5.37706C3.86971 4.91389 3.69745 4.35444 3.69745 3.69538C3.69745 2.66944 4.06908 1.79706 4.81154 1.07823C5.55559 0.359411 6.70477 0 8.26066 0C9.43377 0 10.5566 0.272256 11.6277 0.816768V2.60303C10.6707 2.03279 9.62197 1.74808 8.48077 1.74808C6.50301 1.74808 5.51492 2.39718 5.51492 3.69538C5.51492 4.044 5.68877 4.3478 6.03648 4.6076C6.38418 4.86741 6.81323 5.07409 7.32282 5.23014C7.81726 5.37955 8.35716 5.57378 8.94172 5.81034Z" fill="#262626"/>
</svg>
