<svg width="22" height="23" viewBox="0 0 22 23" fill="none" xmlns="http://www.w3.org/2000/svg">
<path d="M5.40741 1V4.92469C5.40741 5.57117 5.40741 5.89441 5.5275 6.14134C5.63314 6.35853 5.8017 6.53512 6.00903 6.64579C6.24473 6.77161 6.55328 6.77161 7.17037 6.77161H14.663C15.2801 6.77161 15.5886 6.77161 15.8243 6.64579C16.0316 6.53512 16.2002 6.35853 16.3058 6.14134C16.4259 5.89441 16.4259 5.57117 16.4259 4.92469V2.15432M16.4259 21.7778V14.3901C16.4259 13.7436 16.4259 13.4204 16.3058 13.1735C16.2002 12.9563 16.0316 12.7797 15.8243 12.669C15.5886 12.5432 15.2801 12.5432 14.663 12.5432H7.17037C6.55328 12.5432 6.24473 12.5432 6.00903 12.669C5.8017 12.7797 5.63314 12.9563 5.5275 13.1735C5.40741 13.4204 5.40741 13.7436 5.40741 14.3901V21.7778M20.8333 8.30164V16.237C20.8333 18.1765 20.8333 19.1462 20.4731 19.887C20.1561 20.5386 19.6504 21.0683 19.0285 21.4003C18.3214 21.7778 17.3957 21.7778 15.5444 21.7778H6.28889C4.4376 21.7778 3.51196 21.7778 2.80486 21.4003C2.18288 21.0683 1.6772 20.5386 1.36028 19.887C1 19.1462 1 18.1765 1 16.237V6.54074C1 4.6013 1 3.63158 1.36028 2.89081C1.6772 2.23921 2.18288 1.70945 2.80486 1.37744C3.51196 1 4.4376 1 6.28889 1H13.8636C14.4026 1 14.6721 1 14.9257 1.06379C15.1506 1.12034 15.3655 1.21362 15.5627 1.3402C15.7851 1.48297 15.9757 1.68261 16.3568 2.0819L19.8006 5.68971C20.1817 6.08899 20.3723 6.28863 20.5086 6.52161C20.6294 6.72817 20.7185 6.95337 20.7724 7.18893C20.8333 7.45463 20.8333 7.73697 20.8333 8.30164Z" stroke="#3E3F41" stroke-width="1.5" stroke-linecap="round" stroke-linejoin="round"/>
</svg>
