<svg width="14" height="13" viewBox="0 0 14 13" fill="none" xmlns="http://www.w3.org/2000/svg">
<path d="M1 3.38672H3.28859C4.49275 3.38672 5.58022 4.10671 6.05042 5.21526L7.19912 7.92344C7.66932 9.03199 8.75679 9.75198 9.96095 9.75198H12.2495" stroke="#9A9DA0" stroke-linecap="round"/>
<path d="M10.9531 7.54297L12.3777 9.09448C12.7289 9.47698 12.7289 10.0646 12.3777 10.4471L10.9531 11.9987" stroke="#9A9DA0" stroke-linecap="round"/>
<path d="M1 9.75391H3.28859C4.49275 9.75391 5.58022 9.03392 6.05042 7.92536L7.19912 5.21719C7.66932 4.10863 8.75679 3.38865 9.96095 3.38865H12.2495" stroke="#9A9DA0" stroke-linecap="round"/>
<path d="M10.9531 5.45703L12.3777 3.90552C12.7289 3.52302 12.7289 2.93536 12.3777 2.55286L10.9531 1.00135" stroke="#9A9DA0" stroke-linecap="round"/>
</svg>
