<svg width="13" height="16" viewBox="0 0 13 16" fill="none" xmlns="http://www.w3.org/2000/svg">
<path d="M3.0771 0V7.47044C3.0771 8.35101 3.39718 9.19551 3.96693 9.81817C4.53667 10.4408 5.30941 10.7906 6.11515 10.7906C6.92088 10.7906 7.69362 10.4408 8.26337 9.81817C8.83311 9.19551 9.15319 8.35101 9.15319 7.47044V0H10.6722V7.47044C10.6722 8.79129 10.1921 10.0581 9.33748 10.992C8.48286 11.926 7.32375 12.4507 6.11515 12.4507C4.90654 12.4507 3.74743 11.926 2.89282 10.992C2.0382 10.0581 1.55808 8.79129 1.55808 7.47044V0H3.0771ZM0.0390625 14.1108H12.1912V15.7709H0.0390625V14.1108Z" fill="#262626"/>
</svg>
